SplineFontDB: 3.0
FontName: DeliusUnicase-Bold
FullName: Delius Unicase Bold
FamilyName: Delius Unicase
Weight: Bold
Copyright: Copyright (c) 2010, 2011, Natalia Raices<nraices@gmail.com>, with Reserved Font Name "Delius" "Delius Unicase" "Delius Swash Caps".
Version: 001.001
ItalicAngle: 0
UnderlinePosition: -150
UnderlineWidth: 50
Ascent: 800
Descent: 200
sfntRevision: 0x00010042
LayerCount: 2
Layer: 0 1 "Back"  1
Layer: 1 1 "Fore"  0
NeedsXUIDChange: 1
XUID: [1021 288 713564382 5059491]
FSType: 0
OS2Version: 2
OS2_WeightWidthSlopeOnly: 0
OS2_UseTypoMetrics: 1
CreationTime: 1318243139
ModificationTime: 1318253976
PfmFamily: 17
TTFWeight: 700
TTFWidth: 5
LineGap: 0
VLineGap: 0
Panose: 2 0 6 3 0 0 0 0 0 0
OS2TypoAscent: 231
OS2TypoAOffset: 1
OS2TypoDescent: -52
OS2TypoDOffset: 1
OS2TypoLinegap: 0
OS2WinAscent: 0
OS2WinAOffset: 1
OS2WinDescent: 0
OS2WinDOffset: 1
HheadAscent: 0
HheadAOffset: 1
HheadDescent: 0
HheadDOffset: 1
OS2SubXSize: 700
OS2SubYSize: 650
OS2SubXOff: 0
OS2SubYOff: 140
OS2SupXSize: 700
OS2SupYSize: 650
OS2SupXOff: 0
OS2SupYOff: 477
OS2StrikeYSize: 50
OS2StrikeYPos: 250
OS2FamilyClass: 2560
OS2Vendor: 'pyrs'
OS2CodePages: 00000001.00000000
OS2UnicodeRanges: 800000a7.1000006a.00000000.00000000
Lookup: 258 0 0 "'kern' Horizontal Kerning in Latin lookup 0"  {"'kern' Horizontal Kerning in Latin lookup 0 per glyph data 0"  "'kern' Horizontal Kerning in Latin lookup 0 kerning class 1"  } ['kern' ('latn' <'dflt' > ) ]
MarkAttachClasses: 1
DEI: 91125
KernClass2: 2+ 3 "'kern' Horizontal Kerning in Latin lookup 0 kerning class 1" 
 17 m n nacute ntilde
 21 r rcommaaccent rcaron
 56 a agrave aacute acircumflex atilde adieresis aring q g d
 37 e egrave eacute ecircumflex edieresis
 0 {} -20 {} -10 {} 0 {} -30 {} 0 {}
TtTable: prep
PUSHW_1
 511
SCANCTRL
PUSHB_1
 4
SCANTYPE
EndTTInstrs

StartChar: five
Encoding: 53 53 4
Width: 644
Flags: HMW
HStem: -15 127<289.5 356.5 289.5 401> -15 237<113.5 401> 330 183<137.5 417.5> 390 123<319.5 366> 622 134<440 490 440 490> 730 20G<281.5 340> 734 20G<156.5 204>
VStem: 86 146<531.5 713.5> 98 134<531.5 562.5 531.5 571> 444 142<221 295>
LayerCount: 2
Fore
SplineSet
309 750 m 1,0,-1
 465 756 l 1,1,2
 502 756 502 756 524.5 737.5 c 128,-1,3
 547 719 547 719 547 688.5 c 128,-1,4
 547 658 547 658 524.5 640 c 128,-1,5
 502 622 502 622 465 622 c 1,6,-1
 309 628 l 1,7,8
 252 628 252 628 229 627 c 1,9,10
 232 561 232 561 232 549 c 2,11,-1
 229 486 l 1,12,13
 275 513 275 513 335 513 c 0,14,15
 454 513 454 513 520 440 c 128,-1,16
 586 367 586 367 586 257 c 128,-1,17
 586 147 586 147 512 66 c 128,-1,18
 438 -15 438 -15 314 -15 c 0,19,20
 210 -15 210 -15 139.5 46 c 128,-1,21
 69 107 69 107 69 158 c 0,22,23
 69 185 69 185 87 203.5 c 128,-1,24
 105 222 105 222 131 222 c 128,-1,25
 157 222 157 222 171 212 c 128,-1,26
 185 202 185 202 199 182 c 0,27,28
 248 112 248 112 320 112 c 0,29,30
 373 112 373 112 408.5 156 c 128,-1,31
 444 200 444 200 444 257.5 c 128,-1,32
 444 315 444 315 413.5 352.5 c 128,-1,33
 383 390 383 390 331.5 390 c 128,-1,34
 280 390 280 390 231 360 c 128,-1,35
 182 330 182 330 157 330 c 0,36,37
 84 330 84 330 84 399 c 0,38,39
 84 424 84 424 91 472 c 128,-1,40
 98 520 98 520 98 545 c 128,-1,41
 98 570 98 570 92 613 c 128,-1,42
 86 656 86 656 86 680 c 0,43,44
 86 754 86 754 174 754 c 1,45,-1
 309 750 l 1,0,-1
EndSplineSet
EndChar

StartChar: seven
Encoding: 55 55 5
Width: 559
Flags: HMW
HStem: -9 21G<180.5 218.5> 622 134<93 143 93 148.5> 730 20G<249 307.5>
LayerCount: 2
Fore
SplineSet
280 750 m 1,0,-1
 449 756 l 1,1,2
 486 756 486 756 507.5 736.5 c 128,-1,3
 529 717 529 717 529 684.5 c 128,-1,4
 529 652 529 652 511.5 614 c 128,-1,5
 494 576 494 576 452 499 c 128,-1,6
 410 422 410 422 355 298 c 128,-1,7
 300 174 300 174 271 68 c 0,8,9
 260 28 260 28 243.5 9.5 c 128,-1,10
 227 -9 227 -9 199 -9 c 128,-1,11
 171 -9 171 -9 151 11 c 128,-1,12
 131 31 131 31 131 60 c 0,13,14
 131 116 131 116 221 328 c 0,15,16
 256 411 256 411 360 627 c 1,17,18
 337 628 337 628 280 628 c 1,19,-1
 118 622 l 1,20,21
 81 622 81 622 58.5 640 c 128,-1,22
 36 658 36 658 36 688.5 c 128,-1,23
 36 719 36 719 58.5 737.5 c 128,-1,24
 81 756 81 756 118 756 c 1,25,-1
 280 750 l 1,0,-1
EndSplineSet
EndChar

StartChar: tilde
Encoding: 732 732 6
Width: 592
Flags: HMW
HStem: 556 121 611 66 611 110 705 20G<179.5 253.5>
LayerCount: 2
Fore
SplineSet
517 669 m 0,0,1
 517 635 517 635 475.5 598.5 c 128,-1,2
 434 562 434 562 396 562 c 0,3,4
 358 562 358 562 307.5 586.5 c 128,-1,5
 257 611 257 611 241.5 611 c 0,6,7
 226 611 226 611 195.5 583.5 c 128,-1,8
 165 556 165 556 138 556 c 0,9,10
 111 556 111 556 93 574.5 c 128,-1,11
 75 593 75 593 75 620 c 0,12,13
 75 659 75 659 118 692 c 128,-1,14
 161 725 161 725 224 725 c 0,15,16
 256 725 256 725 310 701 c 128,-1,17
 364 677 364 677 386 677 c 0,18,19
 408 677 408 677 432 699 c 128,-1,20
 456 721 456 721 474.5 721 c 0,21,22
 493 721 493 721 505 706 c 128,-1,23
 517 691 517 691 517 669 c 0,0,1
EndSplineSet
EndChar

StartChar: ellipsis
Encoding: 8230 8230 7
Width: 807
Flags: HMW
HStem: -10 174<120.5 164.5 380.5 424.5 640.5 684.5>
VStem: 61 164<59.5 95.5> 321 164<59.5 95.5> 581 164<59.5 95.5>
CounterMasks: 1 70
LayerCount: 2
Fore
SplineSet
203.5 140 m 128,-1,1
 225 116 225 116 225 81 c 128,-1,2
 225 46 225 46 200.5 18 c 128,-1,3
 176 -10 176 -10 139.5 -10 c 128,-1,4
 103 -10 103 -10 82 14.5 c 128,-1,5
 61 39 61 39 61 74 c 128,-1,6
 61 109 61 109 85 136.5 c 128,-1,7
 109 164 109 164 145.5 164 c 128,-1,0
 182 164 182 164 203.5 140 c 128,-1,1
463.5 140 m 128,-1,9
 485 116 485 116 485 81 c 128,-1,10
 485 46 485 46 460.5 18 c 128,-1,11
 436 -10 436 -10 399.5 -10 c 128,-1,12
 363 -10 363 -10 342 14.5 c 128,-1,13
 321 39 321 39 321 74 c 128,-1,14
 321 109 321 109 345 136.5 c 128,-1,15
 369 164 369 164 405.5 164 c 128,-1,8
 442 164 442 164 463.5 140 c 128,-1,9
723.5 140 m 128,-1,17
 745 116 745 116 745 81 c 128,-1,18
 745 46 745 46 720.5 18 c 128,-1,19
 696 -10 696 -10 659.5 -10 c 128,-1,20
 623 -10 623 -10 602 14.5 c 128,-1,21
 581 39 581 39 581 74 c 128,-1,22
 581 109 581 109 605 136.5 c 128,-1,23
 629 164 629 164 665.5 164 c 128,-1,16
 702 164 702 164 723.5 140 c 128,-1,17
EndSplineSet
EndChar

StartChar: colon
Encoding: 58 58 8
Width: 306
Flags: HMW
HStem: -10 174<130.5 174.5> 330 174<130.5 174.5>
VStem: 71 164<59.5 95.5 399.5 435.5>
LayerCount: 2
Fore
SplineSet
213.5 140 m 128,-1,1
 235 116 235 116 235 81 c 128,-1,2
 235 46 235 46 210.5 18 c 128,-1,3
 186 -10 186 -10 149.5 -10 c 128,-1,4
 113 -10 113 -10 92 14.5 c 128,-1,5
 71 39 71 39 71 74 c 128,-1,6
 71 109 71 109 95 136.5 c 128,-1,7
 119 164 119 164 155.5 164 c 128,-1,0
 192 164 192 164 213.5 140 c 128,-1,1
213.5 480 m 128,-1,9
 235 456 235 456 235 421 c 128,-1,10
 235 386 235 386 210.5 358 c 128,-1,11
 186 330 186 330 149.5 330 c 128,-1,12
 113 330 113 330 92 354.5 c 128,-1,13
 71 379 71 379 71 414 c 128,-1,14
 71 449 71 449 95 476.5 c 128,-1,15
 119 504 119 504 155.5 504 c 128,-1,8
 192 504 192 504 213.5 480 c 128,-1,9
EndSplineSet
EndChar

StartChar: period
Encoding: 46 46 9
Width: 287
Flags: HMW
HStem: -10 174<120.5 164.5>
VStem: 61 164<59.5 95.5>
LayerCount: 2
Fore
SplineSet
203.5 140 m 128,-1,1
 225 116 225 116 225 81 c 128,-1,2
 225 46 225 46 200.5 18 c 128,-1,3
 176 -10 176 -10 139.5 -10 c 128,-1,4
 103 -10 103 -10 82 14.5 c 128,-1,5
 61 39 61 39 61 74 c 128,-1,6
 61 109 61 109 85 136.5 c 128,-1,7
 109 164 109 164 145.5 164 c 128,-1,0
 182 164 182 164 203.5 140 c 128,-1,1
EndSplineSet
EndChar

StartChar: zero
Encoding: 48 48 10
Width: 731
Flags: HMW
HStem: -15 126<319 416.5 319 463> 638 127<319 416.5>
VStem: 66 142<306.5 443 306.5 475.5> 522 142<306.5 443>
LayerCount: 2
Fore
SplineSet
664 375 m 0,0,1
 664 272 664 272 630.5 184.5 c 128,-1,2
 597 97 597 97 528 41 c 128,-1,3
 459 -15 459 -15 367.5 -15 c 128,-1,4
 276 -15 276 -15 206 41 c 128,-1,5
 136 97 136 97 101 184.5 c 128,-1,6
 66 272 66 272 66 375 c 0,7,8
 66 533 66 533 149 649 c 128,-1,9
 232 765 232 765 368 765 c 128,-1,10
 504 765 504 765 584 650 c 128,-1,11
 664 535 664 535 664 375 c 0,0,1
480 188.5 m 128,-1,13
 522 266 522 266 522 374.5 c 128,-1,14
 522 483 522 483 480 560.5 c 128,-1,15
 438 638 438 638 367.5 638 c 128,-1,16
 297 638 297 638 252.5 559.5 c 128,-1,17
 208 481 208 481 208 374.5 c 128,-1,18
 208 268 208 268 252.5 189.5 c 128,-1,19
 297 111 297 111 367.5 111 c 128,-1,12
 438 111 438 111 480 188.5 c 128,-1,13
EndSplineSet
EndChar

StartChar: two
Encoding: 50 50 11
Width: 616
Flags: HMW
HStem: -6 134<452 502.5> 0 21G<288 344.5> 532 233<120 368> 638 127<255 314.5>
VStem: 377 141<522.5 580>
LayerCount: 2
Fore
SplineSet
315 122 m 1,0,-1
 478 128 l 1,1,2
 515 128 515 128 537.5 110 c 128,-1,3
 560 92 560 92 560 61.5 c 128,-1,4
 560 31 560 31 537.5 12.5 c 128,-1,5
 515 -6 515 -6 478 -6 c 1,6,-1
 315 0 l 1,7,-1
 142 -6 l 1,8,9
 51 -6 51 -6 51 69 c 0,10,11
 51 96 51 96 77.5 139 c 128,-1,12
 104 182 104 182 130.5 213.5 c 128,-1,13
 157 245 157 245 204.5 299 c 128,-1,14
 252 353 252 353 271.5 376 c 128,-1,15
 291 399 291 399 321 438 c 0,16,17
 377 510.8 377 510.8 377 551.4 c 128,-1,18
 377 592 377 592 352.5 615 c 128,-1,19
 328 638 328 638 300 638 c 128,-1,20
 272 638 272 638 255.5 627 c 128,-1,21
 239 616 239 616 227.5 600.5 c 128,-1,22
 216 585 216 585 204.5 569.5 c 0,23,24
 176.677419355 532 176.677419355 532 143.838709677 532 c 128,-1,25
 111 532 111 532 92 550.5 c 128,-1,26
 73 569 73 569 73 594 c 0,27,28
 73 647 73 647 136.5 706 c 128,-1,29
 200 765 200 765 300 765 c 128,-1,30
 400 765 400 765 459 705 c 128,-1,31
 518 645 518 645 518 557 c 0,32,33
 518 488.744680851 518 488.744680851 456.5 405 c 0,34,35
 414.2 347.4 414.2 347.4 329 248 c 1,36,37
 250 152 250 152 231 123 c 1,38,39
 257 122 257 122 315 122 c 1,0,-1
EndSplineSet
EndChar

StartChar: six
Encoding: 54 54 12
Width: 645
Flags: HMW
HStem: -14 126<294.5 361 294.5 415.5> 376 126<326.5 367.5> 629 130<399.5 485>
VStem: 67 151<211 282 211 416> 445 142<209 282>
LayerCount: 2
Fore
SplineSet
522 426 m 128,-1,1
 587 350 587 350 587 247 c 128,-1,2
 587 144 587 144 519 65 c 128,-1,3
 451 -14 451 -14 329.5 -14 c 128,-1,4
 208 -14 208 -14 137.5 71.5 c 128,-1,5
 67 157 67 157 67 286 c 128,-1,6
 67 415 67 415 116 522.5 c 128,-1,7
 165 630 165 630 255 694.5 c 128,-1,8
 345 759 345 759 455 759 c 0,9,10
 502 759 502 759 527 742 c 128,-1,11
 552 725 552 725 552 697 c 128,-1,12
 552 669 552 669 525.5 649 c 128,-1,13
 499 629 499 629 450 629 c 0,14,15
 314 629 314 629 240 475 c 1,16,17
 296 502 296 502 346 502 c 0,18,0
 457 502 457 502 522 426 c 128,-1,1
248.5 151.5 m 128,-1,20
 279 112 279 112 328.5 112 c 128,-1,21
 378 112 378 112 411.5 150.5 c 128,-1,22
 445 189 445 189 445 244.5 c 128,-1,23
 445 300 445 300 414 338 c 128,-1,24
 383 376 383 376 333.5 376 c 128,-1,25
 284 376 284 376 251 338 c 128,-1,26
 218 300 218 300 218 245.5 c 128,-1,19
 218 191 218 191 248.5 151.5 c 128,-1,20
EndSplineSet
EndChar

StartChar: eight
Encoding: 56 56 13
Width: 664
Flags: HMW
HStem: -14 126<296.5 367.5 296.5 412> 638 127<310 355.5>
VStem: 64 141<183 243.5 183 261> 101 139<558 593.5 558 627> 424 139<558 594> 459 141<183 243.5>
LayerCount: 2
Fore
SplineSet
600 214 m 0,0,1
 600 119 600 119 525 52.5 c 128,-1,2
 450 -14 450 -14 332 -14 c 128,-1,3
 214 -14 214 -14 139 52.5 c 128,-1,4
 64 119 64 119 64 214 c 0,5,6
 64 337 64 337 197 418 c 1,7,8
 101 485 101 485 101 577 c 0,9,10
 101 654 101 654 166.5 709.5 c 128,-1,11
 232 765 232 765 331.5 765 c 0,12,13
 431 765 431 765 497 709.5 c 128,-1,14
 563 654 563 654 563 571.5 c 0,15,16
 563 489 563 489 472 418 c 1,17,18
 600 335 600 335 600 214 c 0,0,1
459 214 m 0,19,20
 459 291 459 291 332 346 c 1,21,22
 205 291 205 291 205 214 c 0,23,24
 205 168 205 168 241.5 140 c 128,-1,25
 278 112 278 112 332 112 c 128,-1,26
 386 112 386 112 422.5 140 c 128,-1,27
 459 168 459 168 459 214 c 0,19,20
424 576 m 0,28,29
 424 602 424 602 396 620 c 128,-1,30
 368 638 368 638 332.5 638 c 0,31,32
 297 638 297 638 268.5 620 c 128,-1,33
 240 602 240 602 240 576 c 0,34,35
 240 533 240 533 334 485 c 1,36,37
 424 531 424 531 424 576 c 0,28,29
EndSplineSet
EndChar

StartChar: nine
Encoding: 57 57 14
Width: 642
Flags: HMW
HStem: -15 133 249 127<270.5 315.5> 638 127<280 345.5>
VStem: 56 141<469.5 542.5 469.5 572.5> 427 148<479.5 546 329 548>
LayerCount: 2
Fore
SplineSet
120.5 327 m 128,-1,1
 56 405 56 405 56 508 c 128,-1,2
 56 611 56 611 126 688 c 128,-1,3
 196 765 196 765 315 765 c 128,-1,4
 434 765 434 765 504.5 679 c 128,-1,5
 575 593 575 593 575 461 c 0,6,7
 575 260 575 260 465 122.5 c 128,-1,8
 355 -15 355 -15 187 -15 c 0,9,10
 141 -15 141 -15 116 3.5 c 128,-1,11
 91 22 91 22 91 49.5 c 128,-1,12
 91 77 91 77 111.5 96.5 c 128,-1,13
 132 116 132 116 178 118 c 0,14,15
 253 122 253 122 312.5 164 c 128,-1,16
 372 206 372 206 404 276 c 1,17,18
 352 249 352 249 296 249 c 0,19,0
 185 249 185 249 120.5 327 c 128,-1,1
230 600 m 128,-1,21
 197 562 197 562 197 506.5 c 128,-1,22
 197 451 197 451 226.5 413.5 c 128,-1,23
 256 376 256 376 308 376 c 128,-1,24
 360 376 360 376 393.5 417.5 c 128,-1,25
 427 459 427 459 427 512.5 c 128,-1,26
 427 566 427 566 394.5 602 c 128,-1,27
 362 638 362 638 312.5 638 c 128,-1,20
 263 638 263 638 230 600 c 128,-1,21
EndSplineSet
EndChar

StartChar: comma
Encoding: 44 44 15
Width: 264
Flags: HMW
HStem: -135 21G<61 101.5> 139 20G<102 150>
VStem: 46 154<59.5 94.5>
LayerCount: 2
Fore
SplineSet
56 -3 m 1,0,-1
 46 73 l 1,1,2
 46 107 46 107 68.5 133 c 128,-1,3
 91 159 91 159 125.5 159 c 128,-1,4
 160 159 160 159 180 135 c 128,-1,5
 200 111 200 111 200 77 c 0,6,7
 200 9 200 9 157 -63 c 128,-1,8
 114 -135 114 -135 78 -135 c 0,9,10
 55 -135 55 -135 44 -121 c 128,-1,11
 33 -107 33 -107 33 -91.5 c 128,-1,12
 33 -76 33 -76 44.5 -49.5 c 128,-1,13
 56 -23 56 -23 56 -3 c 1,0,-1
EndSplineSet
EndChar

StartChar: quotedblleft
Encoding: 8220 8220 16
Width: 517
Flags: HMW
HStem: 466 21G<105 153 352 400> 740 20G<153.5 194 400.5 441>
VStem: 55 154<530.5 565.5 530.5 594.5> 302 154<530.5 565.5 530.5 594.5>
LayerCount: 2
Fore
SplineSet
199 628 m 1,0,-1
 209 552 l 1,1,2
 209 518 209 518 186.5 492 c 128,-1,3
 164 466 164 466 129.5 466 c 128,-1,4
 95 466 95 466 75 490 c 128,-1,5
 55 514 55 514 55 548 c 0,6,7
 55 616 55 616 98 688 c 128,-1,8
 141 760 141 760 177 760 c 0,9,10
 200 760 200 760 211 746 c 128,-1,11
 222 732 222 732 222 716 c 128,-1,12
 222 700 222 700 210.5 674 c 128,-1,13
 199 648 199 648 199 628 c 1,0,-1
446 628 m 1,14,-1
 456 552 l 1,15,16
 456 518 456 518 433.5 492 c 128,-1,17
 411 466 411 466 376.5 466 c 128,-1,18
 342 466 342 466 322 490 c 128,-1,19
 302 514 302 514 302 548 c 0,20,21
 302 616 302 616 345 688 c 128,-1,22
 388 760 388 760 424 760 c 0,23,24
 447 760 447 760 458 746 c 128,-1,25
 469 732 469 732 469 716 c 128,-1,26
 469 700 469 700 457.5 674 c 128,-1,27
 446 648 446 648 446 628 c 1,14,-1
EndSplineSet
EndChar

StartChar: quoteleft
Encoding: 8216 8216 17
Width: 270
Flags: HMW
HStem: 466 21G<105 153> 740 20G<153.5 194>
VStem: 55 154<530.5 565.5 530.5 594.5>
LayerCount: 2
Fore
SplineSet
199 628 m 1,0,-1
 209 552 l 1,1,2
 209 518 209 518 186.5 492 c 128,-1,3
 164 466 164 466 129.5 466 c 128,-1,4
 95 466 95 466 75 490 c 128,-1,5
 55 514 55 514 55 548 c 0,6,7
 55 616 55 616 98 688 c 128,-1,8
 141 760 141 760 177 760 c 0,9,10
 200 760 200 760 211 746 c 128,-1,11
 222 732 222 732 222 716 c 128,-1,12
 222 700 222 700 210.5 674 c 128,-1,13
 199 648 199 648 199 628 c 1,0,-1
EndSplineSet
EndChar

StartChar: quoteright
Encoding: 8217 8217 18
Width: 271
Flags: HMW
HStem: 466 21G<81 121.5> 740 20G<122 170>
VStem: 66 154<660.5 695.5>
LayerCount: 2
Fore
SplineSet
76 598 m 1,0,-1
 66 674 l 1,1,2
 66 708 66 708 88.5 734 c 128,-1,3
 111 760 111 760 145.5 760 c 128,-1,4
 180 760 180 760 200 736 c 128,-1,5
 220 712 220 712 220 678 c 0,6,7
 220 610 220 610 177 538 c 128,-1,8
 134 466 134 466 98 466 c 0,9,10
 75 466 75 466 64 480 c 128,-1,11
 53 494 53 494 53 510 c 128,-1,12
 53 526 53 526 64.5 552 c 128,-1,13
 76 578 76 578 76 598 c 1,0,-1
EndSplineSet
EndChar

StartChar: quotedbl
Encoding: 34 34 19
Width: 473
Flags: HMW
HStem: 497 21G<108 148 325 365> 740 20G<107.5 148.5 324.5 365.5>
VStem: 60 125<554 706.5> 277 125<554 706.5>
LayerCount: 2
Fore
SplineSet
128 497 m 128,-1,1
 99 497 99 497 85 519 c 128,-1,2
 71 541 71 541 71 566 c 0,3,4
 71 591 71 591 65.5 625.5 c 128,-1,5
 60 660 60 660 60 689 c 0,6,7
 60 718 60 718 78.5 739 c 128,-1,8
 97 760 97 760 128 760 c 128,-1,9
 159 760 159 760 177.5 739 c 128,-1,10
 196 718 196 718 196 689 c 0,11,12
 196 660 196 660 190.5 625.5 c 128,-1,13
 185 591 185 591 185 566 c 0,14,15
 185 541 185 541 171 519 c 128,-1,0
 157 497 157 497 128 497 c 128,-1,1
345 497 m 128,-1,17
 316 497 316 497 302 519 c 128,-1,18
 288 541 288 541 288 566 c 0,19,20
 288 591 288 591 282.5 625.5 c 128,-1,21
 277 660 277 660 277 689 c 0,22,23
 277 718 277 718 295.5 739 c 128,-1,24
 314 760 314 760 345 760 c 128,-1,25
 376 760 376 760 394.5 739 c 128,-1,26
 413 718 413 718 413 689 c 0,27,28
 413 660 413 660 407.5 625.5 c 128,-1,29
 402 591 402 591 402 566 c 0,30,31
 402 541 402 541 388 519 c 128,-1,16
 374 497 374 497 345 497 c 128,-1,17
EndSplineSet
EndChar

StartChar: guillemotleft
Encoding: 171 171 20
Width: 611
Flags: HMW
HStem: 184 21G<209.5 242.5 468.5 501.5> 547 20G<209.5 242.5 468.5 501.5>
VStem: 49 236<226.5 402.5> 308 236<226.5 402.5>
LayerCount: 2
Fore
SplineSet
232 434 m 0,0,1
 180 389 180 389 180 375.5 c 128,-1,2
 180 362 180 362 232 317 c 0,3,4
 251 301 251 301 259.5 292.5 c 0,5,6
 285 267 285 267 285 243 c 128,-1,7
 285 219 285 219 267.5 201.5 c 128,-1,8
 250 184 250 184 232 184 c 128,-1,9
 214 184 214 184 202.5 190.5 c 128,-1,10
 191 197 191 197 184 204 c 128,-1,11
 177 211 177 211 160 230.5 c 128,-1,12
 143 250 143 250 131 262 c 128,-1,13
 119 274 119 274 100.5 291 c 128,-1,14
 82 308 82 308 73 317 c 128,-1,15
 64 326 64 326 56.5 341.5 c 128,-1,16
 49 357 49 357 49 376 c 128,-1,17
 49 395 49 395 56.5 410.5 c 128,-1,18
 64 426 64 426 73 434.5 c 128,-1,19
 82 443 82 443 100.5 460 c 128,-1,20
 119 477 119 477 131 489 c 128,-1,21
 143 501 143 501 160 520.5 c 128,-1,22
 177 540 177 540 184 547 c 0,23,24
 204 567 204 567 227 567 c 128,-1,25
 250 567 250 567 267.5 549.5 c 128,-1,26
 285 532 285 532 285 513.5 c 128,-1,27
 285 495 285 495 276.5 481 c 128,-1,28
 268 467 268 467 259.5 458.5 c 128,-1,29
 251 450 251 450 232 434 c 0,0,1
491 434 m 0,30,31
 439 389 439 389 439 375.5 c 128,-1,32
 439 362 439 362 491 317 c 0,33,34
 510 301 510 301 518.5 292.5 c 0,35,36
 544 267 544 267 544 243 c 128,-1,37
 544 219 544 219 526.5 201.5 c 128,-1,38
 509 184 509 184 491 184 c 128,-1,39
 473 184 473 184 461.5 190.5 c 128,-1,40
 450 197 450 197 443 204 c 128,-1,41
 436 211 436 211 419 230.5 c 128,-1,42
 402 250 402 250 390 262 c 128,-1,43
 378 274 378 274 359.5 291 c 128,-1,44
 341 308 341 308 332 317 c 128,-1,45
 323 326 323 326 315.5 341.5 c 128,-1,46
 308 357 308 357 308 376 c 128,-1,47
 308 395 308 395 315.5 410.5 c 128,-1,48
 323 426 323 426 332 434.5 c 128,-1,49
 341 443 341 443 359.5 460 c 128,-1,50
 378 477 378 477 390 489 c 128,-1,51
 402 501 402 501 419 520.5 c 128,-1,52
 436 540 436 540 443 547 c 0,53,54
 463 567 463 567 486 567 c 128,-1,55
 509 567 509 567 526.5 549.5 c 128,-1,56
 544 532 544 532 544 513.5 c 128,-1,57
 544 495 544 495 535.5 481 c 128,-1,58
 527 467 527 467 518.5 458.5 c 128,-1,59
 510 450 510 450 491 434 c 0,30,31
EndSplineSet
EndChar

StartChar: exclam
Encoding: 33 33 21
Width: 314
Flags: HMW
HStem: -15 164<136 177> 740 20G<134 180>
VStem: 83 141<425.5 693.5>
LayerCount: 2
Fore
SplineSet
224 461 m 1,0,-1
 225 312 l 2,1,2
 225 273 225 273 206.5 250 c 128,-1,3
 188 227 188 227 156.5 227 c 128,-1,4
 125 227 125 227 106.5 250 c 128,-1,5
 88 273 88 273 88 312 c 2,6,7
 90 461 l 1,8,-1
 83 662 l 1,9,10
 83 709 83 709 102.5 734.5 c 128,-1,11
 122 760 122 760 157 760 c 128,-1,12
 192 760 192 760 211.5 734.5 c 128,-1,13
 231 709 231 709 231 662 c 1,14,-1
 224 461 l 1,0,-1
214 126.5 m 128,-1,16
 234 104 234 104 234 71 c 128,-1,17
 234 38 234 38 211 11.5 c 128,-1,18
 188 -15 188 -15 153.5 -15 c 128,-1,19
 119 -15 119 -15 99.5 8 c 128,-1,20
 80 31 80 31 80 64 c 128,-1,21
 80 97 80 97 102.5 123 c 128,-1,22
 125 149 125 149 159.5 149 c 128,-1,15
 194 149 194 149 214 126.5 c 128,-1,16
EndSplineSet
EndChar

StartChar: question
Encoding: 63 63 22
Width: 547
Flags: HMW
HStem: -15 164<215 256> 560 206<97 331> 638 128<228.5 287>
VStem: 159 147 171 135<261.5 323 261 351> 350 142<519.5 589.5>
LayerCount: 2
Fore
SplineSet
492 568 m 0,0,1
 492 526 492 526 463 481.5 c 128,-1,2
 434 437 434 437 399 407 c 0,3,4
 306 327.285714286 306 327.285714286 306 289 c 0,5,6
 306 205 306 205 240 205 c 0,7,8
 210 205 210 205 190.5 227 c 128,-1,9
 171 249 171 249 171 286 c 128,-1,10
 171 323 171 323 189.5 355.5 c 128,-1,11
 208 388 208 388 234 413.5 c 128,-1,12
 260 439 260 439 286.5 463 c 0,13,14
 350 520.509433962 350 520.509433962 350 568 c 0,15,16
 350 599 350 599 324.5 618.5 c 128,-1,17
 299 638 299 638 266.5 638 c 128,-1,18
 234 638 234 638 209.5 618.5 c 128,-1,19
 185 599 185 599 163.5 579.5 c 128,-1,20
 142 560 142 560 115 560 c 128,-1,21
 88 560 88 560 71 578.5 c 128,-1,22
 54 597 54 597 54 622 c 0,23,24
 54 669 54 669 119 717.5 c 128,-1,25
 184 766 184 766 262 766 c 0,26,27
 364 766 364 766 428 709 c 128,-1,28
 492 652 492 652 492 568 c 0,0,1
293 126.5 m 128,-1,30
 313 104 313 104 313 71 c 128,-1,31
 313 38 313 38 290 11.5 c 128,-1,32
 267 -15 267 -15 232.5 -15 c 128,-1,33
 198 -15 198 -15 178.5 8 c 128,-1,34
 159 31 159 31 159 64 c 128,-1,35
 159 97 159 97 181.5 123 c 128,-1,36
 204 149 204 149 238.5 149 c 128,-1,29
 273 149 273 149 293 126.5 c 128,-1,30
EndSplineSet
EndChar

StartChar: quotesingle
Encoding: 39 39 23
Width: 256
Flags: HMW
HStem: 497 21G<108 148> 740 20G<107.5 148.5>
VStem: 60 125<554 706.5>
LayerCount: 2
Fore
SplineSet
128 497 m 128,-1,1
 99 497 99 497 85 519 c 128,-1,2
 71 541 71 541 71 566 c 0,3,4
 71 591 71 591 65.5 625.5 c 128,-1,5
 60 660 60 660 60 689 c 0,6,7
 60 718 60 718 78.5 739 c 128,-1,8
 97 760 97 760 128 760 c 128,-1,9
 159 760 159 760 177.5 739 c 128,-1,10
 196 718 196 718 196 689 c 0,11,12
 196 660 196 660 190.5 625.5 c 128,-1,13
 185 591 185 591 185 566 c 0,14,15
 185 541 185 541 171 519 c 128,-1,0
 157 497 157 497 128 497 c 128,-1,1
EndSplineSet
EndChar

StartChar: dieresis
Encoding: 168 168 24
Width: 542
Flags: HMW
HStem: 560 164<131 172 369 410>
VStem: 75 154<625.5 659.5> 313 154<625.5 659.5>
LayerCount: 2
Fore
SplineSet
447 701.5 m 128,-1,1
 467 679 467 679 467 646 c 128,-1,2
 467 613 467 613 444 586.5 c 128,-1,3
 421 560 421 560 386.5 560 c 128,-1,4
 352 560 352 560 332.5 583 c 128,-1,5
 313 606 313 606 313 639 c 128,-1,6
 313 672 313 672 335.5 698 c 128,-1,7
 358 724 358 724 392.5 724 c 128,-1,0
 427 724 427 724 447 701.5 c 128,-1,1
209 701.5 m 128,-1,9
 229 679 229 679 229 646 c 128,-1,10
 229 613 229 613 206 586.5 c 128,-1,11
 183 560 183 560 148.5 560 c 128,-1,12
 114 560 114 560 94.5 583 c 128,-1,13
 75 606 75 606 75 639 c 128,-1,14
 75 672 75 672 97.5 698 c 128,-1,15
 120 724 120 724 154.5 724 c 128,-1,8
 189 724 189 724 209 701.5 c 128,-1,9
EndSplineSet
EndChar

StartChar: grave
Encoding: 96 96 25
Width: 342
Flags: HMW
HStem: 540 206<118.5 234.5>
VStem: 78 189<571 692>
LayerCount: 2
Fore
SplineSet
78 677 m 0,0,1
 78 703 78 703 94 724.5 c 128,-1,2
 110 746 110 746 133.5 746 c 0,3,4
 157 746 157 746 169 741.5 c 128,-1,5
 181 737 181 737 189.5 727 c 128,-1,6
 198 717 198 717 202.5 709.5 c 128,-1,7
 207 702 207 702 214 685.5 c 128,-1,8
 221 669 221 669 223.5 664.5 c 0,9,10
 226 660 226 660 246.5 629.5 c 128,-1,11
 267 599 267 599 267 582 c 0,12,13
 267 565 267 565 254 552.5 c 128,-1,14
 241 540 241 540 218 540 c 0,15,16
 182 540 182 540 130 584 c 128,-1,17
 78 628 78 628 78 677 c 0,0,1
EndSplineSet
EndChar

StartChar: cedilla
Encoding: 184 184 26
Width: 341
Flags: HMW
HStem: -250 104<123.5 143 123.5 187> -250 129<50.5 187> 0 20G<102 208 208 208>
VStem: 102 106<-4 20> 160 117<-134 -132.5 -177.5 -118.5>
LayerCount: 2
Fore
SplineSet
102 20 m 1,0,-1
 208 20 l 1,1,2
 211 -42 211 -42 237 -70 c 0,3,4
 277 -114 277 -114 277 -152.5 c 0,5,6
 277 -191 277 -191 240.5 -220.5 c 128,-1,7
 204 -250 204 -250 151.5 -250 c 0,8,9
 99 -250 99 -250 61.5 -220 c 128,-1,10
 24 -190 24 -190 24 -161 c 0,11,12
 24 -144 24 -144 34.5 -132.5 c 128,-1,13
 45 -121 45 -121 62.5 -121 c 0,14,15
 80 -121 80 -121 102 -133.5 c 128,-1,16
 124 -146 124 -146 137 -146 c 0,17,18
 160 -146 160 -146 160 -127 c 0,19,20
 160 -118 160 -118 141 -99 c 128,-1,21
 122 -80 122 -80 112 -61 c 0,22,23
 102 -42 102 -42 102 20 c 1,0,-1
EndSplineSet
EndChar

StartChar: plus
Encoding: 43 43 27
Width: 592
Flags: HMW
HStem: 126 21G<277 318> 314 123<105 142 105 155> 590 20G<277.5 317>
VStem: 232 131<183.5 223.5 518.5 555>
LayerCount: 2
Fore
SplineSet
235 435 m 1,0,-1
 232 532 l 1,1,2
 232 568 232 568 249.5 589 c 128,-1,3
 267 610 267 610 297 610 c 128,-1,4
 327 610 327 610 345 588.5 c 128,-1,5
 363 567 363 567 363 531 c 1,6,-1
 360 435 l 1,7,-1
 469 437 l 2,8,9
 500 437 500 437 520.5 419 c 128,-1,10
 541 401 541 401 541 374.5 c 128,-1,11
 541 348 541 348 520.5 330.5 c 128,-1,12
 500 313 500 313 476 313 c 128,-1,13
 452 313 452 313 360 315 c 1,14,-1
 363 206 l 2,15,16
 363 170 363 170 345.5 148 c 128,-1,17
 328 126 328 126 297.5 126 c 128,-1,18
 267 126 267 126 249.5 148.5 c 128,-1,19
 232 171 232 171 232 207 c 2,20,-1
 235 316 l 1,21,-1
 126 314 l 2,22,23
 94 314 94 314 73.5 331.5 c 128,-1,24
 53 349 53 349 53 375.5 c 128,-1,25
 53 402 53 402 74 419.5 c 128,-1,26
 95 437 95 437 119 437 c 128,-1,27
 143 437 143 437 235 435 c 1,0,-1
EndSplineSet
EndChar

StartChar: plusminus
Encoding: 177 177 28
Width: 642
Flags: HMW
HStem: 51 21G<472 519> 52 123 404 123<124 161 124 174> 670 20G<301.5 341>
VStem: 256 131<283.5 322 600 635>
LayerCount: 2
Fore
SplineSet
322 170 m 1,0,-1
 498 175 l 2,1,2
 529 175 529 175 549.5 157 c 128,-1,3
 570 139 570 139 570 113 c 128,-1,4
 570 87 570 87 549.5 69 c 128,-1,5
 529 51 529 51 498 51 c 2,6,-1
 322 56 l 1,7,-1
 145 52 l 2,8,9
 114 52 114 52 93 69.5 c 128,-1,10
 72 87 72 87 72 113 c 128,-1,11
 72 139 72 139 93 156.5 c 128,-1,12
 114 174 114 174 145 174 c 2,13,-1
 322 170 l 1,0,-1
259 525 m 1,14,-1
 256 612 l 1,15,16
 256 648 256 648 273.5 669 c 128,-1,17
 291 690 291 690 321 690 c 128,-1,18
 351 690 351 690 369 668.5 c 128,-1,19
 387 647 387 647 387 611 c 1,20,-1
 384 525 l 1,21,-1
 497 527 l 2,22,23
 528 527 528 527 548.5 509 c 128,-1,24
 569 491 569 491 569 464.5 c 128,-1,25
 569 438 569 438 548.5 420.5 c 128,-1,26
 528 403 528 403 502 403 c 128,-1,27
 476 403 476 403 384 405 c 1,28,-1
 387 306 l 1,29,30
 387 270 387 270 369.5 248 c 128,-1,31
 352 226 352 226 321.5 226 c 128,-1,32
 291 226 291 226 273.5 248.5 c 128,-1,33
 256 271 256 271 256 307 c 1,34,-1
 259 406 l 1,35,-1
 145 404 l 2,36,37
 113 404 113 404 92.5 421.5 c 128,-1,38
 72 439 72 439 72 465.5 c 128,-1,39
 72 492 72 492 93 509.5 c 128,-1,40
 114 527 114 527 140.5 527 c 128,-1,41
 167 527 167 527 259 525 c 1,14,-1
EndSplineSet
EndChar

StartChar: minus
Encoding: 8722 8722 29
Width: 702
Flags: HMW
HStem: 314 21G<516.5 567> 315 123 417 20G<132 204>
LayerCount: 2
Fore
SplineSet
350 433 m 1,0,-1
 546 438 l 2,1,2
 577 438 577 438 597.5 420 c 128,-1,3
 618 402 618 402 618 376 c 128,-1,4
 618 350 618 350 597.5 332 c 128,-1,5
 577 314 577 314 546 314 c 2,6,-1
 350 319 l 1,7,-1
 153 315 l 2,8,9
 122 315 122 315 101 332.5 c 128,-1,10
 80 350 80 350 80 376 c 128,-1,11
 80 402 80 402 101 419.5 c 128,-1,12
 122 437 122 437 153 437 c 2,13,-1
 350 433 l 1,0,-1
EndSplineSet
EndChar

StartChar: divide
Encoding: 247 247 30
Width: 630
Flags: HMW
HStem: 98 164<294 335> 315 123 486 164<293 334>
VStem: 238 154<163.5 197.5>
LayerCount: 2
Fore
SplineSet
316 433 m 1,0,-1
 492 438 l 2,1,2
 523 438 523 438 543.5 420 c 128,-1,3
 564 402 564 402 564 376 c 128,-1,4
 564 350 564 350 543.5 332 c 128,-1,5
 523 314 523 314 492 314 c 2,6,-1
 316 319 l 1,7,-1
 139 315 l 2,8,9
 108 315 108 315 87 332.5 c 128,-1,10
 66 350 66 350 66 376 c 128,-1,11
 66 402 66 402 87 419.5 c 128,-1,12
 108 437 108 437 139 437 c 2,13,-1
 316 433 l 1,0,-1
372 239.5 m 128,-1,15
 392 217 392 217 392 184 c 128,-1,16
 392 151 392 151 369 124.5 c 128,-1,17
 346 98 346 98 311.5 98 c 128,-1,18
 277 98 277 98 257.5 121 c 128,-1,19
 238 144 238 144 238 177 c 128,-1,20
 238 210 238 210 260.5 236 c 128,-1,21
 283 262 283 262 317.5 262 c 128,-1,14
 352 262 352 262 372 239.5 c 128,-1,15
371 627.5 m 128,-1,23
 391 605 391 605 391 572 c 128,-1,24
 391 539 391 539 368 512.5 c 128,-1,25
 345 486 345 486 310.5 486 c 128,-1,26
 276 486 276 486 256.5 509 c 128,-1,27
 237 532 237 532 237 565 c 128,-1,28
 237 598 237 598 259.5 624 c 128,-1,29
 282 650 282 650 316.5 650 c 128,-1,22
 351 650 351 650 371 627.5 c 128,-1,23
EndSplineSet
EndChar

StartChar: circumflex
Encoding: 710 710 31
Width: 480
Flags: HMW
HStem: 533 21G<333.5 378.5> 534 226<101.5 267>
LayerCount: 2
Fore
SplineSet
206.5 752.5 m 128,-1,1
 222 760 222 760 243.5 760 c 128,-1,2
 265 760 265 760 280 751 c 128,-1,3
 295 742 295 742 318.5 715 c 128,-1,4
 342 688 342 688 352.5 677.5 c 128,-1,5
 363 667 363 667 380.5 651 c 128,-1,6
 398 635 398 635 404 629 c 0,7,8
 421 612 421 612 421 590 c 128,-1,9
 421 568 421 568 403.5 550.5 c 128,-1,10
 386 533 386 533 361.5 533 c 128,-1,11
 337 533 337 533 311 557 c 128,-1,12
 285 581 285 581 266.5 605 c 128,-1,13
 248 629 248 629 240 629 c 128,-1,14
 232 629 232 629 213.5 605.5 c 0,15,16
 157.212765957 534 157.212765957 534 117 534 c 0,17,18
 94 534 94 534 76.5 551.5 c 128,-1,19
 59 569 59 569 59 586 c 128,-1,20
 59 603 59 603 64.5 613.5 c 128,-1,21
 70 624 70 624 76 630 c 128,-1,22
 82 636 82 636 99.5 652 c 128,-1,23
 117 668 117 668 128 679 c 128,-1,24
 139 690 139 690 156 708.5 c 128,-1,25
 173 727 173 727 182 736 c 128,-1,0
 191 745 191 745 206.5 752.5 c 128,-1,1
EndSplineSet
EndChar

StartChar: periodcentered
Encoding: 183 183 32
Width: 290
Flags: HMW
HStem: 298 164<124 165>
VStem: 68 154<363.5 397.5>
LayerCount: 2
Fore
SplineSet
202 439.5 m 128,-1,1
 222 417 222 417 222 384 c 128,-1,2
 222 351 222 351 199 324.5 c 128,-1,3
 176 298 176 298 141.5 298 c 128,-1,4
 107 298 107 298 87.5 321 c 128,-1,5
 68 344 68 344 68 377 c 128,-1,6
 68 410 68 410 90.5 436 c 128,-1,7
 113 462 113 462 147.5 462 c 128,-1,0
 182 462 182 462 202 439.5 c 128,-1,1
EndSplineSet
EndChar

StartChar: ring
Encoding: 730 730 33
Width: 224
Flags: HMW
HStem: 565 69<102.5 121.5 102.5 144.5> 694 72<102.5 121.5>
VStem: 5 75<656.5 671.5 656.5 693> 5 214<637 693>
LayerCount: 2
Fore
SplineSet
188.5 736.5 m 128,-1,1
 219 707 219 707 219 664.5 c 128,-1,2
 219 622 219 622 189.5 593.5 c 128,-1,3
 160 565 160 565 112 565 c 128,-1,4
 64 565 64 565 34.5 593.5 c 128,-1,5
 5 622 5 622 5 664.5 c 128,-1,6
 5 707 5 707 35.5 736.5 c 128,-1,7
 66 766 66 766 112 766 c 128,-1,0
 158 766 158 766 188.5 736.5 c 128,-1,1
143 664 m 128,-1,9
 143 676 143 676 134.5 685 c 128,-1,10
 126 694 126 694 112 694 c 128,-1,11
 98 694 98 694 89 685 c 128,-1,12
 80 676 80 676 80 664 c 128,-1,13
 80 652 80 652 89 643 c 128,-1,14
 98 634 98 634 112 634 c 128,-1,15
 126 634 126 634 134.5 643 c 128,-1,8
 143 652 143 652 143 664 c 128,-1,9
EndSplineSet
EndChar

StartChar: bracketleft
Encoding: 91 91 34
Width: 452
Flags: HMW
HStem: -87 130 -86 21G<324.5 362> 709 129<321.5 362 321.5 362> 819 20G<135.5 172.5>
VStem: 81 141
LayerCount: 2
Fore
SplineSet
228 39 m 1,0,-1
 338 43 l 1,1,2
 374 43 374 43 397.5 25.5 c 128,-1,3
 421 8 421 8 421 -21.5 c 128,-1,4
 421 -51 421 -51 398 -68.5 c 128,-1,5
 375 -86 375 -86 338 -86 c 1,6,-1
 250 -83 l 1,7,-1
 158 -87 l 1,8,9
 124 -87 124 -87 103 -66.5 c 128,-1,10
 82 -46 82 -46 82 -11 c 2,11,-1
 87 375 l 1,12,-1
 81 763 l 2,13,14
 81 800 81 800 102 819.5 c 128,-1,15
 123 839 123 839 158 839 c 1,16,-1
 250 835 l 1,17,-1
 338 838 l 1,18,19
 374 838 374 838 397.5 820 c 128,-1,20
 421 802 421 802 421 773.5 c 128,-1,21
 421 745 421 745 397.5 727 c 128,-1,22
 374 709 374 709 338 709 c 2,23,-1
 228 712 l 1,24,25
 222 546 222 546 222 379 c 128,-1,26
 222 212 222 212 228 39 c 1,0,-1
EndSplineSet
EndChar

StartChar: bar
Encoding: 124 124 35
Width: 296
Flags: HMW
HStem: -79 21G<125 170> 740 20G<125 171>
VStem: 80 135
LayerCount: 2
Fore
SplineSet
211 339 m 1,0,-1
 215 28 l 1,1,2
 215 -79 215 -79 147 -79 c 0,3,4
 81 -79 81 -79 81 28 c 1,5,-1
 85 339 l 1,6,-1
 80 650 l 1,7,8
 80 760 80 760 148 760 c 128,-1,9
 216 760 216 760 216 650 c 1,10,-1
 211 339 l 1,0,-1
EndSplineSet
EndChar

StartChar: brokenbar
Encoding: 166 166 36
Width: 306
Flags: HMW
HStem: -10 21G<130 173> 740 20G<130 173>
VStem: 87 128<141.5 262>
LayerCount: 2
Fore
SplineSet
215 595 m 1,0,-1
 220 512 l 1,1,2
 220 476 220 476 201.5 453 c 128,-1,3
 183 430 183 430 151.5 430 c 128,-1,4
 120 430 120 430 103 452.5 c 128,-1,5
 86 475 86 475 86 512 c 1,6,7
 90 595 l 1,8,-1
 87 678 l 1,9,10
 87 715 87 715 103.5 737.5 c 128,-1,11
 120 760 120 760 151.5 760 c 128,-1,12
 183 760 183 760 201 737.5 c 128,-1,13
 219 715 219 715 219 678 c 1,14,-1
 215 595 l 1,0,-1
215 155 m 1,15,-1
 220 72 l 1,16,17
 220 36 220 36 201.5 13 c 128,-1,18
 183 -10 183 -10 151.5 -10 c 128,-1,19
 120 -10 120 -10 103 12.5 c 128,-1,20
 86 35 86 35 86 72 c 1,21,-1
 90 155 l 1,22,-1
 87 238 l 1,23,24
 87 275 87 275 103.5 297.5 c 128,-1,25
 120 320 120 320 151.5 320 c 128,-1,26
 183 320 183 320 201 297.5 c 128,-1,27
 219 275 219 275 219 238 c 1,28,-1
 215 155 l 1,15,-1
EndSplineSet
EndChar

StartChar: parenleft
Encoding: 40 40 37
Width: 364
Flags: HMW
HStem: -84 21G<242 293> 815 20G<230.5 296.5>
VStem: 52 138<261.5 494.5 239 500>
LayerCount: 2
Fore
SplineSet
77 208.5 m 128,-1,1
 52 299 52 299 52 397 c 128,-1,2
 52 495 52 495 89 600.5 c 128,-1,3
 126 706 126 706 178.5 770.5 c 128,-1,4
 231 835 231 835 275 835 c 0,5,6
 305 835 305 835 322 814.5 c 128,-1,7
 339 794 339 794 339 768 c 128,-1,8
 339 742 339 742 315.5 706 c 128,-1,9
 292 670 292 670 264.5 634 c 128,-1,10
 237 598 237 598 213.5 524.5 c 128,-1,11
 190 451 190 451 190 364 c 128,-1,12
 190 277 190 277 211.5 204 c 128,-1,13
 233 131 233 131 259.5 90 c 128,-1,14
 286 49 286 49 307.5 14.5 c 128,-1,15
 329 -20 329 -20 329 -38.5 c 128,-1,16
 329 -57 329 -57 315 -70.5 c 128,-1,17
 301 -84 301 -84 275.5 -84 c 128,-1,18
 250 -84 250 -84 212 -45.5 c 128,-1,19
 174 -7 174 -7 138 55.5 c 128,-1,0
 102 118 102 118 77 208.5 c 128,-1,1
EndSplineSet
EndChar

StartChar: braceleft
Encoding: 123 123 38
Width: 405
Flags: HMW
HStem: -89 21G<250 311> 284 178<92 118> 815 20G<251 312>
VStem: 128 144<659.5 693.5 649 737.5> 142 130<519 693.5> 142 143<519 556> 142 217<519 789>
LayerCount: 2
Fore
SplineSet
246 374 m 1,0,1
 284 325 284 325 284 216 c 0,2,3
 284 182 284 182 277.5 138 c 128,-1,4
 271 94 271 94 271 78 c 128,-1,5
 271 62 271 62 284.5 51.5 c 128,-1,6
 298 41 298 41 314.5 37 c 128,-1,7
 331 33 331 33 344.5 17.5 c 128,-1,8
 358 2 358 2 358 -25.5 c 128,-1,9
 358 -53 358 -53 339.5 -71 c 128,-1,10
 321 -89 321 -89 290 -89 c 0,11,12
 224 -89 224 -89 175.5 -50.5 c 128,-1,13
 127 -12 127 -12 127 59 c 0,14,15
 127 87 127 87 134 138.5 c 128,-1,16
 141 190 141 190 141 227 c 128,-1,17
 141 264 141 264 134 286 c 1,18,19
 122 284 122 284 115 284 c 0,20,21
 76 284 76 284 47.5 307 c 128,-1,22
 19 330 19 330 19 373 c 128,-1,23
 19 416 19 416 47.5 439 c 128,-1,24
 76 462 76 462 116 462 c 0,25,26
 123 462 123 462 135 460 c 1,27,28
 142 482 142 482 142 519 c 128,-1,29
 142 556 142 556 135 607.5 c 128,-1,30
 128 659 128 659 128 687 c 0,31,32
 128 758 128 758 176.5 796.5 c 128,-1,33
 225 835 225 835 291 835 c 0,34,35
 322 835 322 835 340.5 817 c 128,-1,36
 359 799 359 799 359 771.5 c 128,-1,37
 359 744 359 744 345.5 728.5 c 128,-1,38
 332 713 332 713 315.5 709 c 0,39,40
 272 698.454545455 272 698.454545455 272 666 c 0,41,42
 272 652 272 652 278.5 608 c 128,-1,43
 285 564 285 564 285 530 c 0,44,45
 285 424 285 424 246 374 c 1,0,1
EndSplineSet
EndChar

StartChar: endash
Encoding: 8211 8211 39
Width: 620
Flags: HMW
HStem: 313 21G<452.5 498> 314 123 416 20G<123 187>
LayerCount: 2
Fore
SplineSet
311 432 m 1,0,-1
 477 437 l 2,1,2
 508 437 508 437 528.5 419 c 128,-1,3
 549 401 549 401 549 375 c 128,-1,4
 549 349 549 349 528.5 331 c 128,-1,5
 508 313 508 313 477 313 c 2,6,-1
 311 318 l 1,7,-1
 144 314 l 2,8,9
 113 314 113 314 92 331.5 c 128,-1,10
 71 349 71 349 71 375 c 128,-1,11
 71 401 71 401 92 418.5 c 128,-1,12
 113 436 113 436 144 436 c 2,13,-1
 311 432 l 1,0,-1
EndSplineSet
EndChar

StartChar: emdash
Encoding: 8212 8212 40
Width: 880
Flags: HMW
HStem: 313 21G<701.5 768> 314 123 416 20G<113 212>
LayerCount: 2
Fore
SplineSet
441 432 m 1,0,-1
 747 437 l 2,1,2
 778 437 778 437 798.5 419 c 128,-1,3
 819 401 819 401 819 375 c 128,-1,4
 819 349 819 349 798.5 331 c 128,-1,5
 778 313 778 313 747 313 c 2,6,-1
 441 318 l 1,7,-1
 134 314 l 2,8,9
 103 314 103 314 82 331.5 c 128,-1,10
 61 349 61 349 61 375 c 128,-1,11
 61 401 61 401 82 418.5 c 128,-1,12
 103 436 103 436 134 436 c 2,13,-1
 441 432 l 1,0,-1
EndSplineSet
EndChar

StartChar: less
Encoding: 60 60 41
Width: 624
Flags: HMW
HStem: 142 21G<496 536> 592 20G<496 536>
VStem: 76 165<365.5 387.5 365.5 416>
LayerCount: 2
Fore
SplineSet
256 389.5 m 128,-1,1
 241 381 241 381 241 376.5 c 128,-1,2
 241 372 241 372 256 363.5 c 128,-1,3
 271 355 271 355 296 344.5 c 128,-1,4
 321 334 321 334 350 323 c 128,-1,5
 379 312 379 312 410 301 c 128,-1,6
 441 290 441 290 465.5 282 c 128,-1,7
 490 274 490 274 508 267.5 c 128,-1,8
 526 261 526 261 527 261 c 0,9,10
 579 240 579 240 579 199 c 0,11,12
 579 174 579 174 562 158 c 128,-1,13
 545 142 545 142 524 142 c 128,-1,14
 503 142 503 142 479 149.5 c 128,-1,15
 455 157 455 157 432 166.5 c 128,-1,16
 409 176 409 176 361.5 197 c 128,-1,17
 314 218 314 218 285.5 229.5 c 128,-1,18
 257 241 257 241 227.5 252 c 128,-1,19
 198 263 198 263 183.5 269 c 128,-1,20
 169 275 169 275 148 284.5 c 128,-1,21
 127 294 127 294 117 302 c 128,-1,22
 107 310 107 310 96 321.5 c 0,23,24
 76 342.409090909 76 342.409090909 76 367.704545455 c 128,-1,25
 76 393 76 393 80 406.5 c 128,-1,26
 84 420 84 420 95.5 431.5 c 128,-1,27
 107 443 107 443 117 451 c 128,-1,28
 127 459 127 459 148 469 c 128,-1,29
 169 479 169 479 183.5 484.5 c 128,-1,30
 198 490 198 490 227.5 501.5 c 128,-1,31
 257 513 257 513 285.5 524.5 c 128,-1,32
 314 536 314 536 361.5 557 c 128,-1,33
 409 578 409 578 432 587.5 c 0,34,35
 491.315789474 612 491.315789474 612 518.157894737 612 c 128,-1,36
 545 612 545 612 562 596 c 128,-1,37
 579 580 579 580 579 555 c 0,38,39
 579 514 579 514 527 493 c 0,40,41
 526 493 526 493 508 486.5 c 128,-1,42
 490 480 490 480 465.5 472 c 128,-1,43
 441 464 441 464 410 453 c 128,-1,44
 379 442 379 442 350 430.5 c 128,-1,45
 321 419 321 419 296 408.5 c 128,-1,0
 271 398 271 398 256 389.5 c 128,-1,1
EndSplineSet
EndChar

StartChar: slash
Encoding: 47 47 42
Width: 452
Flags: HMW
HStem: -84 21G<110.5 157.5> 819 20G<294 340.5>
LayerCount: 2
Fore
SplineSet
108.5 183 m 128,-1,1
 135 277 135 277 157.5 372.5 c 128,-1,2
 180 468 180 468 240 742 c 1,3,4
 263 839 263 839 320 839 c 0,5,6
 351 839 351 839 370.5 818.5 c 128,-1,7
 390 798 390 798 390 771 c 128,-1,8
 390 744 390 744 380 705.5 c 128,-1,9
 370 667 370 667 343 571.5 c 0,10,11
 296.87979037 408.371110383 296.87979037 408.371110383 211 13 c 0,12,13
 205 -14 205 -14 198 -32 c 128,-1,14
 191 -50 191 -50 173.5 -67 c 128,-1,15
 156 -84 156 -84 128 -84 c 128,-1,16
 100 -84 100 -84 80.5 -63.5 c 128,-1,17
 61 -43 61 -43 61 -16 c 128,-1,18
 61 11 61 11 71.5 50 c 128,-1,0
 82 89 82 89 108.5 183 c 128,-1,1
EndSplineSet
EndChar

StartChar: hyphen
Encoding: 45 45 43
Width: 500
Flags: HMW
HStem: 313 21G<341.5 378> 314 123 416 20G<123 172>
LayerCount: 2
Fore
SplineSet
251 432 m 1,0,-1
 357 437 l 1,1,2
 388 437 388 437 408.5 419 c 128,-1,3
 429 401 429 401 429 375 c 128,-1,4
 429 349 429 349 408.5 331 c 128,-1,5
 388 313 388 313 357 313 c 1,6,-1
 251 318 l 1,7,-1
 144 314 l 1,8,9
 113 314 113 314 92 331.5 c 128,-1,10
 71 349 71 349 71 375 c 128,-1,11
 71 401 71 401 92 418.5 c 128,-1,12
 113 436 113 436 144 436 c 1,13,-1
 251 432 l 1,0,-1
EndSplineSet
EndChar

StartChar: underscore
Encoding: 95 95 44
Width: 626
Flags: HMW
HStem: -144 20G<293 313> -129 21G<471 520> -128 123 -10 21G<293 313> -6 21G<105 174.5>
LayerCount: 2
Fore
SplineSet
313 -10 m 1,0,-1
 499 -5 l 2,1,2
 530 -5 530 -5 550.5 -23 c 128,-1,3
 571 -41 571 -41 571 -67 c 128,-1,4
 571 -93 571 -93 550.5 -111 c 128,-1,5
 530 -129 530 -129 499 -129 c 2,6,-1
 313 -124 l 1,7,-1
 126 -128 l 2,8,9
 95 -128 95 -128 74 -110.5 c 128,-1,10
 53 -93 53 -93 53 -67 c 128,-1,11
 53 -41 53 -41 74 -23.5 c 128,-1,12
 95 -6 95 -6 126 -6 c 2,13,-1
 313 -10 l 1,0,-1
EndSplineSet
EndChar

StartChar: at
Encoding: 64 64 45
Width: 979
Flags: HMW
HStem: -55 116<378.5 475.5 378.5 503> -55 138<333 602> 122 122<688 723 688 758.5> 464 117<462 496.5> 643 122<405 565>
VStem: 54 136<248.5 426.5 248.5 452.5> 265 131<319 379 319 404.5> 540 119<329 329.5 297.5 442 297.5 442> 784 131<321.5 464>
LayerCount: 2
Fore
SplineSet
915 368 m 0,0,1
 915 263 915 263 852 192.5 c 128,-1,2
 789 122 789 122 702.5 122 c 128,-1,3
 616 122 616 122 573 177 c 1,4,5
 521 122 521 122 452 122 c 0,6,7
 404 122 404 122 366 143.5 c 128,-1,8
 328 165 328 165 307 199 c 0,9,10
 265 267 265 267 265 342 c 0,11,12
 265 439 265 439 327.5 510 c 128,-1,13
 390 581 390 581 486 581 c 0,14,15
 522 581 522 581 558 559 c 1,16,17
 577 581 577 581 612 581 c 0,18,19
 678 581 678 581 678 483 c 0,20,21
 678 471 678 471 668.5 412 c 128,-1,22
 659 353 659 353 659 315 c 0,23,24
 659 244 659 244 707 244 c 0,25,26
 737 244 737 244 760.5 274 c 128,-1,27
 784 304 784 304 784 370 c 0,28,29
 784 503 784 503 698.5 573 c 128,-1,30
 613 643 613 643 487.5 643 c 128,-1,31
 362 643 362 643 276 556.5 c 128,-1,32
 190 470 190 470 190 340 c 128,-1,33
 190 210 190 210 265 135.5 c 128,-1,34
 340 61 340 61 444 61 c 0,35,36
 477 61 477 61 519.5 72 c 128,-1,37
 562 83 562 83 586.5 83 c 128,-1,38
 611 83 611 83 627.5 69.5 c 128,-1,39
 644 56 644 56 644 34 c 0,40,41
 644 -4 644 -4 588 -29.5 c 128,-1,42
 532 -55 532 -55 441 -55 c 0,43,44
 277 -55 277 -55 165.5 54.5 c 128,-1,45
 54 164 54 164 54 339 c 128,-1,46
 54 514 54 514 178.5 639.5 c 128,-1,47
 303 765 303 765 488.5 765 c 128,-1,48
 674 765 674 765 794.5 658 c 128,-1,49
 915 551 915 551 915 368 c 0,0,1
540 329 m 1,50,-1
 540 442 l 1,51,52
 513 464 513 464 481 464 c 128,-1,53
 449 464 449 464 422.5 430 c 128,-1,54
 396 396 396 396 396 348.5 c 128,-1,55
 396 301 396 301 411 269.5 c 128,-1,56
 426 238 426 238 458 238 c 0,57,58
 500 238 500 238 540 329 c 1,50,-1
EndSplineSet
EndChar

StartChar: paragraph
Encoding: 182 182 46
Width: 732
Flags: HMW
HStem: -85 21G<531.5 579> -84 21G<286.5 333.5> 636 117<306 487 306 379> 730 20G<412.5 454>
VStem: 239 141<-16.5 55.5> 491 130<227.5 327.5>
LayerCount: 2
Fore
SplineSet
621 270 m 1,0,-1
 626 12 l 1,1,2
 624 -85 624 -85 555 -85 c 0,3,4
 521 -85 521 -85 503.5 -59 c 128,-1,5
 486 -33 486 -33 486 12 c 2,6,-1
 491 270 l 1,7,-1
 487 636 l 1,8,-1
 379 636 l 1,9,10
 374 399 374 399 374 270 c 1,11,-1
 380 12 l 1,12,13
 380 -32 380 -32 362 -58 c 128,-1,14
 344 -84 344 -84 310 -84 c 128,-1,15
 276 -84 276 -84 257.5 -58 c 128,-1,16
 239 -32 239 -32 239 12 c 2,17,-1
 245 300 l 1,18,19
 156 313 156 313 102 373 c 128,-1,20
 48 433 48 433 48 516 c 0,21,22
 48 626 48 626 117 688.5 c 128,-1,23
 186 751 186 751 306 753 c 1,24,-1
 438 750 l 1,25,-1
 547 753 l 2,26,27
 583 753 583 753 604 727 c 128,-1,28
 625 701 625 701 625 657 c 2,29,-1
 621 270 l 1,0,-1
EndSplineSet
EndChar

StartChar: daggerdbl
Encoding: 8225 8225 47
Width: 639
Flags: HMW
HStem: -84 21G<298 340.5> 202 120<107 145 107 153 490 532.5> 438 117<108 257> 741 20G<298.5 340.5>
VStem: 252 131
LayerCount: 2
Fore
SplineSet
383 320 m 1,0,-1
 511 322 l 2,1,2
 543 322 543 322 563 305.5 c 128,-1,3
 583 289 583 289 583 262 c 128,-1,4
 583 235 583 235 563 218.5 c 128,-1,5
 543 202 543 202 511 202 c 0,6,7
 429 202 429 202 383 205 c 1,8,9
 387 47 387 47 387 5 c 128,-1,10
 387 -37 387 -37 369 -60.5 c 128,-1,11
 351 -84 351 -84 319.5 -84 c 128,-1,12
 288 -84 288 -84 269.5 -61 c 128,-1,13
 251 -38 251 -38 251 1 c 0,14,15
 251 6 251 6 256 205 c 1,16,-1
 128 202 l 2,17,18
 96 202 96 202 75.5 218.5 c 128,-1,19
 55 235 55 235 55 262 c 128,-1,20
 55 289 55 289 75.5 305.5 c 128,-1,21
 96 322 96 322 128 322 c 2,22,-1
 257 320 l 1,23,-1
 257 438 l 1,24,-1
 129 436 l 2,25,26
 97 436 97 436 76.5 452 c 128,-1,27
 56 468 56 468 56 495 c 128,-1,28
 56 522 56 522 76.5 538.5 c 128,-1,29
 97 555 97 555 129 555 c 2,30,-1
 255 552 l 1,31,-1
 252 675 l 2,32,33
 252 714 252 714 270 737.5 c 128,-1,34
 288 761 288 761 319.5 761 c 128,-1,35
 351 761 351 761 369 737.5 c 128,-1,36
 387 714 387 714 387 675 c 2,37,-1
 384 552 l 1,38,-1
 512 555 l 2,39,40
 545 555 545 555 564.5 539 c 128,-1,41
 584 523 584 523 584 495.5 c 128,-1,42
 584 468 584 468 564.5 452 c 128,-1,43
 545 436 545 436 512 436 c 0,44,45
 450 436 450 436 383 438 c 1,46,-1
 383 320 l 1,0,-1
EndSplineSet
EndChar

StartChar: dagger
Encoding: 8224 8224 48
Width: 618
Flags: HMW
HStem: -84 21G<287 329.5> 438 117<97 246> 741 20G<287.5 329.5>
VStem: 246 126<320 438 241 438>
LayerCount: 2
Fore
SplineSet
372 320 m 1,0,-1
 376 2 l 2,1,2
 376 -37 376 -37 358 -60.5 c 128,-1,3
 340 -84 340 -84 308.5 -84 c 128,-1,4
 277 -84 277 -84 258.5 -61 c 128,-1,5
 240 -38 240 -38 240 1 c 0,6,7
 240 4 240 4 241.5 51.5 c 0,8,9
 246 194 246 194 246 320 c 2,10,-1
 246 438 l 1,11,-1
 118 436 l 2,12,13
 86 436 86 436 65.5 452 c 128,-1,14
 45 468 45 468 45 495 c 128,-1,15
 45 522 45 522 65.5 538.5 c 128,-1,16
 86 555 86 555 118 555 c 2,17,-1
 244 552 l 1,18,-1
 241 675 l 2,19,20
 241 714 241 714 259 737.5 c 128,-1,21
 277 761 277 761 308.5 761 c 128,-1,22
 340 761 340 761 358 737.5 c 128,-1,23
 376 714 376 714 376 675 c 2,24,-1
 373 552 l 1,25,-1
 501 555 l 2,26,27
 534 555 534 555 553.5 539 c 128,-1,28
 573 523 573 523 573 495.5 c 128,-1,29
 573 468 573 468 553.5 452 c 128,-1,30
 534 436 534 436 501 436 c 0,31,32
 439 436 439 436 372 438 c 1,33,-1
 372 320 l 1,0,-1
EndSplineSet
EndChar

StartChar: equal
Encoding: 61 61 49
Width: 664
Flags: HMW
HStem: 205 21G<482.5 530> 206 123 423 123 525 20G<135 202>
LayerCount: 2
Fore
SplineSet
333 541 m 1,0,-1
 509 546 l 2,1,2
 540 546 540 546 560.5 528 c 128,-1,3
 581 510 581 510 581 484 c 128,-1,4
 581 458 581 458 560.5 440 c 128,-1,5
 540 422 540 422 509 422 c 2,6,-1
 333 427 l 1,7,-1
 156 423 l 2,8,9
 125 423 125 423 104 440.5 c 128,-1,10
 83 458 83 458 83 484 c 128,-1,11
 83 510 83 510 104 527.5 c 128,-1,12
 125 545 125 545 156 545 c 2,13,-1
 333 541 l 1,0,-1
333 324 m 1,14,-1
 509 329 l 2,15,16
 540 329 540 329 560.5 311 c 128,-1,17
 581 293 581 293 581 267 c 128,-1,18
 581 241 581 241 560.5 223 c 128,-1,19
 540 205 540 205 509 205 c 2,20,-1
 333 210 l 1,21,-1
 156 206 l 2,22,23
 125 206 125 206 104 223.5 c 128,-1,24
 83 241 83 241 83 267 c 128,-1,25
 83 293 83 293 104 310.5 c 128,-1,26
 125 328 125 328 156 328 c 2,27,-1
 333 324 l 1,14,-1
EndSplineSet
EndChar

StartChar: logicalnot
Encoding: 172 172 50
Width: 707
Flags: HMW
HStem: 159 21G<537.5 577> 302 122<136.5 183.5 136.5 202.5>
VStem: 490 134<212 242>
LayerCount: 2
Fore
SplineSet
622 301 m 1,0,-1
 624 235 l 1,1,2
 624 201 624 201 605.5 180 c 128,-1,3
 587 159 587 159 557 159 c 128,-1,4
 527 159 527 159 508.5 180 c 128,-1,5
 490 201 490 201 490 235 c 2,6,-1
 492 305 l 1,7,-1
 342 306 l 1,8,-1
 159 302 l 2,9,10
 126 302 126 302 104.5 319.5 c 128,-1,11
 83 337 83 337 83 364 c 128,-1,12
 83 391 83 391 104 407.5 c 128,-1,13
 125 424 125 424 159 424 c 2,14,-1
 342 421 l 1,15,-1
 547 424 l 2,16,17
 574 424 574 424 599 408.5 c 128,-1,18
 624 393 624 393 624 355 c 1,19,-1
 622 301 l 1,0,-1
EndSplineSet
EndChar

StartChar: fraction
Encoding: 8260 8260 51
Width: 400
Flags: HMW
HStem: -10 21G<72 102> 740 20G<296.5 327>
LayerCount: 2
Fore
SplineSet
319.5 510 m 128,-1,1
 285 424 285 424 264 368.5 c 128,-1,2
 243 313 243 313 210 209.5 c 128,-1,3
 177 106 177 106 161.5 63 c 128,-1,4
 146 20 146 20 129 5 c 128,-1,5
 112 -10 112 -10 87 -10 c 128,-1,6
 62 -10 62 -10 41 7 c 128,-1,7
 20 24 20 24 20 56 c 0,8,9
 20 85.9565217391 20 85.9565217391 44 146.47826087 c 128,-1,10
 68 207 68 207 77.5 231.5 c 128,-1,11
 87 256 87 256 104.5 300.5 c 128,-1,12
 122 345 122 345 138.5 388.5 c 128,-1,13
 155 432 155 432 240 691 c 0,14,15
 253 730 253 730 269.5 745 c 128,-1,16
 286 760 286 760 312 760 c 128,-1,17
 338 760 338 760 359.5 744 c 128,-1,18
 381 728 381 728 381 701 c 128,-1,19
 381 674 381 674 367.5 635 c 128,-1,0
 354 596 354 596 319.5 510 c 128,-1,1
EndSplineSet
EndChar

StartChar: numbersign
Encoding: 35 35 52
Width: 866
Flags: HMW
HStem: -9 21G<229 264> -7 21G<491 526> 173 113 415 116 692 20G<342 385.5> 693 20G<604 647.5>
LayerCount: 2
Fore
SplineSet
349 286 m 1,0,-1
 491 287 l 1,1,2
 510 380 510 380 515 415 c 1,3,-1
 374 415 l 1,4,5
 368 380 368 380 359.5 339 c 128,-1,6
 351 298 351 298 349 286 c 1,0,-1
177 531 m 1,7,-1
 272 528 l 1,8,9
 276 544 276 544 281.5 579 c 128,-1,10
 287 614 287 614 293 641 c 0,11,12
 308 712 308 712 364 712 c 0,13,14
 394 712 394 712 409 691 c 128,-1,15
 424 670 424 670 424 647.5 c 128,-1,16
 424 625 424 625 414 585 c 128,-1,17
 404 545 404 545 400 525 c 1,18,-1
 534 525 l 1,19,20
 538 541 538 541 543.5 578 c 128,-1,21
 549 615 549 615 555 642 c 0,22,23
 570 713 570 713 626 713 c 0,24,25
 656 713 656 713 671 692 c 128,-1,26
 686 671 686 671 686 648.5 c 128,-1,27
 686 626 686 626 676 586 c 128,-1,28
 666 546 666 546 662 527 c 1,29,-1
 733 530 l 1,30,31
 772 530 772 530 792.5 513.5 c 128,-1,32
 813 497 813 497 813 469 c 0,33,34
 813 410 813 410 733 410 c 1,35,-1
 635 412 l 1,36,37
 631 391 631 391 622.5 351 c 128,-1,38
 614 311 614 311 611 290 c 1,39,-1
 689 292 l 1,40,41
 770 292 770 292 770 233 c 0,42,43
 770 205 770 205 749.5 188.5 c 128,-1,44
 729 172 729 172 689 172 c 1,45,-1
 591 175 l 1,46,47
 587 156 587 156 582 120.5 c 128,-1,48
 577 85 577 85 573 63 c 0,49,50
 560 -7 560 -7 505 -7 c 0,51,52
 482 -7 482 -7 464 10.5 c 128,-1,53
 446 28 446 28 446 60 c 0,54,55
 446 79.5 446 79.5 455 117.75 c 128,-1,56
 464 156 464 156 467 177 c 1,57,-1
 333 177 l 1,58,59
 329 158 329 158 322 120 c 128,-1,60
 315 82 315 82 309.5 54 c 0,61,62
 297.125 -9 297.125 -9 243 -9 c 0,63,64
 219 -9 219 -9 200.5 9 c 128,-1,65
 182 27 182 27 182 52.5 c 128,-1,66
 182 78 182 78 191.5 116 c 128,-1,67
 201 154 201 154 205 176 c 1,68,-1
 133 173 l 1,69,70
 94 173 94 173 73.5 189.5 c 128,-1,71
 53 206 53 206 53 234 c 0,72,73
 53 293 53 293 133 293 c 1,74,-1
 231 291 l 1,75,76
 235 312 235 312 243.5 352 c 128,-1,77
 252 392 252 392 255 413 c 1,78,-1
 177 411 l 1,79,80
 96 411 96 411 96 470 c 0,81,82
 96 498 96 498 116.5 514.5 c 128,-1,83
 137 531 137 531 177 531 c 1,7,-1
EndSplineSet
EndChar

StartChar: bullet
Encoding: 8226 8226 53
Width: 355
Flags: HMW
HStem: 243 21G<130.5 207> 515 20G<149 227>
VStem: 56 244<361.5 418>
LayerCount: 2
Fore
SplineSet
271.5 496.5 m 128,-1,1
 300 458 300 458 300 398.5 c 128,-1,2
 300 339 300 339 262.5 291 c 128,-1,3
 225 243 225 243 170 243 c 128,-1,4
 115 243 115 243 85.5 283 c 128,-1,5
 56 323 56 323 56 382 c 128,-1,6
 56 441 56 441 93.5 488 c 128,-1,7
 131 535 131 535 187 535 c 128,-1,0
 243 535 243 535 271.5 496.5 c 128,-1,1
EndSplineSet
EndChar

StartChar: dotaccent
Encoding: 729 729 54
Width: 264
Flags: HMW
HStem: 596 164<111 152>
VStem: 55 154<661.5 695.5>
LayerCount: 2
Fore
SplineSet
189 737.5 m 128,-1,1
 209 715 209 715 209 682 c 128,-1,2
 209 649 209 649 186 622.5 c 128,-1,3
 163 596 163 596 128.5 596 c 128,-1,4
 94 596 94 596 74.5 619 c 128,-1,5
 55 642 55 642 55 675 c 128,-1,6
 55 708 55 708 77.5 734 c 128,-1,7
 100 760 100 760 134.5 760 c 128,-1,0
 169 760 169 760 189 737.5 c 128,-1,1
EndSplineSet
EndChar

StartChar: asciicircum
Encoding: 94 94 55
Width: 591
Flags: HMW
HStem: 363 21G<92.5 141.5 452.5 501.5> 618 143<290.5 303.5>
LayerCount: 2
Fore
SplineSet
297 761 m 128,-1,1
 360 761 360 761 389 705.5 c 128,-1,2
 418 650 418 650 445.5 607 c 128,-1,3
 473 564 473 564 490 538.5 c 128,-1,4
 507 513 507 513 513 503 c 128,-1,5
 519 493 519 493 528 476.5 c 0,6,7
 543 449 543 449 543 424 c 128,-1,8
 543 399 543 399 526 381 c 128,-1,9
 509 363 509 363 487.5 363 c 128,-1,10
 466 363 466 363 452 371 c 128,-1,11
 438 379 438 379 426.5 396.5 c 128,-1,12
 415 414 415 414 406.5 432 c 0,13,14
 318.666666667 618 318.666666667 618 297 618 c 0,15,16
 284 618 284 618 238 533 c 0,17,18
 220.948051948 502.831168831 220.948051948 502.831168831 199.974025974 458.415584416 c 128,-1,19
 179 414 179 414 167.5 396.5 c 0,20,21
 145.485714286 363 145.485714286 363 115.242857143 363 c 128,-1,22
 85 363 85 363 68 381 c 128,-1,23
 51 399 51 399 51 417.5 c 128,-1,24
 51 436 51 436 54 448 c 128,-1,25
 57 460 57 460 66 476.5 c 128,-1,26
 75 493 75 493 81 503 c 128,-1,27
 87 513 87 513 104 538.5 c 0,28,29
 167.782608696 634.173913043 167.782608696 634.173913043 203 702 c 0,30,0
 234 761 234 761 297 761 c 128,-1,1
EndSplineSet
EndChar

StartChar: quotedblright
Encoding: 8221 8221 56
Width: 518
Flags: HMW
HStem: 466 21G<81 121.5 328 368.5> 740 20G<122 170 369 417>
VStem: 53 167<502 699.5> 66 154<660.5 695.5> 300 167<502 699.5> 313 154<660.5 695.5>
LayerCount: 2
Fore
SplineSet
323 598 m 1,0,-1
 313 674 l 1,1,2
 313 708 313 708 335.5 734 c 128,-1,3
 358 760 358 760 392.5 760 c 128,-1,4
 427 760 427 760 447 736 c 128,-1,5
 467 712 467 712 467 678 c 0,6,7
 467 610 467 610 424 538 c 128,-1,8
 381 466 381 466 345 466 c 0,9,10
 322 466 322 466 311 480 c 128,-1,11
 300 494 300 494 300 510 c 128,-1,12
 300 526 300 526 311.5 552 c 128,-1,13
 323 578 323 578 323 598 c 1,0,-1
76 598 m 1,14,-1
 66 674 l 1,15,16
 66 708 66 708 88.5 734 c 128,-1,17
 111 760 111 760 145.5 760 c 128,-1,18
 180 760 180 760 200 736 c 128,-1,19
 220 712 220 712 220 678 c 0,20,21
 220 610 220 610 177 538 c 128,-1,22
 134 466 134 466 98 466 c 0,23,24
 75 466 75 466 64 480 c 128,-1,25
 53 494 53 494 53 510 c 128,-1,26
 53 526 53 526 64.5 552 c 128,-1,27
 76 578 76 578 76 598 c 1,14,-1
EndSplineSet
EndChar

StartChar: semicolon
Encoding: 59 59 57
Width: 308
Flags: HMW
HStem: -135 21G<80 120.5> 330 174<127.5 171.5>
VStem: 52 167<-99 98.5> 68 164<399.5 435.5>
LayerCount: 2
Fore
SplineSet
210.5 480 m 128,-1,1
 232 456 232 456 232 421 c 128,-1,2
 232 386 232 386 207.5 358 c 128,-1,3
 183 330 183 330 146.5 330 c 128,-1,4
 110 330 110 330 89 354.5 c 128,-1,5
 68 379 68 379 68 414 c 128,-1,6
 68 449 68 449 92 476.5 c 128,-1,7
 116 504 116 504 152.5 504 c 128,-1,0
 189 504 189 504 210.5 480 c 128,-1,1
75 -3 m 1,8,-1
 65 73 l 1,9,10
 65 107 65 107 87.5 133 c 128,-1,11
 110 159 110 159 144.5 159 c 128,-1,12
 179 159 179 159 199 135 c 128,-1,13
 219 111 219 111 219 77 c 0,14,15
 219 9 219 9 176 -63 c 128,-1,16
 133 -135 133 -135 97 -135 c 0,17,18
 74 -135 74 -135 63 -121 c 128,-1,19
 52 -107 52 -107 52 -91.5 c 128,-1,20
 52 -76 52 -76 63.5 -49.5 c 128,-1,21
 75 -23 75 -23 75 -3 c 1,8,-1
EndSplineSet
EndChar

StartChar: quotesinglbase
Encoding: 8218 8218 58
Width: 280
Flags: HMW
HStem: -135 21G<97.5 138.5> 139 20G<118 166>
VStem: 62 154<59.5 97>
LayerCount: 2
Fore
SplineSet
72 -3 m 1,0,-1
 62 73 l 1,1,2
 62 110 62 110 84 134.5 c 128,-1,3
 106 159 106 159 141 159 c 128,-1,4
 176 159 176 159 196 134.5 c 128,-1,5
 216 110 216 110 216 76 c 0,6,7
 216 5 216 5 183 -65 c 128,-1,8
 150 -135 150 -135 114 -135 c 0,9,10
 91 -135 91 -135 80 -121 c 128,-1,11
 69 -107 69 -107 69 -89 c 2,12,-1
 72 -3 l 1,0,-1
EndSplineSet
EndChar

StartChar: quotedblbase
Encoding: 8222 8222 59
Width: 530
Flags: HMW
HStem: -135 21G<97.5 138.5 347.5 388.5> 139 20G<118 166 368 416>
VStem: 62 154<59.5 97> 312 154<59.5 97>
LayerCount: 2
Fore
SplineSet
72 -3 m 1,0,-1
 62 73 l 1,1,2
 62 110 62 110 84 134.5 c 128,-1,3
 106 159 106 159 141 159 c 128,-1,4
 176 159 176 159 196 134.5 c 128,-1,5
 216 110 216 110 216 76 c 0,6,7
 216 5 216 5 183 -65 c 128,-1,8
 150 -135 150 -135 114 -135 c 0,9,10
 91 -135 91 -135 80 -121 c 128,-1,11
 69 -107 69 -107 69 -89 c 2,12,-1
 72 -3 l 1,0,-1
322 -3 m 1,13,-1
 312 73 l 1,14,15
 312 110 312 110 334 134.5 c 128,-1,16
 356 159 356 159 391 159 c 128,-1,17
 426 159 426 159 446 134.5 c 128,-1,18
 466 110 466 110 466 76 c 0,19,20
 466 5 466 5 433 -65 c 128,-1,21
 400 -135 400 -135 364 -135 c 0,22,23
 341 -135 341 -135 330 -121 c 128,-1,24
 319 -107 319 -107 319 -89 c 2,25,-1
 322 -3 l 1,13,-1
EndSplineSet
EndChar

StartChar: macron
Encoding: 175 175 60
Width: 496
Flags: HMW
HStem: 609 21G<350 388> 610 123 712 20G<113 164.5>
LayerCount: 2
Fore
SplineSet
251 728 m 1,0,-1
 367 733 l 1,1,2
 398 733 398 733 418.5 715 c 128,-1,3
 439 697 439 697 439 671 c 128,-1,4
 439 645 439 645 418.5 627 c 128,-1,5
 398 609 398 609 367 609 c 1,6,-1
 251 614 l 1,7,-1
 134 610 l 1,8,9
 103 610 103 610 82 627.5 c 128,-1,10
 61 645 61 645 61 671 c 128,-1,11
 61 697 61 697 82 714.5 c 128,-1,12
 103 732 103 732 134 732 c 1,13,-1
 251 728 l 1,0,-1
EndSplineSet
EndChar

StartChar: asciitilde
Encoding: 126 126 61
Width: 622
Flags: HMW
HStem: 290 118 341 67 341 110 438 20G<178.5 262.5>
LayerCount: 2
Fore
SplineSet
570 399 m 0,0,1
 570 365 570 365 519 328.5 c 128,-1,2
 468 292 468 292 412 292 c 0,3,4
 376 292 376 292 319 316.5 c 128,-1,5
 262 341 262 341 243.5 341 c 0,6,7
 225 341 225 341 190 315.5 c 128,-1,8
 155 290 155 290 125 290 c 0,9,10
 95 290 95 290 76.5 306.5 c 128,-1,11
 58 323 58 323 58 350 c 0,12,13
 58 389 58 389 107.5 423.5 c 128,-1,14
 157 458 157 458 229 458 c 0,15,16
 266 458 266 458 322.5 433 c 128,-1,17
 379 408 379 408 405.5 408 c 0,18,19
 432 408 432 408 466 429.5 c 128,-1,20
 500 451 500 451 522 451 c 0,21,22
 544 451 544 451 557 436 c 128,-1,23
 570 421 570 421 570 399 c 0,0,1
EndSplineSet
EndChar

StartChar: approxequal
Encoding: 8776 8776 62
Width: 679
Flags: HMW
HStem: 189 118 240 67 240 110 410 118 461 67 461 110 558 20G<203.5 287.5>
LayerCount: 2
Fore
SplineSet
596 298 m 0,0,1
 596 264 596 264 545 227.5 c 128,-1,2
 494 191 494 191 438 191 c 0,3,4
 402 191 402 191 345 215.5 c 128,-1,5
 288 240 288 240 270 240 c 0,6,7
 252 240 252 240 218.5 214.5 c 128,-1,8
 185 189 185 189 154.5 189 c 0,9,10
 124 189 124 189 104 205.5 c 128,-1,11
 84 222 84 222 84 249 c 0,12,13
 84 288 84 288 133.5 322.5 c 128,-1,14
 183 357 183 357 255 357 c 0,15,16
 292 357 292 357 348.5 332 c 128,-1,17
 405 307 405 307 431.5 307 c 0,18,19
 458 307 458 307 492 328.5 c 128,-1,20
 526 350 526 350 548 350 c 0,21,22
 570 350 570 350 583 335 c 128,-1,23
 596 320 596 320 596 298 c 0,0,1
595 519 m 0,24,25
 595 485 595 485 544 448.5 c 128,-1,26
 493 412 493 412 437 412 c 0,27,28
 402 412 402 412 344 436.5 c 128,-1,29
 286 461 286 461 268 461 c 0,30,31
 250 461 250 461 215 435.5 c 128,-1,32
 180 410 180 410 150 410 c 0,33,34
 120 410 120 410 101.5 426.5 c 128,-1,35
 83 443 83 443 83 470 c 0,36,37
 83 509 83 509 132.5 543.5 c 128,-1,38
 182 578 182 578 254 578 c 0,39,40
 291 578 291 578 347.5 553 c 128,-1,41
 404 528 404 528 422 528 c 0,42,43
 458 528 458 528 491 549.5 c 128,-1,44
 524 571 524 571 546.5 571 c 0,45,46
 569 571 569 571 582 556 c 128,-1,47
 595 541 595 541 595 519 c 0,24,25
EndSplineSet
EndChar

StartChar: dollar
Encoding: 36 36 63
Width: 626
Flags: HMW
HStem: -94 21G<296 345.5> 782 20G<295 344.5>
VStem: 81 136<528.5 550 528.5 578> 254 125 429 141<182 209>
LayerCount: 2
Fore
SplineSet
429 197 m 0,0,1
 429 233 429 233 379 261 c 1,2,-1
 379 128 l 1,3,4
 400 138 400 138 414.5 157 c 128,-1,5
 429 176 429 176 429 197 c 0,0,1
254 594 m 1,6,7
 217 575 217 575 217 541.5 c 128,-1,8
 217 508 217 508 258 479 c 1,9,10
 255 576 255 576 254 594 c 1,6,7
258 120 m 1,11,-1
 260 330 l 1,12,13
 182.391959799 373.778894472 182.391959799 373.778894472 146.195979899 407.389447236 c 128,-1,14
 110 441 110 441 95.5 471.5 c 128,-1,15
 81 502 81 502 81 536 c 0,16,17
 81 599 81 599 128.5 648.5 c 128,-1,18
 176 698 176 698 251 715 c 1,19,20
 257 802 257 802 319.5 802 c 128,-1,21
 382 802 382 802 388 716 c 1,22,23
 450 703 450 703 491.5 673.5 c 128,-1,24
 533 644 533 644 533 612 c 128,-1,25
 533 580 533 580 517 564 c 128,-1,26
 501 548 501 548 481 548 c 128,-1,27
 461 548 461 548 445 554 c 128,-1,28
 429 560 429 560 410 570 c 128,-1,29
 391 580 391 580 385 582 c 1,30,31
 383 530 383 530 383 410 c 1,32,33
 522.59202454 333.556748466 522.59202454 333.556748466 555 265.5 c 0,34,35
 570 234 570 234 570 197 c 0,36,37
 570 127 570 127 520.5 73 c 128,-1,38
 471 19 471 19 389 -1 c 1,39,40
 383 -94 383 -94 320.5 -94 c 128,-1,41
 258 -94 258 -94 252 -7 c 1,42,43
 174 7 174 7 115.5 48 c 128,-1,44
 57 89 57 89 57 127 c 0,45,46
 57 154 57 154 74 171.5 c 128,-1,47
 91 189 91 189 116.5 189 c 128,-1,48
 142 189 142 189 183.5 158.5 c 128,-1,49
 225 128 225 128 258 120 c 1,11,-1
EndSplineSet
EndChar

StartChar: percent
Encoding: 37 37 64
Width: 937
Flags: HMW
HStem: -15 106<700.5 733 700.5 766.5> 252 108<700.5 734> 340 107<204.5 237 204.5 270> 516 115<424.5 439> 608 23 608 107<204.5 238> 739 20G<558 609>
VStem: 53 116<505.5 550 505.5 579> 271 116 548 116 767 118<148 192.5>
LayerCount: 2
Fore
SplineSet
664 681 m 0,0,1
 664 629 664 629 608 566 c 1,2,-1
 429 48 l 2,3,4
 407 -15 407 -15 356 -15 c 0,5,6
 331 -15 331 -15 314 3 c 128,-1,7
 297 21 297 21 297 45.5 c 128,-1,8
 297 70 297 70 323 138.5 c 128,-1,9
 349 207 349 207 391.5 318.5 c 128,-1,10
 434 430 434 430 462 519 c 1,11,12
 452 516 452 516 427.5 516 c 128,-1,13
 403 516 403 516 387 522 c 1,14,15
 385 445 385 445 339 392.5 c 128,-1,16
 293 340 293 340 219 340 c 128,-1,17
 145 340 145 340 99 392 c 128,-1,18
 53 444 53 444 53 525 c 128,-1,19
 53 606 53 606 100.5 660.5 c 128,-1,20
 148 715 148 715 221 715 c 0,21,22
 265 715 265 715 337 673 c 128,-1,23
 409 631 409 631 456 631 c 0,24,25
 474 631 474 631 495 638 c 1,26,27
 517.603636364 715.498181818 517.603636364 715.498181818 535.5 735.5 c 0,28,29
 556.526315789 759 556.526315789 759 588.263157895 759 c 128,-1,30
 620 759 620 759 642 737.5 c 128,-1,31
 664 716 664 716 664 681 c 0,0,1
839 308 m 128,-1,33
 885 256 885 256 885 175 c 128,-1,34
 885 94 885 94 837.5 39.5 c 128,-1,35
 790 -15 790 -15 715 -15 c 128,-1,36
 640 -15 640 -15 594 37.5 c 128,-1,37
 548 90 548 90 548 171 c 128,-1,38
 548 252 548 252 595.5 306 c 128,-1,39
 643 360 643 360 718 360 c 128,-1,32
 793 360 793 360 839 308 c 128,-1,33
271 527 m 128,-1,41
 271 562 271 562 258 585 c 128,-1,42
 245 608 245 608 221 608 c 128,-1,43
 197 608 197 608 183 585 c 128,-1,44
 169 562 169 562 169 527.5 c 128,-1,45
 169 493 169 493 183 470 c 128,-1,46
 197 447 197 447 220.5 447 c 128,-1,47
 244 447 244 447 257.5 469.5 c 128,-1,40
 271 492 271 492 271 527 c 128,-1,41
767 171 m 128,-1,49
 767 206 767 206 754 229 c 128,-1,50
 741 252 741 252 717 252 c 128,-1,51
 693 252 693 252 679 229 c 128,-1,52
 665 206 665 206 665 171.5 c 128,-1,53
 665 137 665 137 679 114 c 128,-1,54
 693 91 693 91 716.5 91 c 128,-1,55
 740 91 740 91 753.5 113.5 c 128,-1,48
 767 136 767 136 767 171 c 128,-1,49
EndSplineSet
EndChar

StartChar: ampersand
Encoding: 38 38 65
Width: 840
Flags: HMW
HStem: -15 127<299.5 393.5 299.5 429> 244 146<418 574.5> 375 144<300 327> 597 168<237 429> 638 127<286.5 328>
VStem: 54 140<211 281 211 285> 101 138<566.5 597.5 566.5 623.5> 373 22 487 136<199.5 222 157 229.5> 565 248<392 597> 675 138<426 488.5>
LayerCount: 2
Fore
SplineSet
477 392 m 1,0,-1
 544 390 l 1,1,2
 675 390 675 390 675 454 c 0,3,4
 675 477 675 477 658 494 c 128,-1,5
 641 511 641 511 620 519.5 c 128,-1,6
 599 528 599 528 582 543.5 c 128,-1,7
 565 559 565 559 565 583 c 128,-1,8
 565 607 565 607 582 624 c 128,-1,9
 599 641 599 641 633 641 c 0,10,11
 697 641 697 641 755 583.5 c 128,-1,12
 813 526 813 526 813 448 c 128,-1,13
 813 370 813 370 755.5 324 c 128,-1,14
 698 278 698 278 615 271 c 1,15,16
 623 239 623 239 623 212 c 0,17,18
 623 123 623 123 545.5 54 c 128,-1,19
 468 -15 468 -15 344 -15 c 128,-1,20
 220 -15 220 -15 137 59.5 c 128,-1,21
 54 134 54 134 54 246 c 0,22,23
 54 304 54 304 80 359.5 c 128,-1,24
 106 415 106 415 151 456 c 1,25,26
 101 515 101 515 101 584 c 128,-1,27
 101 653 101 653 155 709 c 128,-1,28
 209 765 209 765 307 765 c 0,29,30
 369 765 369 765 422.5 731.5 c 128,-1,31
 476 698 476 698 476 663.5 c 128,-1,32
 476 629 476 629 457.5 613 c 128,-1,33
 439 597 439 597 416 597 c 128,-1,34
 393 597 393 597 360.5 617.5 c 128,-1,35
 328 638 328 638 302 638 c 128,-1,36
 276 638 276 638 257.5 622 c 128,-1,37
 239 606 239 606 239 573.5 c 128,-1,38
 239 541 239 541 270 517 c 1,39,40
 290 519 290 519 306 519 c 0,41,42
 345 519 345 519 370 499.5 c 128,-1,43
 395 480 395 480 395 446.5 c 128,-1,44
 395 413 395 413 368 394 c 128,-1,45
 341 375 341 375 310.5 375 c 128,-1,46
 280 375 280 375 258 381 c 1,47,48
 194 336 194 336 194 254 c 0,49,50
 194 190 194 190 235.5 151 c 128,-1,51
 277 112 277 112 344.5 112 c 128,-1,52
 412 112 412 112 449.5 147 c 128,-1,53
 487 182 487 182 487 223 c 0,54,55
 487 242 487 242 481 263 c 1,56,57
 460 244 460 244 434.5 244 c 128,-1,58
 409 244 409 244 391 263 c 128,-1,59
 373 282 373 282 373 315 c 128,-1,60
 373 348 373 348 402 370 c 128,-1,61
 431 392 431 392 477 392 c 1,0,-1
EndSplineSet
EndChar

StartChar: asterisk
Encoding: 42 42 66
Width: 462
Flags: HMW
HStem: 410 21G<211 250.5> 470 234<116 137 114.5 137.5 325 346> 745 20G<211 250.5>
VStem: 68 230<510.5 716.5 631 716.5> 164 134<696 716.5> 164 230<457 543 510.5 716.5>
LayerCount: 2
Fore
SplineSet
394 646 m 0,0,1
 394 609 394 609 353 587 c 1,2,3
 394 565 394 565 394 528 c 0,4,5
 394 503 394 503 374.5 486.5 c 128,-1,6
 355 470 355 470 335.5 470 c 0,7,8
 316 470 316 470 298 477 c 1,9,10
 297 447 297 447 278.5 428.5 c 128,-1,11
 260 410 260 410 230.5 410 c 0,12,13
 201 410 201 410 182.5 428.5 c 128,-1,14
 164 447 164 447 164 477 c 1,15,16
 147 470 147 470 127 470 c 0,17,18
 107 470 107 470 87.5 486.5 c 128,-1,19
 68 503 68 503 68 528 c 0,20,21
 68 566 68 566 109 587 c 1,22,23
 68 608 68 608 68 646 c 0,24,25
 68 671 68 671 87 687.5 c 128,-1,26
 106 704 106 704 127 704 c 0,27,28
 148 704 148 704 164 696 c 1,29,30
 164 727 164 727 182.5 746 c 128,-1,31
 201 765 201 765 230.5 765 c 0,32,33
 260 765 260 765 279 746 c 128,-1,34
 298 727 298 727 298 696 c 1,35,36
 314 704 314 704 335 704 c 0,37,38
 356 704 356 704 375 687.5 c 128,-1,39
 394 671 394 671 394 646 c 0,0,1
EndSplineSet
EndChar

StartChar: section
Encoding: 167 167 67
Width: 590
Flags: HMW
HStem: -85 127<236.5 300.5 236.5 345.5> -85 185<101 345.5> 603 162<250 455> 639 126<288 339.5>
VStem: 70 136<362.5 382.5 362.5 398> 102 141<590.5 616.5 590.5 649> 361 140<82.5 114.5> 397 137<316.5 344.5>
LayerCount: 2
Fore
SplineSet
459 197 m 1,0,1
 501 155 501 155 501 100 c 0,2,3
 501 25 501 25 438.5 -30 c 128,-1,4
 376 -85 376 -85 276 -85 c 0,5,6
 201 -85 201 -85 130 -42 c 128,-1,7
 59 1 59 1 59 43 c 0,8,9
 59 69 59 69 75.5 84.5 c 128,-1,10
 92 100 92 100 118 100 c 128,-1,11
 144 100 144 100 188.5 71 c 128,-1,12
 233 42 233 42 273 42 c 128,-1,13
 313 42 313 42 337 58 c 128,-1,14
 361 74 361 74 361 97 c 128,-1,15
 361 120 361 120 333 139 c 128,-1,16
 305 158 305 158 258.5 181.5 c 128,-1,17
 212 205 212 205 186.5 220 c 128,-1,18
 161 235 161 235 130.5 258.5 c 0,19,20
 70 305.114754098 70 305.114754098 70 370 c 0,21,22
 70 411 70 411 95 444.5 c 128,-1,23
 120 478 120 478 164 498 c 1,24,25
 102 550 102 550 102 611 c 128,-1,26
 102 672 102 672 161.5 718.5 c 128,-1,27
 221 765 221 765 302.5 765 c 128,-1,28
 384 765 384 765 441 733 c 128,-1,29
 498 701 498 701 498 658 c 0,30,31
 498 635 498 635 481 619 c 128,-1,32
 464 603 464 603 440 603 c 128,-1,33
 416 603 416 603 378.5 621 c 128,-1,34
 341 639 341 639 310 639 c 0,35,36
 243 639 243 639 243 607 c 0,37,38
 243 592 243 592 261.5 574.5 c 128,-1,39
 280 557 280 557 298 546.5 c 128,-1,40
 316 536 316 536 356.5 514.5 c 128,-1,41
 397 493 397 493 419.5 479.5 c 128,-1,42
 442 466 442 466 473.5 441.5 c 0,43,44
 534 394.444444444 534 394.444444444 534 323.222222222 c 128,-1,45
 534 252 534 252 459 197 c 1,0,1
397 329 m 0,46,47
 397 352 397 352 356 377.5 c 128,-1,48
 315 403 315 403 281.5 403 c 128,-1,49
 248 403 248 403 227 394.5 c 128,-1,50
 206 386 206 386 206 372 c 128,-1,51
 206 358 206 358 235.5 337 c 128,-1,52
 265 316 265 316 343 273 c 1,53,54
 397 289 397 289 397 329 c 0,46,47
EndSplineSet
EndChar

StartChar: ae
Encoding: 230 230 68
Width: 1161
Flags: HMW
HStem: -14 122<786 878.5 786 900> -14 185<773 1034> 297 120<771.5 837 771.5 867> 353 128<285 351.5> 561 204<134 402> 639 126<297.5 380 793.5 882.5>
VStem: 44 142<207.5 273 207.5 313> 955 142<498.5 560>
LayerCount: 2
Fore
SplineSet
1097 536 m 0,0,1
 1097 455 1097 455 1051.5 399 c 0,2,3
 968.625 297 968.625 297 789 297 c 0,4,5
 719 297 719 297 650 305 c 1,6,7
 666 225 666 225 716.5 166.5 c 128,-1,8
 767 108 767 108 819 108 c 128,-1,9
 871 108 871 108 908.5 124 c 128,-1,10
 946 140 946 140 972 155.5 c 128,-1,11
 998 171 998 171 1020 171 c 128,-1,12
 1042 171 1042 171 1058 156 c 128,-1,13
 1074 141 1074 141 1074 118 c 0,14,15
 1074 79 1074 79 1000 32.5 c 128,-1,16
 926 -14 926 -14 832 -14 c 0,17,18
 667 -14 667 -14 574 116 c 1,19,20
 483 -14 483 -14 314 -14 c 0,21,22
 200 -14 200 -14 122 60 c 128,-1,23
 44 134 44 134 44 250 c 0,24,25
 44 346 44 346 122.5 413.5 c 128,-1,26
 201 481 201 481 319 481 c 0,27,28
 407 481 407 481 499 458 c 1,29,30
 493 555 493 555 449.5 597 c 128,-1,31
 406 639 406 639 343 639 c 0,32,33
 304 639 304 639 269.5 619.5 c 128,-1,34
 235 600 235 600 206 580.5 c 128,-1,35
 177 561 177 561 150 561 c 128,-1,36
 123 561 123 561 104 577 c 128,-1,37
 85 593 85 593 85 624 c 0,38,39
 85 671 85 671 162 718 c 128,-1,40
 239 765 239 765 350 765 c 0,41,42
 426 765 426 765 489.5 733.5 c 128,-1,43
 553 702 553 702 593 647 c 1,44,45
 689 765 689 765 844 765 c 0,46,47
 951 765 951 765 1024 699.5 c 128,-1,48
 1097 634 1097 634 1097 536 c 0,0,1
186 247 m 0,49,50
 186 190 186 190 225.5 152 c 128,-1,51
 265 114 265 114 317 114 c 0,52,53
 386 114 386 114 439.5 171 c 128,-1,54
 493 228 493 228 497 330 c 1,55,56
 418 353 418 353 341.5 353 c 128,-1,57
 265 353 265 353 225.5 321 c 128,-1,58
 186 289 186 289 186 247 c 0,49,50
651 431 m 1,59,60
 724 417 724 417 793 417 c 128,-1,61
 862 417 862 417 908.5 449 c 128,-1,62
 955 481 955 481 955 539 c 0,63,64
 955 576 955 576 926 607.5 c 128,-1,65
 897 639 897 639 844 639 c 0,66,67
 773 639 773 639 722.5 577.5 c 128,-1,68
 672 516 672 516 651 431 c 1,59,60
EndSplineSet
EndChar

StartChar: guilsinglleft
Encoding: 8249 8249 69
Width: 353
Flags: HMW
HStem: 184 21G<210.5 243.5> 547 20G<210.5 243.5>
VStem: 50 236<226.5 402.5>
LayerCount: 2
Fore
SplineSet
233 434 m 0,0,1
 181 389 181 389 181 375.5 c 128,-1,2
 181 362 181 362 233 317 c 0,3,4
 252 301 252 301 260.5 292.5 c 0,5,6
 286 267 286 267 286 243 c 128,-1,7
 286 219 286 219 268.5 201.5 c 128,-1,8
 251 184 251 184 233 184 c 128,-1,9
 215 184 215 184 203.5 190.5 c 128,-1,10
 192 197 192 197 185 204 c 128,-1,11
 178 211 178 211 161 230.5 c 128,-1,12
 144 250 144 250 132 262 c 128,-1,13
 120 274 120 274 101.5 291 c 128,-1,14
 83 308 83 308 74 317 c 128,-1,15
 65 326 65 326 57.5 341.5 c 128,-1,16
 50 357 50 357 50 376 c 128,-1,17
 50 395 50 395 57.5 410.5 c 128,-1,18
 65 426 65 426 74 434.5 c 128,-1,19
 83 443 83 443 101.5 460 c 128,-1,20
 120 477 120 477 132 489 c 128,-1,21
 144 501 144 501 161 520.5 c 128,-1,22
 178 540 178 540 185 547 c 0,23,24
 205 567 205 567 228 567 c 128,-1,25
 251 567 251 567 268.5 549.5 c 128,-1,26
 286 532 286 532 286 513.5 c 128,-1,27
 286 495 286 495 277.5 481 c 128,-1,28
 269 467 269 467 260.5 458.5 c 128,-1,29
 252 450 252 450 233 434 c 0,0,1
EndSplineSet
EndChar

StartChar: perthousand
Encoding: 8240 8240 70
Width: 1336
Flags: HMW
HStem: -15 106<700.5 733 700.5 766.5 1098.5 1131> 252 108<700.5 734 1098.5 1132> 340 107<204.5 237 204.5 270> 516 115<424.5 439> 608 23 608 107<204.5 238> 739 20G<558 609>
VStem: 53 116<505.5 550 505.5 579> 271 116 548 116 767 118<148 192.5> 946 117<149.5 194 149.5 224.5> 1165 118<148 192.5>
LayerCount: 2
Fore
SplineSet
664 681 m 0,0,1
 664 629 664 629 608 566 c 1,2,-1
 429 48 l 2,3,4
 407 -15 407 -15 356 -15 c 0,5,6
 331 -15 331 -15 314 3 c 128,-1,7
 297 21 297 21 297 45.5 c 128,-1,8
 297 70 297 70 323 138.5 c 128,-1,9
 349 207 349 207 391.5 318.5 c 128,-1,10
 434 430 434 430 462 519 c 1,11,12
 452 516 452 516 427.5 516 c 128,-1,13
 403 516 403 516 387 522 c 1,14,15
 385 445 385 445 339 392.5 c 128,-1,16
 293 340 293 340 219 340 c 128,-1,17
 145 340 145 340 99 392 c 128,-1,18
 53 444 53 444 53 525 c 128,-1,19
 53 606 53 606 100.5 660.5 c 128,-1,20
 148 715 148 715 221 715 c 0,21,22
 265 715 265 715 337 673 c 128,-1,23
 409 631 409 631 456 631 c 0,24,25
 474 631 474 631 495 638 c 1,26,27
 517.603636364 715.498181818 517.603636364 715.498181818 535.5 735.5 c 0,28,29
 556.526315789 759 556.526315789 759 588.263157895 759 c 128,-1,30
 620 759 620 759 642 737.5 c 128,-1,31
 664 716 664 716 664 681 c 0,0,1
839 308 m 128,-1,33
 885 256 885 256 885 175 c 128,-1,34
 885 94 885 94 837.5 39.5 c 128,-1,35
 790 -15 790 -15 715 -15 c 128,-1,36
 640 -15 640 -15 594 37.5 c 128,-1,37
 548 90 548 90 548 171 c 128,-1,38
 548 252 548 252 595.5 306 c 128,-1,39
 643 360 643 360 718 360 c 128,-1,32
 793 360 793 360 839 308 c 128,-1,33
271 527 m 128,-1,41
 271 562 271 562 258 585 c 128,-1,42
 245 608 245 608 221 608 c 128,-1,43
 197 608 197 608 183 585 c 128,-1,44
 169 562 169 562 169 527.5 c 128,-1,45
 169 493 169 493 183 470 c 128,-1,46
 197 447 197 447 220.5 447 c 128,-1,47
 244 447 244 447 257.5 469.5 c 128,-1,40
 271 492 271 492 271 527 c 128,-1,41
767 171 m 128,-1,49
 767 206 767 206 754 229 c 128,-1,50
 741 252 741 252 717 252 c 128,-1,51
 693 252 693 252 679 229 c 128,-1,52
 665 206 665 206 665 171.5 c 128,-1,53
 665 137 665 137 679 114 c 128,-1,54
 693 91 693 91 716.5 91 c 128,-1,55
 740 91 740 91 753.5 113.5 c 128,-1,48
 767 136 767 136 767 171 c 128,-1,49
1237 308 m 128,-1,57
 1283 256 1283 256 1283 175 c 128,-1,58
 1283 94 1283 94 1235.5 39.5 c 128,-1,59
 1188 -15 1188 -15 1113 -15 c 128,-1,60
 1038 -15 1038 -15 992 37.5 c 128,-1,61
 946 90 946 90 946 171 c 128,-1,62
 946 252 946 252 993.5 306 c 128,-1,63
 1041 360 1041 360 1116 360 c 128,-1,56
 1191 360 1191 360 1237 308 c 128,-1,57
1165 171 m 128,-1,65
 1165 206 1165 206 1152 229 c 128,-1,66
 1139 252 1139 252 1115 252 c 128,-1,67
 1091 252 1091 252 1077 229 c 128,-1,68
 1063 206 1063 206 1063 171.5 c 128,-1,69
 1063 137 1063 137 1077 114 c 128,-1,70
 1091 91 1091 91 1114.5 91 c 128,-1,71
 1138 91 1138 91 1151.5 113.5 c 128,-1,64
 1165 136 1165 136 1165 171 c 128,-1,65
EndSplineSet
EndChar

StartChar: three
Encoding: 51 51 72
Width: 627
Flags: HMW
HStem: -14 126<253 338.5 253 389.5> -14 215<97.5 389.5> 622 132 730 20G<288 346.5> 736 20G<138 188>
VStem: 428 142<206 280>
LayerCount: 2
Fore
SplineSet
319 750 m 1,0,-1
 454 754 l 1,1,2
 542 754 542 754 542 680 c 0,3,4
 542 646.789473684 542 646.789473684 444.5 538 c 0,5,6
 397 485 397 485 392 479 c 1,7,8
 475 448 475 448 522.5 385 c 128,-1,9
 570 322 570 322 570 245 c 0,10,11
 570 142 570 142 498 64 c 128,-1,12
 426 -14 426 -14 302 -14 c 0,13,14
 206 -14 206 -14 134 38.5 c 128,-1,15
 62 91 62 91 62 143 c 0,16,17
 62 166 62 166 76 183.5 c 128,-1,18
 90 201 90 201 112.5 201 c 128,-1,19
 135 201 135 201 155.5 187 c 128,-1,20
 176 173 176 173 193 156.5 c 128,-1,21
 210 140 210 140 239.5 126 c 128,-1,22
 269 112 269 112 301 112 c 0,23,24
 357 112 357 112 392.5 149.5 c 128,-1,25
 428 187 428 187 428 241 c 128,-1,26
 428 295 428 295 394 330 c 128,-1,27
 360 365 360 365 312 373 c 1,28,29
 281 343 281 343 258 332 c 128,-1,30
 235 321 235 321 202.5 321 c 128,-1,31
 170 321 170 321 150 341 c 128,-1,32
 130 361 130 361 130 392 c 128,-1,33
 130 423 130 423 158 451.5 c 128,-1,34
 186 480 186 480 242 495 c 1,35,36
 306 566 306 566 355 628 c 1,37,38
 345 629 345 629 324 629 c 2,39,-1
 163 622 l 1,40,41
 126 622 126 622 103.5 640 c 128,-1,42
 81 658 81 658 81 688.5 c 128,-1,43
 81 719 81 719 103.5 737.5 c 128,-1,44
 126 756 126 756 163 756 c 1,45,-1
 319 750 l 1,0,-1
EndSplineSet
EndChar

StartChar: AE
Encoding: 198 198 73
Width: 867
Flags: HMW
HStem: -10 138 -6 21G<743 793> -5 21G<462.5 516.5> 0 21G<587.5 639.5> 223 113 336 133<629.5 679.5> 628 128<531 729> 730 20G<499 562.5> 735 20G<313 371>
LayerCount: 2
Fore
SplineSet
365 338 m 1,0,-1
 329 554 l 1,1,2
 322 554 322 554 278.5 392 c 2,3,-1
 264 338 l 1,4,5
 294 336 294 336 320 336 c 128,-1,6
 346 336 346 336 365 338 c 1,0,-1
611 122 m 1,7,-1
 768 128 l 1,8,9
 806 128 806 128 828.5 110.5 c 128,-1,10
 851 93 851 93 851 62 c 128,-1,11
 851 31 851 31 828.5 12.5 c 128,-1,12
 806 -6 806 -6 768 -6 c 1,13,-1
 611 0 l 1,14,-1
 488 -5 l 1,15,16
 412 -5 412 -5 400 59 c 0,17,18
 379 180 379 180 372 225 c 1,19,-1
 300 225 l 1,20,21
 232 223 232 223 228 223 c 1,22,23
 216 192 216 192 198.5 130.5 c 128,-1,24
 181 69 181 69 172 43 c 0,25,26
 154 -10 154 -10 106 -10 c 0,27,28
 78 -10 78 -10 61 7 c 128,-1,29
 44 24 44 24 44 54.5 c 128,-1,30
 44 85 44 85 96 220 c 1,31,32
 44 232 44 232 44 280 c 0,33,34
 44 345 44 345 137 345 c 1,35,36
 151 388 151 388 191 500 c 128,-1,37
 231 612 231 612 245 655 c 0,38,39
 278 755 278 755 337 755 c 1,40,-1
 537 750 l 1,41,-1
 704 756 l 1,42,43
 742 756 742 756 764.5 737.5 c 128,-1,44
 787 719 787 719 787 688 c 128,-1,45
 787 657 787 657 764.5 639.5 c 128,-1,46
 742 622 742 622 704 622 c 1,47,-1
 547 628 l 1,48,49
 493 628 493 628 439 624 c 1,50,51
 452 565 452 565 469 463 c 1,52,-1
 656 469 l 1,53,54
 692 469 692 469 715 450.5 c 128,-1,55
 738 432 738 432 738 401.5 c 128,-1,56
 738 371 738 371 715 353.5 c 128,-1,57
 692 336 692 336 661 336 c 128,-1,58
 630 336 630 336 575.5 338.5 c 128,-1,59
 521 341 521 341 492 341 c 1,60,61
 526 151 526 151 533 123 c 1,62,63
 560 122 560 122 611 122 c 1,7,-1
EndSplineSet
EndChar

StartChar: trademark
Encoding: 8482 8482 74
Width: 998
Flags: HMW
HStem: 330 21G<539 578 822 861> 331 21G<240.5 281.5> 640 113<119.5 144 118 146.5 376 402.5> 730 20G<199 299> 735 20G<544.5 572>
VStem: 72 245<507.5 714> 205 112<507.5 572> 205 245<507.5 714> 499 113 788 112<522.5 524>
LayerCount: 2
Fore
SplineSet
900 541 m 1,0,-1
 902 403 l 2,1,2
 902 370 902 370 886 350 c 128,-1,3
 870 330 870 330 842 330 c 128,-1,4
 814 330 814 330 800 350 c 128,-1,5
 786 370 786 370 786 404 c 0,6,7
 786 411 786 411 787 445.5 c 128,-1,8
 788 480 788 480 788 524 c 1,9,10
 753 441 753 441 736 415 c 128,-1,11
 719 389 719 389 699.5 389 c 128,-1,12
 680 389 680 389 664 414 c 128,-1,13
 648 439 648 439 612 524 c 1,14,-1
 614 404 l 2,15,16
 614 370 614 370 600 350 c 128,-1,17
 586 330 586 330 558 330 c 128,-1,18
 530 330 530 330 514 350 c 128,-1,19
 498 370 498 370 498 403 c 2,20,-1
 500 541 l 1,21,-1
 499 679 l 2,22,23
 499 712 499 712 517.5 733.5 c 128,-1,24
 536 755 536 755 561 755 c 0,25,26
 598 755 598 755 623 706 c 1,27,28
 693.833333333 536 693.833333333 536 699 536 c 0,29,30
 703 536 703 536 733 606 c 128,-1,31
 763 676 763 676 777 706 c 0,32,33
 799 753 799 753 841 753 c 0,34,35
 866 753 866 753 883.5 733 c 128,-1,36
 901 713 901 713 901 679 c 2,37,-1
 900 541 l 1,0,-1
317 544 m 1,38,-1
 319 415 l 1,39,40
 319 331 319 331 261 331 c 128,-1,41
 203 331 203 331 203 415 c 1,42,-1
 205 544 l 1,43,44
 205 627 205 627 204 643 c 1,45,-1
 141 640 l 1,46,47
 109 640 109 640 90.5 655 c 128,-1,48
 72 670 72 670 72 697 c 0,49,50
 72 753 72 753 141 753 c 1,51,52
 189 750 189 750 235 750 c 128,-1,53
 281 750 281 750 310 750.5 c 128,-1,54
 339 751 339 751 351 751.5 c 128,-1,55
 363 752 363 752 371 752.5 c 128,-1,56
 379 753 379 753 381 753 c 0,57,58
 413 753 413 753 431.5 738 c 128,-1,59
 450 723 450 723 450 697 c 0,60,61
 450 640 450 640 381 640 c 1,62,-1
 318 643 l 1,63,64
 317 627 317 627 317 544 c 1,38,-1
EndSplineSet
EndChar

StartChar: multiply
Encoding: 215 215 75
Width: 584
Flags: HMW
HStem: 172 21G<119.5 154 431 465.5> 563 20G<118.5 153 430 464.5>
LayerCount: 2
Fore
SplineSet
486 284 m 1,0,1
 509 264 509 264 509 237 c 128,-1,2
 509 210 509 210 491.5 191 c 128,-1,3
 474 172 474 172 448 172 c 128,-1,4
 422 172 422 172 380 211 c 0,5,6
 371 219 371 219 346.5 243 c 128,-1,7
 322 267 322 267 293 292 c 1,8,9
 263 267 263 267 237.5 242 c 128,-1,10
 212 217 212 217 205 211 c 0,11,12
 163 172 163 172 137 172 c 128,-1,13
 111 172 111 172 93.5 191 c 128,-1,14
 76 210 76 210 76 237 c 128,-1,15
 76 264 76 264 99 284 c 1,16,17
 115 300 115 300 152 329.5 c 128,-1,18
 189 359 189 359 207 377 c 1,19,20
 188 396 188 396 151 426 c 128,-1,21
 114 456 114 456 94.5 473.5 c 128,-1,22
 75 491 75 491 75 518 c 128,-1,23
 75 545 75 545 92.5 564 c 128,-1,24
 110 583 110 583 136 583 c 128,-1,25
 162 583 162 583 204 544 c 0,26,27
 211 538 211 538 236.5 513 c 128,-1,28
 262 488 262 488 292 463 c 1,29,30
 321 488 321 488 345.5 512 c 128,-1,31
 370 536 370 536 379 544 c 0,32,33
 421 583 421 583 447 583 c 128,-1,34
 473 583 473 583 490.5 564 c 128,-1,35
 508 545 508 545 508 518 c 128,-1,36
 508 491 508 491 488.5 473.5 c 128,-1,37
 469 456 469 456 432 426 c 128,-1,38
 395 396 395 396 376 377 c 1,39,40
 394 360 394 360 431.5 330.5 c 128,-1,41
 469 301 469 301 486 284 c 1,0,1
EndSplineSet
EndChar

StartChar: degree
Encoding: 176 176 76
Width: 407
Flags: HMW
HStem: 464 101<191.5 216 191.5 249> 662 101<191.5 216>
VStem: 54 109<599.5 626 599.5 654> 244 109<599.5 626>
LayerCount: 2
Fore
SplineSet
311.5 719.5 m 128,-1,1
 353 676 353 676 353 613.5 c 128,-1,2
 353 551 353 551 311.5 507.5 c 128,-1,3
 270 464 270 464 203.5 464 c 128,-1,4
 137 464 137 464 95.5 507 c 128,-1,5
 54 550 54 550 54 613 c 128,-1,6
 54 676 54 676 95.5 719.5 c 128,-1,7
 137 763 137 763 203.5 763 c 128,-1,0
 270 763 270 763 311.5 719.5 c 128,-1,1
233 578.5 m 128,-1,9
 244 592 244 592 244 612.5 c 128,-1,10
 244 633 244 633 233 647.5 c 128,-1,11
 222 662 222 662 204 662 c 128,-1,12
 186 662 186 662 174.5 647.5 c 128,-1,13
 163 633 163 633 163 612.5 c 128,-1,14
 163 592 163 592 174.5 578.5 c 128,-1,15
 186 565 186 565 204 565 c 128,-1,8
 222 565 222 565 233 578.5 c 128,-1,9
EndSplineSet
EndChar

StartChar: ordmasculine
Encoding: 186 186 77
Width: 431
Flags: HMW
HStem: 437 101<199.5 231 199.5 264> 664 101<199.5 231>
VStem: 53 116<582 619 582 646.5> 262 116<582 619>
LayerCount: 2
Fore
SplineSet
332.5 718 m 128,-1,1
 378 671 378 671 378 599.5 c 128,-1,2
 378 528 378 528 333 482.5 c 128,-1,3
 288 437 288 437 215 437 c 128,-1,4
 142 437 142 437 97.5 482.5 c 128,-1,5
 53 528 53 528 53 599.5 c 128,-1,6
 53 671 53 671 98 718 c 128,-1,7
 143 765 143 765 215 765 c 128,-1,0
 287 765 287 765 332.5 718 c 128,-1,1
262 601 m 0,8,9
 262 629 262 629 250 646.5 c 128,-1,10
 238 664 238 664 215.5 664 c 128,-1,11
 193 664 193 664 181 646.5 c 128,-1,12
 169 629 169 629 169 601 c 0,13,14
 169 538 169 538 215.5 538 c 128,-1,15
 262 538 262 538 262 601 c 0,8,9
EndSplineSet
EndChar

StartChar: caron
Encoding: 711 711 78
Width: 480
Flags: HMW
HStem: 533 227<214 378.5> 739 20G<101.5 146.5>
LayerCount: 2
Fore
SplineSet
274.5 540.5 m 128,-1,1
 259 533 259 533 240.5 533 c 128,-1,2
 222 533 222 533 206.5 540.5 c 128,-1,3
 191 548 191 548 182 557 c 128,-1,4
 173 566 173 566 156 584.5 c 128,-1,5
 139 603 139 603 128 614 c 128,-1,6
 117 625 117 625 99.5 641 c 128,-1,7
 82 657 82 657 76 663 c 0,8,9
 59 680 59 680 59 702 c 128,-1,10
 59 724 59 724 76.5 741.5 c 128,-1,11
 94 759 94 759 118.5 759 c 128,-1,12
 143 759 143 759 169 735.5 c 128,-1,13
 195 712 195 712 213.5 688 c 128,-1,14
 232 664 232 664 240 664 c 128,-1,15
 248 664 248 664 266.5 688 c 0,16,17
 322 760 322 760 363 760 c 0,18,19
 386 760 386 760 403.5 742.5 c 128,-1,20
 421 725 421 725 421 708 c 128,-1,21
 421 691 421 691 415.5 680.5 c 128,-1,22
 410 670 410 670 404 664 c 128,-1,23
 398 658 398 658 380.5 642 c 128,-1,24
 363 626 363 626 351.5 615 c 128,-1,25
 340 604 340 604 324 585 c 128,-1,26
 308 566 308 566 299 557 c 128,-1,0
 290 548 290 548 274.5 540.5 c 128,-1,1
EndSplineSet
EndChar

StartChar: breve
Encoding: 728 728 79
Width: 434
Flags: HMW
HStem: 570 125<188 240 188 270.5> 570 205<80 270.5>
LayerCount: 2
Fore
SplineSet
214 570 m 128,-1,1
 137 570 137 570 87 621 c 128,-1,2
 37 672 37 672 37 716 c 0,3,4
 37 746 37 746 54 760.5 c 128,-1,5
 71 775 71 775 93 775 c 128,-1,6
 115 775 115 775 132.5 762.5 c 128,-1,7
 150 750 150 750 159 735 c 128,-1,8
 168 720 168 720 182.5 707.5 c 128,-1,9
 197 695 197 695 214 695 c 128,-1,10
 231 695 231 695 245.5 707.5 c 128,-1,11
 260 720 260 720 269 735 c 128,-1,12
 278 750 278 750 295.5 762.5 c 128,-1,13
 313 775 313 775 335 775 c 128,-1,14
 357 775 357 775 374 760.5 c 128,-1,15
 391 746 391 746 391 716 c 0,16,17
 391 672 391 672 341 621 c 128,-1,0
 291 570 291 570 214 570 c 128,-1,1
EndSplineSet
EndChar

StartChar: ogonek
Encoding: 731 731 80
Width: 363
Flags: HMW
HStem: -250 109<204 220.5 204 230.5> -250 129<159 300> -7 20G<144 301 301 301>
VStem: 69 116<-122 -101 -122 -98.5>
LayerCount: 2
Fore
SplineSet
327 -163 m 0,0,1
 327 -194 327 -194 287 -222 c 128,-1,2
 247 -250 247 -250 194 -250 c 128,-1,3
 141 -250 141 -250 105 -217 c 128,-1,4
 69 -184 69 -184 69 -130 c 0,5,6
 69 -46 69 -46 144 13 c 1,7,-1
 301 13 l 1,8,9
 254 -11 254 -11 219.5 -51.5 c 128,-1,10
 185 -92 185 -92 185 -109 c 0,11,12
 185 -141 185 -141 211 -141 c 0,13,14
 219 -141 219 -141 243.5 -131 c 128,-1,15
 268 -121 268 -121 287 -121 c 128,-1,16
 306 -121 306 -121 316.5 -134.5 c 128,-1,17
 327 -148 327 -148 327 -163 c 0,0,1
EndSplineSet
EndChar

StartChar: Omega
Encoding: 937 937 81
Width: 899
Flags: HMW
HStem: -6 130<90 127.5 90 133.5 772.5 810> 0 21G<204.5 240 660 695.5> 586 127<390.5 509.5>
VStem: 33 215 107 141<328 434.5 325 470> 652 141<328 434.5> 652 215
LayerCount: 2
Fore
SplineSet
224 0 m 1,0,-1
 116 -6 l 1,1,2
 77 -6 77 -6 55 11.5 c 128,-1,3
 33 29 33 29 33 59 c 128,-1,4
 33 89 33 89 55 106.5 c 128,-1,5
 77 124 77 124 116 124 c 0,6,7
 126 124 126 124 152.5 122.5 c 128,-1,8
 179 121 179 121 197 121 c 1,9,10
 107 242 107 242 107 378.5 c 128,-1,11
 107 515 107 515 210 614 c 128,-1,12
 313 713 313 713 451 713 c 128,-1,13
 589 713 589 713 691 614 c 128,-1,14
 793 515 793 515 793 378.5 c 128,-1,15
 793 242 793 242 703 121 c 1,16,-1
 784 124 l 1,17,18
 823 124 823 124 845 106.5 c 128,-1,19
 867 89 867 89 867 59 c 128,-1,20
 867 29 867 29 845 11.5 c 128,-1,21
 823 -6 823 -6 784 -6 c 1,22,-1
 676 0 l 1,23,-1
 577 -6 l 1,24,25
 541 -6 541 -6 518 12 c 128,-1,26
 495 30 495 30 495 62 c 128,-1,27
 495 94 495 94 535 116 c 0,28,29
 585 143 585 143 618.5 220 c 128,-1,30
 652 297 652 297 652 381 c 128,-1,31
 652 465 652 465 595 525.5 c 128,-1,32
 538 586 538 586 450 586 c 128,-1,33
 362 586 362 586 305 525.5 c 128,-1,34
 248 465 248 465 248 381 c 128,-1,35
 248 297 248 297 281.5 220 c 128,-1,36
 315 143 315 143 365 116 c 0,37,38
 405 94 405 94 405 62 c 128,-1,39
 405 30 405 30 382 12 c 128,-1,40
 359 -6 359 -6 323 -6 c 1,41,-1
 224 0 l 1,0,-1
EndSplineSet
EndChar

StartChar: ordfeminine
Encoding: 170 170 82
Width: 435
Flags: HMW
HStem: 437 98<173.5 196 173.5 197> 661 100<187 208.5>
VStem: 52 100<578.5 614 578.5 636.5>
LayerCount: 2
Fore
SplineSet
247 599 m 1,0,-1
 246 644 l 1,1,2
 221 661 221 661 200.5 661 c 128,-1,3
 180 661 180 661 166 642 c 128,-1,4
 152 623 152 623 152 596.5 c 128,-1,5
 152 570 152 570 160.5 552.5 c 128,-1,6
 169 535 169 535 185.5 535 c 128,-1,7
 202 535 202 535 220.5 554.5 c 128,-1,8
 239 574 239 574 247 599 c 1,0,-1
357 682 m 0,9,10
 357 674 357 674 351 632 c 128,-1,11
 345 590 345 590 345 569 c 128,-1,12
 345 548 345 548 351 537 c 128,-1,13
 357 526 357 526 363.5 525 c 0,14,15
 382 522.153846154 382 522.153846154 382 508 c 0,16,17
 382 476 382 476 363.5 456.5 c 128,-1,18
 345 437 345 437 315 437 c 128,-1,19
 285 437 285 437 265 478 c 1,20,21
 227 437 227 437 181 437 c 0,22,23
 120 437 120 437 86 485.5 c 128,-1,24
 52 534 52 534 52 597.5 c 128,-1,25
 52 661 52 661 94.5 711 c 128,-1,26
 137 761 137 761 202 761 c 0,27,28
 234 761 234 761 265 742 c 1,29,30
 280 761 280 761 301 761 c 0,31,32
 357 761 357 761 357 682 c 0,9,10
EndSplineSet
EndChar

StartChar: copyright
Encoding: 169 169 83
Width: 788
Flags: HMW
HStem: 133 107<335 450.5 335 484> 284 97<386.5 414.5 386.5 436.5> 284 115<353 484.5> 523 97<383.5 413> 659 106<335 450.5>
VStem: 69 115<390.5 508 390.5 536.5> 238 107<431.5 468.5 431.5 497> 603 115<390.5 508>
LayerCount: 2
Fore
SplineSet
399 620 m 0,0,1
 442 620 442 620 478 599.5 c 128,-1,2
 514 579 514 579 514 552 c 0,3,4
 514 503 514 503 463 503 c 0,5,6
 451 503 451 503 432 513 c 128,-1,7
 413 523 413 523 403 523 c 0,8,9
 375 523 375 523 360 501.5 c 128,-1,10
 345 480 345 480 345 451 c 128,-1,11
 345 422 345 422 362 401.5 c 128,-1,12
 379 381 379 381 403 381 c 0,13,14
 414 381 414 381 437 390 c 128,-1,15
 460 399 460 399 476 399 c 128,-1,16
 492 399 492 399 505.5 386.5 c 128,-1,17
 519 374 519 374 519 351.5 c 128,-1,18
 519 329 519 329 485 306.5 c 128,-1,19
 451 284 451 284 399 284 c 0,20,21
 331 284 331 284 284.5 334 c 128,-1,22
 238 384 238 384 238 453 c 128,-1,23
 238 522 238 522 283 571 c 128,-1,24
 328 620 328 620 399 620 c 0,0,1
718 449 m 128,-1,26
 718 318 718 318 623.5 225.5 c 128,-1,27
 529 133 529 133 394.5 133 c 128,-1,28
 260 133 260 133 164.5 226 c 128,-1,29
 69 319 69 319 69 449.5 c 128,-1,30
 69 580 69 580 164.5 672.5 c 128,-1,31
 260 765 260 765 394.5 765 c 128,-1,32
 529 765 529 765 623.5 672.5 c 128,-1,25
 718 580 718 580 718 449 c 128,-1,26
541.5 301 m 128,-1,34
 603 362 603 362 603 449.5 c 128,-1,35
 603 537 603 537 541.5 598 c 128,-1,36
 480 659 480 659 393 659 c 128,-1,37
 306 659 306 659 245 598 c 128,-1,38
 184 537 184 537 184 449 c 128,-1,39
 184 361 184 361 245 300.5 c 128,-1,40
 306 240 306 240 393 240 c 128,-1,33
 480 240 480 240 541.5 301 c 128,-1,34
EndSplineSet
EndChar

StartChar: germandbls
Encoding: 223 223 84
Width: 645
Flags: HMW
HStem: -15 21G<393.5 485> -6 110 -6 148<141.5 360.5> 399 117<80.5 103 80 104> 638 121<297.5 337>
VStem: 23 224 103 144 277 141<356 414.5 356 425> 387 31 387 142<557.5 602.5> 470 141<133.5 186>
LayerCount: 2
Fore
SplineSet
239 374 m 1,0,-1
 247 102 l 1,1,2
 247 -6 247 -6 171 -6 c 128,-1,3
 95 -6 95 -6 95 102 c 0,4,5
 95 130 95 130 97.5 162.5 c 0,6,7
 104 247 104 247 104 399 c 1,8,9
 23 399 23 399 23 457.5 c 128,-1,10
 23 516 23 516 103 516 c 1,11,-1
 103 563 l 2,12,13
 103 664 103 664 164.5 711.5 c 128,-1,14
 226 759 226 759 322 759 c 128,-1,15
 418 759 418 759 473.5 710 c 128,-1,16
 529 661 529 661 529 590 c 0,17,18
 529 557 529 557 511.5 525 c 128,-1,19
 494 493 494 493 473.5 472 c 128,-1,20
 453 451 453 451 435.5 428 c 128,-1,21
 418 405 418 405 418 388 c 128,-1,22
 418 371 418 371 438 352 c 128,-1,23
 458 333 458 333 486 314.5 c 128,-1,24
 514 296 514 296 542.5 273.5 c 128,-1,25
 571 251 571 251 591 218.5 c 128,-1,26
 611 186 611 186 611 148 c 0,27,28
 611 78 611 78 561 31.5 c 128,-1,29
 511 -15 511 -15 429 -15 c 0,30,31
 376 -15 376 -15 330.5 15.5 c 128,-1,32
 285 46 285 46 285 77 c 128,-1,33
 285 108 285 108 300 125 c 128,-1,34
 315 142 315 142 338.5 142 c 128,-1,35
 362 142 362 142 389 123 c 128,-1,36
 416 104 416 104 431 104 c 128,-1,37
 446 104 446 104 458 116 c 128,-1,38
 470 128 470 128 470 148 c 128,-1,39
 470 168 470 168 450 187 c 128,-1,40
 430 206 430 206 402 223.5 c 128,-1,41
 374 241 374 241 345.5 261 c 128,-1,42
 317 281 317 281 297 313.5 c 128,-1,43
 277 346 277 346 277 382.5 c 128,-1,44
 277 419 277 419 304.5 456.5 c 128,-1,45
 332 494 332 494 359.5 528.5 c 128,-1,46
 387 563 387 563 387 586.5 c 128,-1,47
 387 610 387 610 367.5 624 c 128,-1,48
 348 638 348 638 316.5 638 c 128,-1,49
 285 638 285 638 263.5 618 c 128,-1,50
 242 598 242 598 242 554 c 2,51,-1
 239 374 l 1,0,-1
EndSplineSet
EndChar

StartChar: onesuperior
Encoding: 185 185 85
Width: 357
Flags: HMW
HStem: 331 21G<199.5 239> 520 240<71.5 239.5>
VStem: 157 124<524.5 570>
LayerCount: 2
Fore
SplineSet
281 544 m 1,0,-1
 284 407 l 2,1,2
 284 372 284 372 266.5 351.5 c 128,-1,3
 249 331 249 331 219.5 331 c 128,-1,4
 190 331 190 331 172.5 351.5 c 128,-1,5
 155 372 155 372 155 407 c 0,6,7
 155 418 155 418 156 468 c 128,-1,8
 157 518 157 518 157 570 c 1,9,10
 116 520 116 520 89.5 520 c 128,-1,11
 63 520 63 520 46 535 c 128,-1,12
 29 550 29 550 29 571.5 c 128,-1,13
 29 593 29 593 42 611 c 128,-1,14
 55 629 55 629 82 657.5 c 128,-1,15
 109 686 109 686 128 708 c 128,-1,16
 147 730 147 730 154.5 736 c 0,17,18
 184.5 760 184.5 760 217.25 760 c 128,-1,19
 250 760 250 760 267 737 c 128,-1,20
 284 714 284 714 284 675 c 2,21,-1
 281 544 l 1,0,-1
EndSplineSet
EndChar

StartChar: threesuperior
Encoding: 179 179 86
Width: 432
Flags: HMW
HStem: 319 110<177.5 217 177.5 262> 319 148<91.5 262> 642 111<109.5 133.5> 730 20G<191.5 217>
VStem: 254 127<458.5 484>
LayerCount: 2
Fore
SplineSet
206 750 m 1,0,-1
 281 753 l 2,1,2
 298 753 298 753 314 749.5 c 128,-1,3
 330 746 330 746 347 730.5 c 128,-1,4
 364 715 364 715 364 693 c 128,-1,5
 364 671 364 671 354 657.5 c 128,-1,6
 344 644 344 644 323 626.5 c 128,-1,7
 302 609 302 609 294 601 c 1,8,9
 381 560 381 560 381 472 c 0,10,11
 381 412 381 412 333.5 365.5 c 128,-1,12
 286 319 286 319 206 319 c 0,13,14
 146 319 146 319 99.5 349.5 c 128,-1,15
 53 380 53 380 53 408.5 c 128,-1,16
 53 437 53 437 68.5 452 c 128,-1,17
 84 467 84 467 103.5 467 c 128,-1,18
 123 467 123 467 149.5 448 c 128,-1,19
 176 429 176 429 200.5 429 c 128,-1,20
 225 429 225 429 239.5 440.5 c 128,-1,21
 254 452 254 452 254 470 c 0,22,23
 254 513 254 513 217 525 c 1,24,25
 195 502 195 502 168.5 502 c 128,-1,26
 142 502 142 502 123.5 518.5 c 128,-1,27
 105 535 105 535 105 557 c 0,28,29
 105 591 105 591 152 608 c 1,30,31
 174 626 174 626 189 645 c 1,32,33
 135 642 135 642 130 642 c 0,34,35
 98 642 98 642 79 655.5 c 128,-1,36
 60 669 60 669 60 694.5 c 128,-1,37
 60 720 60 720 79 736.5 c 128,-1,38
 98 753 98 753 130 753 c 1,39,-1
 206 750 l 1,0,-1
EndSplineSet
EndChar

StartChar: twosuperior
Encoding: 178 178 87
Width: 432
Flags: HMW
HStem: 332 117<287 323> 612 152<99.5 261> 651 113<184 212.5>
VStem: 229 128<610 629.5>
LayerCount: 2
Fore
SplineSet
220 446 m 1,0,-1
 302 449 l 1,1,2
 336 449 336 449 357.5 434.5 c 128,-1,3
 379 420 379 420 379 391 c 0,4,5
 379 332 379 332 302 332 c 1,6,-1
 212 335 l 1,7,-1
 126 332 l 2,8,9
 98 332 98 332 76 347.5 c 128,-1,10
 54 363 54 363 54 392.5 c 128,-1,11
 54 422 54 422 98 471.5 c 128,-1,12
 142 521 142 521 185.5 565 c 128,-1,13
 229 609 229 609 229 621.5 c 0,14,15
 229 651 229 651 203 651 c 0,16,17
 184 651 184 651 159.5 631.5 c 128,-1,18
 135 612 135 612 114 612 c 128,-1,19
 93 612 93 612 79.5 627 c 128,-1,20
 66 642 66 642 66 661 c 0,21,22
 66 697 66 697 109.5 730.5 c 128,-1,23
 153 764 153 764 216.5 764 c 128,-1,24
 280 764 280 764 318.5 728.5 c 128,-1,25
 357 693 357 693 357 647 c 0,26,27
 357 603.459459459 357 603.459459459 323.5 560 c 0,28,29
 288.181818182 514.181818182 288.181818182 514.181818182 220 446 c 1,0,-1
EndSplineSet
EndChar

StartChar: currency
Encoding: 164 164 88
Width: 676
Flags: HMW
HStem: 119 21G<117 153.5 523.5 558> 144 119<315.5 360.5> 480 121<315.5 360.5 315.5 362.5> 606 20G<117 153.5 523.5 558>
VStem: 67 177<165 402 343 580> 112 132<354.5 390> 430 133<354.5 390 354.5 402> 430 178<165 402>
LayerCount: 2
Fore
SplineSet
542 473 m 1,0,1
 563 427 563 427 563 372.5 c 128,-1,2
 563 318 563 318 542 272 c 1,3,4
 586 232 586 232 597 217.5 c 128,-1,5
 608 203 608 203 608 180 c 128,-1,6
 608 157 608 157 587.5 138 c 128,-1,7
 567 119 567 119 541.5 119 c 128,-1,8
 516 119 516 119 501 129 c 128,-1,9
 486 139 486 139 455 173 c 1,10,11
 405 144 405 144 338.5 144 c 128,-1,12
 272 144 272 144 220 173 c 1,13,14
 189 139 189 139 175 129 c 128,-1,15
 161 119 161 119 134.5 119 c 128,-1,16
 108 119 108 119 87.5 137.5 c 128,-1,17
 67 156 67 156 67 180 c 128,-1,18
 67 204 67 204 77.5 218.5 c 128,-1,19
 88 233 88 233 132 272 c 1,20,21
 112 320 112 320 112 372.5 c 128,-1,22
 112 425 112 425 132 473 c 1,23,24
 88 512 88 512 77.5 526.5 c 128,-1,25
 67 541 67 541 67 565 c 128,-1,26
 67 589 67 589 87.5 607.5 c 128,-1,27
 108 626 108 626 134.5 626 c 128,-1,28
 161 626 161 626 175 616 c 128,-1,29
 189 606 189 606 220 572 c 1,30,31
 272 601 272 601 338.5 601 c 128,-1,32
 405 601 405 601 455 572 c 1,33,34
 486 606 486 606 501 616 c 128,-1,35
 516 626 516 626 541.5 626 c 128,-1,36
 567 626 567 626 587.5 607 c 128,-1,37
 608 588 608 588 608 565 c 128,-1,38
 608 542 608 542 597 527.5 c 128,-1,39
 586 513 586 513 542 473 c 1,0,1
402.5 448 m 128,-1,41
 375 480 375 480 337.5 480 c 128,-1,42
 300 480 300 480 272 448.5 c 128,-1,43
 244 417 244 417 244 372.5 c 128,-1,44
 244 328 244 328 271.5 295.5 c 128,-1,45
 299 263 299 263 337 263 c 128,-1,46
 375 263 375 263 402.5 295.5 c 128,-1,47
 430 328 430 328 430 372 c 128,-1,40
 430 416 430 416 402.5 448 c 128,-1,41
EndSplineSet
EndChar

StartChar: one
Encoding: 49 49 89
Width: 510
Flags: HMW
HStem: -10 21G<280.5 339> 740 20G<244 309>
VStem: 241 144
LayerCount: 2
Fore
SplineSet
235 98 m 1,0,-1
 241 354 l 2,1,2
 241 388 241 388 240.5 413.5 c 0,3,4
 239 490 239 490 239 565 c 1,5,6
 206.2 525.069565217 206.2 525.069565217 177.6 484.034782609 c 128,-1,7
 149 443 149 443 136 428 c 0,8,9
 112.6 401 112.6 401 85.3 401 c 128,-1,10
 58 401 58 401 39 418.5 c 128,-1,11
 20 436 20 436 20 464 c 128,-1,12
 20 492 20 492 36.5 517.5 c 128,-1,13
 53 543 53 543 87.5 583 c 128,-1,14
 122 623 122 623 148.5 658.5 c 128,-1,15
 175 694 175 694 190.5 711 c 128,-1,16
 206 728 206 728 230 744 c 128,-1,17
 254 760 254 760 279 760 c 0,18,19
 382 760 382 760 382 628 c 1,20,-1
 377 370 l 1,21,-1
 385 98 l 1,22,23
 385 -10 385 -10 310 -10 c 128,-1,24
 235 -10 235 -10 235 98 c 1,0,-1
EndSplineSet
EndChar

StartChar: OE
Encoding: 338 338 90
Width: 982
Flags: HMW
HStem: -15 127<338.5 410> -9 21G<532.5 568.5 824 874> -3 128<668.5 874> 332 133<790 831.5> 628 128 730 20G<663.5 717.5> 745 20G<299 410>
VStem: 62 142<308.5 444.5 308.5 482.5> 567 140
LayerCount: 2
Fore
SplineSet
849 622 m 1,0,-1
 710 628 l 2,1,2
 690 628 690 628 638 626 c 1,3,4
 684 559 684 559 701 460 c 1,5,6
 793 465 793 465 808 465 c 0,7,8
 844 465 844 465 867 446.5 c 128,-1,9
 890 428 890 428 890 397.5 c 128,-1,10
 890 367 890 367 867 349.5 c 128,-1,11
 844 332 844 332 805 332 c 128,-1,12
 766 332 766 332 707 335 c 1,13,14
 701 248 701 248 634 119 c 1,15,-1
 692 119 l 1,16,-1
 849 125 l 1,17,18
 887 125 887 125 909.5 107.5 c 128,-1,19
 932 90 932 90 932 59 c 128,-1,20
 932 28 932 28 909.5 9.5 c 128,-1,21
 887 -9 887 -9 849 -9 c 1,22,-1
 692 -3 l 1,23,-1
 540 -9 l 2,24,25
 519 -9 519 -9 493 2 c 1,26,27
 450 -15 450 -15 392 -15 c 0,28,29
 251 -15 251 -15 156.5 99 c 128,-1,30
 62 213 62 213 62 375.5 c 128,-1,31
 62 538 62 538 157.5 651.5 c 128,-1,32
 253 765 253 765 394 765 c 0,33,34
 445 765 445 765 486 749 c 1,35,36
 505 756 505 756 529 756 c 2,37,-1
 692 750 l 1,38,-1
 849 756 l 1,39,40
 887 756 887 756 909.5 737.5 c 128,-1,41
 932 719 932 719 932 688 c 128,-1,42
 932 657 932 657 909.5 639.5 c 128,-1,43
 887 622 887 622 849 622 c 1,0,-1
517 192 m 128,-1,45
 567 272 567 272 567 376.5 c 128,-1,46
 567 481 567 481 517.5 556.5 c 128,-1,47
 468 632 468 632 390 632 c 128,-1,48
 312 632 312 632 258 556.5 c 128,-1,49
 204 481 204 481 204 376.5 c 128,-1,50
 204 272 204 272 258.5 192 c 128,-1,51
 313 112 313 112 390 112 c 128,-1,44
 467 112 467 112 517 192 c 128,-1,45
EndSplineSet
EndChar

StartChar: oe
Encoding: 339 339 91
Width: 1273
Flags: HMW
HStem: -15 126<338.5 459.5 905 1000> -15 189<890.5 1156> 296 124<893 959 893 989> 639 126<338.5 461>
VStem: 51 142<308.5 444 308.5 482.5> 1077 142<501.5 563>
LayerCount: 2
Fore
SplineSet
547 191 m 128,-1,1
 606 271 606 271 606 376.5 c 128,-1,2
 606 482 606 482 547.5 560.5 c 128,-1,3
 489 639 489 639 399.5 639 c 128,-1,4
 310 639 310 639 251.5 560.5 c 128,-1,5
 193 482 193 482 193 376.5 c 128,-1,6
 193 271 193 271 252 191 c 128,-1,7
 311 111 311 111 399.5 111 c 128,-1,0
 488 111 488 111 547 191 c 128,-1,1
1144.5 700.5 m 128,-1,9
 1219 636 1219 636 1219 546.5 c 128,-1,10
 1219 457 1219 457 1173.5 400.5 c 0,11,12
 1089.34513274 296 1089.34513274 296 911 296 c 0,13,14
 852 296 852 296 774 309 c 1,15,16
 789 225 789 225 837 168 c 128,-1,17
 885 111 885 111 947 111 c 0,18,19
 1015.65625 111 1015.65625 111 1093.5 158 c 0,20,21
 1120 174 1120 174 1142 174 c 128,-1,22
 1164 174 1164 174 1180 159 c 128,-1,23
 1196 144 1196 144 1196 121 c 0,24,25
 1196 82 1196 82 1122 33.5 c 128,-1,26
 1048 -15 1048 -15 955.5 -15 c 128,-1,27
 863 -15 863 -15 794.5 28.5 c 128,-1,28
 726 72 726 72 684 147 c 1,29,30
 636 72 636 72 562 28.5 c 128,-1,31
 488 -15 488 -15 399 -15 c 0,32,33
 251 -15 251 -15 151 99 c 128,-1,34
 51 213 51 213 51 375.5 c 128,-1,35
 51 538 51 538 151.5 651.5 c 128,-1,36
 252 765 252 765 400 765 c 0,37,38
 492 765 492 765 567.5 719 c 128,-1,39
 643 673 643 673 690 594 c 1,40,41
 788 765 788 765 965 765 c 0,42,8
 1070 765 1070 765 1144.5 700.5 c 128,-1,9
1077 542 m 0,43,44
 1077 578 1077 578 1048 608 c 128,-1,45
 1019 638 1019 638 965 638 c 0,46,47
 894 638 894 638 844.5 578 c 128,-1,48
 795 518 795 518 775 434 c 1,49,50
 835 420 835 420 909.5 420 c 128,-1,51
 984 420 984 420 1030.5 452 c 128,-1,52
 1077 484 1077 484 1077 542 c 0,43,44
EndSplineSet
EndChar

StartChar: onehalf
Encoding: 189 189 92
Width: 991
Flags: HMW
HStem: -10 125 -2 21G<666 701 843 879> 278 152<655.5 817> 317 113<740 768.5> 520 240<88.5 256.5>
VStem: 174 124<524.5 570> 785 128<276 295.5>
LayerCount: 2
Fore
SplineSet
298 544 m 1,0,-1
 301 407 l 2,1,2
 301 372 301 372 283.5 351.5 c 128,-1,3
 266 331 266 331 236.5 331 c 128,-1,4
 207 331 207 331 189.5 351.5 c 128,-1,5
 172 372 172 372 172 407 c 0,6,7
 172 418 172 418 173 468 c 128,-1,8
 174 518 174 518 174 570 c 1,9,10
 133 520 133 520 106.5 520 c 128,-1,11
 80 520 80 520 63 535 c 128,-1,12
 46 550 46 550 46 571.5 c 128,-1,13
 46 593 46 593 59 611 c 128,-1,14
 72 629 72 629 99 657.5 c 128,-1,15
 126 686 126 686 145 708 c 128,-1,16
 164 730 164 730 171.5 736 c 0,17,18
 201.5 760 201.5 760 234.25 760 c 128,-1,19
 267 760 267 760 284 737 c 128,-1,20
 301 714 301 714 301 675 c 2,21,-1
 298 544 l 1,0,-1
593.5 510 m 128,-1,23
 559 424 559 424 538 368.5 c 128,-1,24
 517 313 517 313 484 209.5 c 128,-1,25
 451 106 451 106 435.5 63 c 128,-1,26
 420 20 420 20 403 5 c 128,-1,27
 386 -10 386 -10 361 -10 c 128,-1,28
 336 -10 336 -10 315 7 c 128,-1,29
 294 24 294 24 294 56 c 0,30,31
 294 85.9565217391 294 85.9565217391 318 146.47826087 c 128,-1,32
 342 207 342 207 351.5 231.5 c 128,-1,33
 361 256 361 256 378.5 300.5 c 128,-1,34
 396 345 396 345 412.5 388.5 c 128,-1,35
 429 432 429 432 514 691 c 0,36,37
 527 730 527 730 543.5 745 c 128,-1,38
 560 760 560 760 586 760 c 128,-1,39
 612 760 612 760 633.5 744 c 128,-1,40
 655 728 655 728 655 701 c 128,-1,41
 655 674 655 674 641.5 635 c 128,-1,22
 628 596 628 596 593.5 510 c 128,-1,23
776 112 m 1,42,-1
 858 115 l 1,43,44
 892 115 892 115 913.5 100.5 c 128,-1,45
 935 86 935 86 935 57 c 0,46,47
 935 -2 935 -2 858 -2 c 1,48,-1
 768 1 l 1,49,-1
 682 -2 l 2,50,51
 654 -2 654 -2 632 13.5 c 128,-1,52
 610 29 610 29 610 58.5 c 128,-1,53
 610 88 610 88 653.5 137.5 c 128,-1,54
 697 187 697 187 741 231 c 128,-1,55
 785 275 785 275 785 287.5 c 0,56,57
 785 317 785 317 759 317 c 0,58,59
 740 317 740 317 715.5 297.5 c 128,-1,60
 691 278 691 278 670 278 c 128,-1,61
 649 278 649 278 635.5 293 c 128,-1,62
 622 308 622 308 622 327 c 0,63,64
 622 363 622 363 665.5 396.5 c 128,-1,65
 709 430 709 430 772.5 430 c 128,-1,66
 836 430 836 430 874.5 394.5 c 128,-1,67
 913 359 913 359 913 313 c 0,68,69
 913 269.459459459 913 269.459459459 879.5 226 c 0,70,71
 844.181818182 180.181818182 844.181818182 180.181818182 776 112 c 1,42,-1
EndSplineSet
EndChar

StartChar: onequarter
Encoding: 188 188 93
Width: 1020
Flags: HMW
HStem: -10 21G<346 376 829 873> 520 240<88.5 256.5>
VStem: 174 124<524.5 570> 790 121 790 179
LayerCount: 2
Fore
SplineSet
298 544 m 1,0,-1
 301 407 l 2,1,2
 301 372 301 372 283.5 351.5 c 128,-1,3
 266 331 266 331 236.5 331 c 128,-1,4
 207 331 207 331 189.5 351.5 c 128,-1,5
 172 372 172 372 172 407 c 0,6,7
 172 418 172 418 173 468 c 128,-1,8
 174 518 174 518 174 570 c 1,9,10
 133 520 133 520 106.5 520 c 128,-1,11
 80 520 80 520 63 535 c 128,-1,12
 46 550 46 550 46 571.5 c 128,-1,13
 46 593 46 593 59 611 c 128,-1,14
 72 629 72 629 99 657.5 c 128,-1,15
 126 686 126 686 145 708 c 128,-1,16
 164 730 164 730 171.5 736 c 0,17,18
 201.5 760 201.5 760 234.25 760 c 128,-1,19
 267 760 267 760 284 737 c 128,-1,20
 301 714 301 714 301 675 c 2,21,-1
 298 544 l 1,0,-1
593.5 510 m 128,-1,23
 559 424 559 424 538 368.5 c 128,-1,24
 517 313 517 313 484 209.5 c 128,-1,25
 451 106 451 106 435.5 63 c 128,-1,26
 420 20 420 20 403 5 c 128,-1,27
 386 -10 386 -10 361 -10 c 128,-1,28
 336 -10 336 -10 315 7 c 128,-1,29
 294 24 294 24 294 56 c 0,30,31
 294 85.9565217391 294 85.9565217391 318 146.47826087 c 128,-1,32
 342 207 342 207 351.5 231.5 c 128,-1,33
 361 256 361 256 378.5 300.5 c 128,-1,34
 396 345 396 345 412.5 388.5 c 128,-1,35
 429 432 429 432 514 691 c 0,36,37
 527 730 527 730 543.5 745 c 128,-1,38
 560 760 560 760 586 760 c 128,-1,39
 612 760 612 760 633.5 744 c 128,-1,40
 655 728 655 728 655 701 c 128,-1,41
 655 674 655 674 641.5 635 c 128,-1,22
 628 596 628 596 593.5 510 c 128,-1,23
912 118 m 1,42,-1
 914 60 l 1,43,44
 914 -10 914 -10 851 -10 c 128,-1,45
 788 -10 788 -10 788 57 c 0,46,47
 788 59 788 59 790 120 c 1,48,-1
 663 118 l 2,49,50
 629 118 629 118 613.5 135.5 c 128,-1,51
 598 153 598 153 598 173.5 c 128,-1,52
 598 194 598 194 621.5 228.5 c 128,-1,53
 645 263 645 263 754 405 c 0,54,55
 790 453 790 453 837 453 c 0,56,57
 869 453 869 453 891.5 429 c 128,-1,58
 914 405 914 405 914 371 c 2,59,-1
 911 226 l 1,60,61
 969 220 969 220 969 173 c 0,62,63
 969 124 969 124 912 118 c 1,42,-1
738 218 m 1,64,-1
 796 218 l 1,65,-1
 796 300 l 1,66,67
 762 254 762 254 738 218 c 1,64,-1
EndSplineSet
EndChar

StartChar: threequarters
Encoding: 190 190 94
Width: 1084
Flags: HMW
HStem: -10 21G<412 442 895 939> 319 110<183.5 223 183.5 268> 319 148<97.5 268> 642 118 730 20G<197.5 223> 733 20G<114.5 148 272 299>
VStem: 260 127<458.5 484> 856 121 856 179
LayerCount: 2
Fore
SplineSet
659.5 510 m 128,-1,1
 625 424 625 424 604 368.5 c 128,-1,2
 583 313 583 313 550 209.5 c 128,-1,3
 517 106 517 106 501.5 63 c 128,-1,4
 486 20 486 20 469 5 c 128,-1,5
 452 -10 452 -10 427 -10 c 128,-1,6
 402 -10 402 -10 381 7 c 128,-1,7
 360 24 360 24 360 56 c 0,8,9
 360 85.9565217391 360 85.9565217391 384 146.47826087 c 128,-1,10
 408 207 408 207 417.5 231.5 c 128,-1,11
 427 256 427 256 444.5 300.5 c 128,-1,12
 462 345 462 345 478.5 388.5 c 128,-1,13
 495 432 495 432 580 691 c 0,14,15
 593 730 593 730 609.5 745 c 128,-1,16
 626 760 626 760 652 760 c 128,-1,17
 678 760 678 760 699.5 744 c 128,-1,18
 721 728 721 728 721 701 c 128,-1,19
 721 674 721 674 707.5 635 c 128,-1,0
 694 596 694 596 659.5 510 c 128,-1,1
978 118 m 1,20,-1
 980 60 l 1,21,22
 980 -10 980 -10 917 -10 c 128,-1,23
 854 -10 854 -10 854 57 c 0,24,25
 854 59 854 59 856 120 c 1,26,-1
 729 118 l 2,27,28
 695 118 695 118 679.5 135.5 c 128,-1,29
 664 153 664 153 664 173.5 c 128,-1,30
 664 194 664 194 687.5 228.5 c 128,-1,31
 711 263 711 263 820 405 c 0,32,33
 856 453 856 453 903 453 c 0,34,35
 935 453 935 453 957.5 429 c 128,-1,36
 980 405 980 405 980 371 c 2,37,-1
 977 226 l 1,38,39
 1035 220 1035 220 1035 173 c 0,40,41
 1035 124 1035 124 978 118 c 1,20,-1
804 218 m 1,42,-1
 862 218 l 1,43,-1
 862 300 l 1,44,45
 828 254 828 254 804 218 c 1,42,-1
212 750 m 1,46,-1
 287 753 l 2,47,48
 304 753 304 753 320 749.5 c 128,-1,49
 336 746 336 746 353 730.5 c 128,-1,50
 370 715 370 715 370 693 c 128,-1,51
 370 671 370 671 360 657.5 c 128,-1,52
 350 644 350 644 329 626.5 c 128,-1,53
 308 609 308 609 300 601 c 1,54,55
 387 560 387 560 387 472 c 0,56,57
 387 412 387 412 339.5 365.5 c 128,-1,58
 292 319 292 319 212 319 c 0,59,60
 152 319 152 319 105.5 349.5 c 128,-1,61
 59 380 59 380 59 408.5 c 128,-1,62
 59 437 59 437 74.5 452 c 128,-1,63
 90 467 90 467 110 467 c 128,-1,64
 130 467 130 467 156.5 448 c 128,-1,65
 183 429 183 429 207 429 c 128,-1,66
 231 429 231 429 245.5 440.5 c 128,-1,67
 260 452 260 452 260 470 c 0,68,69
 260 513 260 513 223 525 c 1,70,71
 201 502 201 502 174.5 502 c 128,-1,72
 148 502 148 502 129.5 518.5 c 128,-1,73
 111 535 111 535 111 557 c 0,74,75
 111 591 111 591 158 608 c 1,76,77
 180 626 180 626 195 645 c 1,78,79
 141 642 141 642 136 642 c 0,80,81
 104 642 104 642 85 655.5 c 128,-1,82
 66 669 66 669 66 694.5 c 128,-1,83
 66 720 66 720 85 736.5 c 128,-1,84
 104 753 104 753 136 753 c 1,85,-1
 212 750 l 1,46,-1
EndSplineSet
EndChar

StartChar: sterling
Encoding: 163 163 95
Width: 593
Flags: HMW
HStem: -5 133<432.5 479.5> 0 21G<289 338> 290 121<378 417.5> 540 173<260 472.5> 586 127<301.5 344>
VStem: 65 228 85 208 119 141<514.5 546.5 514.5 580.5> 156 137
LayerCount: 2
Fore
SplineSet
311 121 m 1,0,-1
 455 128 l 1,1,2
 492 128 492 128 514 110 c 128,-1,3
 536 92 536 92 536 61 c 128,-1,4
 536 30 536 30 514 12.5 c 128,-1,5
 492 -5 492 -5 455 -5 c 1,6,-1
 311 0 l 1,7,-1
 168 -5 l 1,8,9
 130 -5 130 -5 107.5 15 c 128,-1,10
 85 35 85 35 85 70.5 c 128,-1,11
 85 106 85 106 102.5 134 c 128,-1,12
 120 162 120 162 138 199 c 128,-1,13
 156 236 156 236 156 290 c 1,14,15
 65 290 65 290 65 351 c 0,16,17
 65 406 65 406 139 410 c 1,18,19
 119 495 119 495 119 532 c 0,20,21
 119 609 119 609 174.5 661 c 128,-1,22
 230 713 230 713 328 713 c 0,23,24
 403 713 403 713 457.5 678.5 c 128,-1,25
 512 644 512 644 512 604 c 0,26,27
 512 579 512 579 496.5 559.5 c 128,-1,28
 481 540 481 540 453.5 540 c 128,-1,29
 426 540 426 540 385 563 c 128,-1,30
 344 586 344 586 318 586 c 128,-1,31
 292 586 292 586 276 570.5 c 128,-1,32
 260 555 260 555 260 528 c 128,-1,33
 260 501 260 501 278 408 c 1,34,-1
 393 411 l 2,35,36
 430 411 430 411 451 394.5 c 128,-1,37
 472 378 472 378 472 350.5 c 128,-1,38
 472 323 472 323 451 306.5 c 128,-1,39
 430 290 430 290 393 290 c 1,40,-1
 293 293 l 1,41,42
 291 191 291 191 256 122 c 1,43,-1
 311 121 l 1,0,-1
EndSplineSet
EndChar

StartChar: commaaccent
Encoding: 63171 63171 96
Width: 251
Flags: HMW
HStem: -252 206<41.5 157.5>
VStem: 9 192<-221 -100>
LayerCount: 2
Fore
SplineSet
201 -115 m 0,0,1
 201 -164 201 -164 147.5 -208 c 128,-1,2
 94 -252 94 -252 58 -252 c 0,3,4
 35 -252 35 -252 22 -239.5 c 128,-1,5
 9 -227 9 -227 9 -210 c 128,-1,6
 9 -193 9 -193 29.5 -162.5 c 128,-1,7
 50 -132 50 -132 52.5 -127.5 c 128,-1,8
 55 -123 55 -123 62 -106.5 c 128,-1,9
 69 -90 69 -90 73.5 -82.5 c 128,-1,10
 78 -75 78 -75 86.5 -65 c 0,11,12
 102.65 -46 102.65 -46 134.325 -46 c 128,-1,13
 166 -46 166 -46 183.5 -68 c 128,-1,14
 201 -90 201 -90 201 -115 c 0,0,1
EndSplineSet
EndChar

StartChar: A
Encoding: 65 65 97
Width: 692
Flags: HMW
HStem: -10 21G<94.5 129 565.5 601> 221 125 740 20G<319 385.5>
LayerCount: 2
Fore
SplineSet
454 221 m 1,0,1
 376 225 376 225 325 225 c 128,-1,2
 274 225 274 225 235 223 c 1,3,4
 223 192 223 192 205.5 130.5 c 128,-1,5
 188 69 188 69 179 43 c 0,6,7
 161 -10 161 -10 113 -10 c 0,8,9
 85 -10 85 -10 68 7 c 128,-1,10
 51 24 51 24 51 54.5 c 128,-1,11
 51 85 51 85 103 220 c 1,12,13
 51 232 51 232 51 280 c 0,14,15
 51 345 51 345 144 345 c 1,16,17
 158 388 158 388 198 500 c 128,-1,18
 238 612 238 612 249.5 646.5 c 128,-1,19
 261 681 261 681 267.5 696 c 128,-1,20
 274 711 274 711 285 728 c 0,21,22
 305.705882353 760 305.705882353 760 348 760 c 0,23,24
 378.571428571 760 378.571428571 760 403 741 c 0,25,26
 418.227488152 729.156398104 418.227488152 729.156398104 430.113744076 694.578199052 c 128,-1,27
 442 660 442 660 454.5 622.5 c 128,-1,28
 467 585 467 585 481.5 545.5 c 128,-1,29
 496 506 496 506 521.5 431 c 128,-1,30
 547 356 547 356 551 345 c 1,31,32
 556 346 556 346 569 346 c 0,33,34
 603 346 603 346 625 326.5 c 128,-1,35
 647 307 647 307 647 279 c 0,36,37
 647 233 647 233 591 218 c 1,38,39
 647 73 647 73 647 50 c 128,-1,40
 647 27 647 27 628.5 8.5 c 128,-1,41
 610 -10 610 -10 580 -10 c 0,42,43
 535 -10 535 -10 514 40 c 0,44,45
 509 52 509 52 454 221 c 1,0,1
271 338 m 1,46,47
 296 336 296 336 345 336 c 128,-1,48
 394 336 394 336 419 338 c 1,49,50
 354 574 354 574 346 574 c 0,51,52
 339 574 339 574 288 397 c 2,53,-1
 271 338 l 1,46,47
EndSplineSet
EndChar

StartChar: C
Encoding: 67 67 98
Width: 704
Flags: HMW
HStem: -15 126<341.5 439.5 341.5 476.5> -15 189<302 622.5> 577 188<303.5 592.5> 638 127<342.5 427>
VStem: 63 142<308 445 308 483.5>
LayerCount: 2
Fore
SplineSet
659 121 m 0,0,1
 659 75 659 75 583 30 c 128,-1,2
 507 -15 507 -15 400 -15 c 0,3,4
 255 -15 255 -15 159 99 c 128,-1,5
 63 213 63 213 63 376 c 128,-1,6
 63 539 63 539 159.5 652 c 128,-1,7
 256 765 256 765 401 765 c 0,8,9
 493 765 493 765 566.5 727 c 128,-1,10
 640 689 640 689 640 641 c 0,11,12
 640 612 640 612 621 594.5 c 128,-1,13
 602 577 602 577 572.5 577 c 0,14,15
 543 577 543 577 499 607.5 c 0,16,17
 455 638 455 638 401 638 c 0,18,19
 316 638 316 638 260.5 560.5 c 128,-1,20
 205 483 205 483 205 376.5 c 0,21,22
 205 270 205 270 260 190.5 c 128,-1,23
 315 111 315 111 396.5 111 c 0,24,25
 478 111 478 111 550 154 c 0,26,27
 583 174 583 174 606.5 174 c 0,28,29
 630 174 630 174 644.5 159 c 128,-1,30
 659 144 659 144 659 121 c 0,0,1
EndSplineSet
EndChar

StartChar: D
Encoding: 68 68 99
Width: 775
Flags: HMW
HStem: -15 126<317.5 411.5 317.5 462> 638 125<309 405.5>
VStem: 69 182 115 136<347.5 411> 572 141<310 441.5>
LayerCount: 2
Fore
SplineSet
115 375 m 1,0,-1
 110 603 l 1,1,2
 69 615 69 615 69 660 c 0,3,4
 69 690 69 690 112.5 715 c 128,-1,5
 156 740 156 740 212 751.5 c 128,-1,6
 268 763 268 763 318 763 c 0,7,8
 416 763 416 763 493.5 730 c 128,-1,9
 571 697 571 697 618 641.5 c 0,10,11
 713 529.319148936 713 529.319148936 713 372 c 0,12,13
 713 220.966666667 713 220.966666667 621 107.5 c 0,14,15
 576 52 576 52 500.5 18.5 c 128,-1,16
 425 -15 425 -15 321 -15 c 128,-1,17
 217 -15 217 -15 141 15 c 128,-1,18
 65 45 65 45 65 90 c 128,-1,19
 65 135 65 135 112 146 c 1,20,-1
 115 375 l 1,0,-1
572 376 m 0,21,22
 572 484 572 484 506.5 561 c 128,-1,23
 441 638 441 638 318 638 c 0,24,25
 284 638 284 638 254 629 c 1,26,27
 251 568 251 568 251 379 c 128,-1,28
 251 190 251 190 255 118 c 1,29,30
 287 111 287 111 327 111 c 0,31,32
 408 111 408 111 465 150.5 c 0,33,34
 572 224.649122807 572 224.649122807 572 376 c 0,21,22
EndSplineSet
EndChar

StartChar: E
Encoding: 69 69 100
Width: 629
Flags: HMW
HStem: -6 134<478 528> 0 21G<322.5 374.5> 338 127<292.5 477.5> 628 128<155.5 372> 730 20G<315.5 369.5>
VStem: 52 200 97 155 114 138
LayerCount: 2
Fore
SplineSet
346 0 m 1,0,-1
 194 -6 l 1,1,2
 157 -6 157 -6 132.5 18 c 128,-1,3
 108 42 108 42 108 82 c 2,4,-1
 114 333 l 1,5,6
 52 342 52 342 52 398 c 0,7,8
 52 425 52 425 69 442 c 128,-1,9
 86 459 86 459 113 464 c 1,10,-1
 108 647 l 1,11,12
 97 668 97 668 97 695.5 c 0,13,14
 97 756 97 756 192 756 c 1,15,-1
 344 750 l 1,16,-1
 501 756 l 1,17,18
 539 756 539 756 561.5 737.5 c 128,-1,19
 584 719 584 719 584 688 c 128,-1,20
 584 657 584 657 561.5 639.5 c 128,-1,21
 539 622 539 622 501 622 c 1,22,-1
 344 628 l 1,23,24
 290 628 290 628 250 625 c 1,25,-1
 250 459 l 1,26,27
 266 458 266 458 293 458 c 1,28,-1
 454 465 l 1,29,30
 490 465 490 465 513 446.5 c 128,-1,31
 536 428 536 428 536 397.5 c 128,-1,32
 536 367 536 367 513 349.5 c 128,-1,33
 490 332 490 332 454 332 c 1,34,-1
 296 338 l 1,35,-1
 282 337.5 l 2,36,37
 268 337 268 337 250 337 c 1,38,39
 250 198 250 198 252 124 c 1,40,41
 279 122 279 122 346 122 c 1,42,-1
 503 128 l 1,43,44
 541 128 541 128 563.5 110.5 c 128,-1,45
 586 93 586 93 586 62 c 128,-1,46
 586 31 586 31 563.5 12.5 c 128,-1,47
 541 -6 541 -6 503 -6 c 1,48,-1
 346 0 l 1,0,-1
EndSplineSet
EndChar

StartChar: J
Encoding: 74 74 101
Width: 599
Flags: HMW
HStem: -15 127<209 271.5 209 304> -15 180<88 304> 621 135<187 231 187 236.5> 730 20G<310 353.5>
VStem: 352 136<218.5 320 158.5 326.5> 352 201
LayerCount: 2
Fore
SplineSet
332 750 m 1,0,-1
 471 756 l 1,1,2
 508 756 508 756 530.5 738 c 128,-1,3
 553 720 553 720 553 689 c 0,4,5
 553 635 553 635 489 623 c 1,6,7
 488 548 488 548 488 263 c 0,8,9
 488 188 488 188 467 132 c 128,-1,10
 446 76 446 76 410 45 c 0,11,12
 340.322580645 -15 340.322580645 -15 249.661290323 -15 c 128,-1,13
 159 -15 159 -15 101 23.5 c 128,-1,14
 43 62 43 62 43 103 c 0,15,16
 43 131 43 131 61 148 c 128,-1,17
 79 165 79 165 104.5 165 c 128,-1,18
 130 165 130 165 168 138.5 c 128,-1,19
 206 112 206 112 248 112 c 128,-1,20
 290 112 290 112 321 153 c 128,-1,21
 352 194 352 194 352 283 c 2,22,-1
 350 627 l 1,23,-1
 212 621 l 1,24,25
 174 621 174 621 152 639 c 128,-1,26
 130 657 130 657 130 688 c 128,-1,27
 130 719 130 719 152.5 737.5 c 128,-1,28
 175 756 175 756 212 756 c 1,29,-1
 332 750 l 1,0,-1
EndSplineSet
EndChar

StartChar: K
Encoding: 75 75 102
Width: 701
Flags: HMW
HStem: -10 21G<149 208 561 622.5> 313 156<262.5 306> 739 20G<149 208> 740 20G<521 564>
VStem: 102 152<68.5 132 68.5 149.5 618.5 680.5>
LayerCount: 2
Fore
SplineSet
254 650 m 0,0,1
 254 635 254 635 247 467 c 1,2,3
 281 469 281 469 292 469 c 128,-1,4
 303 469 303 469 343 464 c 1,5,6
 382 497 382 497 416 557 c 128,-1,7
 450 617 450 617 471 682 c 0,8,9
 495 760 495 760 546 760 c 0,10,11
 573 760 573 760 592.5 741.5 c 128,-1,12
 612 723 612 723 612 695 c 0,13,14
 612 636 612 636 563 542.5 c 128,-1,15
 514 449 514 449 453 383 c 1,16,17
 501 282 501 282 560 202 c 128,-1,18
 619 122 619 122 643 110 c 0,19,20
 649 107 649 107 660.5 105.5 c 128,-1,21
 672 104 672 104 677 99.5 c 128,-1,22
 682 95 682 95 682 81 c 0,23,24
 682 48 682 48 657.5 19 c 128,-1,25
 633 -10 633 -10 596 -10 c 128,-1,26
 559 -10 559 -10 528.5 14.5 c 128,-1,27
 498 39 498 39 455.5 103 c 128,-1,28
 413 167 413 167 326 319 c 1,29,30
 290 313 290 313 272.5 313 c 128,-1,31
 255 313 255 313 247 315 c 1,32,-1
 254 99 l 1,33,34
 254 -10 254 -10 178 -10 c 128,-1,35
 102 -10 102 -10 102 99 c 1,36,-1
 110 380 l 1,37,-1
 102 650 l 1,38,39
 102 759 102 759 178 759 c 128,-1,40
 254 759 254 759 254 650 c 0,0,1
EndSplineSet
EndChar

StartChar: M
Encoding: 77 77 103
Width: 906
Flags: HMW
HStem: -10 21G<150 208.5> -8 21G<703.5 762> 740 20G<160 197.5> 742 20G<714.5 752>
VStem: 106 149 657 152<69.5 142.5 69.5 143.5>
LayerCount: 2
Fore
SplineSet
801 374 m 1,0,-1
 809 100 l 1,1,2
 809 -8 809 -8 733 -8 c 128,-1,3
 657 -8 657 -8 657 100 c 0,4,5
 657 142 657 142 661.5 250 c 128,-1,6
 666 358 666 358 666 409 c 1,7,-1
 523 162 l 1,8,9
 496 112 496 112 455.5 112 c 128,-1,10
 415 112 415 112 389 160 c 1,11,-1
 246 407 l 1,12,-1
 255 98 l 1,13,14
 255 -10 255 -10 179 -10 c 128,-1,15
 103 -10 103 -10 103 98 c 1,16,-1
 111 372 l 1,17,-1
 106 678 l 2,18,19
 106 717 106 717 127.5 738.5 c 128,-1,20
 149 760 149 760 179 760 c 0,21,22
 223 760 223 760 249 710 c 0,23,24
 449 316 449 316 457 316 c 128,-1,25
 465 316 465 316 613.5 613 c 2,26,-1
 663 712 l 2,27,28
 689 762 689 762 733 762 c 0,29,30
 763 762 763 762 784.5 740.5 c 128,-1,31
 806 719 806 719 806 680 c 2,32,-1
 801 374 l 1,0,-1
EndSplineSet
EndChar

StartChar: N
Encoding: 78 78 104
Width: 765
Flags: HMW
HStem: -10 21G<151.5 210 568.5 613.5> 740 20G<149.5 194 558 616.5>
VStem: 105 152<67.5 137 67.5 141.5> 511 147
LayerCount: 2
Fore
SplineSet
655 380 m 1,0,-1
 658 80 l 2,1,2
 658 -10 658 -10 583 -10 c 0,3,4
 539 -10 539 -10 514 31 c 2,5,-1
 252 470 l 1,6,7
 250 446 250 446 250 390 c 1,8,-1
 257 98 l 1,9,10
 257 -10 257 -10 181 -10 c 128,-1,11
 105 -10 105 -10 105 98 c 1,12,-1
 113 370 l 1,13,14
 113 407 113 407 109 505 c 128,-1,15
 105 603 105 603 105 671 c 0,16,17
 105 760 105 760 179 760 c 0,18,19
 230 760 230 760 253 720 c 2,20,-1
 520 262 l 1,21,-1
 519 380 l 1,22,-1
 511 652 l 1,23,24
 511 760 511 760 587 760 c 128,-1,25
 663 760 663 760 663 652 c 1,26,-1
 655 380 l 1,0,-1
EndSplineSet
EndChar

StartChar: R
Encoding: 82 82 105
Width: 699
Flags: HMW
HStem: -11 21G<575 609.5> -10 21G<148.5 207> 278 151<304.5 325> 638 127<317 381.5>
VStem: 62 192 110 144 485 142<498.5 557>
LayerCount: 2
Fore
SplineSet
102 98 m 1,0,-1
 110 370 l 1,1,2
 110 446 110 446 104 596 c 1,3,4
 62 613 62 613 62 654 c 0,5,6
 62 682 62 682 92.5 704.5 c 128,-1,7
 123 727 123 727 167.5 739.5 c 0,8,9
 258.28 765 258.28 765 324 765 c 0,10,11
 473 765 473 765 550 696.5 c 128,-1,12
 627 628 627 628 627 529 c 0,13,14
 627 471 627 471 591 414.5 c 128,-1,15
 555 358 555 358 495 323 c 1,16,17
 595 124 595 124 641 109 c 0,18,19
 647 107 647 107 655 104.5 c 128,-1,20
 663 102 663 102 665 101 c 128,-1,21
 667 100 667 100 671 98.5 c 128,-1,22
 675 97 675 97 675.5 94.5 c 0,23,24
 677 87 677 87 677 78 c 0,25,26
 677 40 677 40 649.5 14.5 c 128,-1,27
 622 -11 622 -11 588 -11 c 0,28,29
 534 -11 534 -11 483 58.5 c 128,-1,30
 432 128 432 128 363 280 c 1,31,32
 337 278 337 278 305.5 278 c 128,-1,33
 274 278 274 278 246 284 c 1,34,35
 254 148 254 148 254 98 c 0,36,37
 254 -10 254 -10 178 -10 c 128,-1,38
 102 -10 102 -10 102 98 c 1,0,-1
246 419 m 1,39,40
 279 429 279 429 321.5 429 c 128,-1,41
 364 429 364 429 408 416 c 1,42,43
 435 427 435 427 460 458 c 128,-1,44
 485 489 485 489 485 523 c 0,45,46
 485 576 485 576 445 607 c 128,-1,47
 405 638 405 638 329 638 c 0,48,49
 295 638 295 638 251 626 c 1,50,51
 246 441 246 441 246 419 c 1,39,40
EndSplineSet
EndChar

StartChar: U
Encoding: 85 85 106
Width: 743
Flags: HMW
HStem: -15 126<313.5 429.5 313.5 464.5> 740 20G<133 192> 741 20G<550 609>
VStem: 86 145 504 142
LayerCount: 2
Fore
SplineSet
656 652 m 1,0,-1
 646 256 l 1,1,2
 646 144 646 144 574.5 64.5 c 128,-1,3
 503 -15 503 -15 371 -15 c 128,-1,4
 239 -15 239 -15 167.5 64 c 128,-1,5
 96 143 96 143 96 255 c 1,6,-1
 86 651 l 1,7,8
 86 760 86 760 162 760 c 128,-1,9
 238 760 238 760 238 651 c 1,10,-1
 231 330 l 1,11,12
 231 170.74137931 231 170.74137931 301 128.5 c 0,13,14
 330 111 330 111 371.5 111 c 128,-1,15
 413 111 413 111 441.5 128.5 c 128,-1,16
 470 146 470 146 484.5 178.5 c 0,17,18
 511 237.896551724 511 237.896551724 511 331 c 1,19,-1
 504 652 l 1,20,21
 504 761 504 761 580 761 c 128,-1,22
 656 761 656 761 656 652 c 1,0,-1
EndSplineSet
EndChar

StartChar: Y
Encoding: 89 89 107
Width: 602
Flags: HMW
HStem: -10 21G<269.5 328> 740 20G<65.5 124.5 479.5 538>
VStem: 223 152<67.5 128 67.5 129.5>
LayerCount: 2
Fore
SplineSet
223 98 m 0,0,1
 223 146 223 146 230 293 c 1,2,3
 198 358 198 358 142 451.5 c 128,-1,4
 86 545 86 545 53 604.5 c 128,-1,5
 20 664 20 664 20 692.5 c 128,-1,6
 20 721 20 721 37.5 740.5 c 128,-1,7
 55 760 55 760 82.5 760 c 128,-1,8
 110 760 110 760 125 750.5 c 128,-1,9
 140 741 140 741 157 713.5 c 128,-1,10
 174 686 174 686 189 655 c 0,11,12
 250.216216216 528.486486486 250.216216216 528.486486486 303 438 c 1,13,14
 360.441176471 538.111764706 360.441176471 538.111764706 396.220588235 612.055882353 c 128,-1,15
 432 686 432 686 448.5 713.5 c 128,-1,16
 465 741 465 741 479.5 750.5 c 128,-1,17
 494 760 494 760 520.5 760 c 128,-1,18
 547 760 547 760 564.5 739.5 c 128,-1,19
 582 719 582 719 582 692.5 c 128,-1,20
 582 666 582 666 548 605.5 c 128,-1,21
 514 545 514 545 457 451.5 c 128,-1,22
 400 358 400 358 368 292 c 1,23,24
 375 159 375 159 375 98 c 0,25,26
 375 -10 375 -10 299 -10 c 128,-1,27
 223 -10 223 -10 223 98 c 0,0,1
EndSplineSet
EndChar

StartChar: dotlessi
Encoding: 305 305 108
Width: 490
Flags: HMW
HStem: -7 133<100 130 100 147.5> -6 21G<349.5 393.5> 0 21G<227.5 269> 623 133<100 130.5 363.5 393.5> 730 20G<224 266.5>
VStem: 179 136<331 417.5>
LayerCount: 2
Fore
SplineSet
125 756 m 1,0,-1
 247 750 l 1,1,-1
 369 756 l 1,2,3
 406 756 406 756 428.5 738 c 128,-1,4
 451 720 451 720 451 689.5 c 128,-1,5
 451 659 451 659 428.5 641 c 128,-1,6
 406 623 406 623 369 623 c 1,7,-1
 322 626 l 1,8,9
 315 478 315 478 315 374.5 c 128,-1,10
 315 271 315 271 322 123 c 1,11,12
 358 127 358 127 369 127 c 0,13,14
 406 127 406 127 428.5 109 c 128,-1,15
 451 91 451 91 451 60.5 c 128,-1,16
 451 30 451 30 428.5 12 c 128,-1,17
 406 -6 406 -6 369 -6 c 1,18,-1
 247 0 l 1,19,-1
 125 -7 l 1,20,21
 87 -7 87 -7 64.5 11 c 128,-1,22
 42 29 42 29 42 60 c 128,-1,23
 42 91 42 91 64.5 108.5 c 128,-1,24
 87 126 87 126 125 126 c 1,25,-1
 172 122 l 1,26,27
 179 270 179 270 179 374 c 128,-1,28
 179 478 179 478 172 626 c 1,29,30
 142 623 142 623 114.5 623 c 128,-1,31
 87 623 87 623 64.5 640.5 c 128,-1,32
 42 658 42 658 42 689 c 128,-1,33
 42 720 42 720 64.5 738 c 128,-1,34
 87 756 87 756 125 756 c 1,0,-1
EndSplineSet
EndChar

StartChar: Egrave
Encoding: 200 200 109
Width: 629
Flags: HMW
HStem: -6 134<478 528> 0 21G<322.5 374.5> 338 127<292.5 477.5> 628 128<155.5 372> 730 20G<315.5 369.5> 790 206<259.5 375.5>
VStem: 52 200 97 155 114 138 219 189<821 942>
LayerCount: 2
Fore
SplineSet
346 0 m 1,0,-1
 194 -6 l 1,1,2
 157 -6 157 -6 132.5 18 c 128,-1,3
 108 42 108 42 108 82 c 2,4,-1
 114 333 l 1,5,6
 52 342 52 342 52 398 c 0,7,8
 52 425 52 425 69 442 c 128,-1,9
 86 459 86 459 113 464 c 1,10,-1
 108 647 l 1,11,12
 97 668 97 668 97 695.5 c 0,13,14
 97 756 97 756 192 756 c 1,15,-1
 344 750 l 1,16,-1
 501 756 l 1,17,18
 539 756 539 756 561.5 737.5 c 128,-1,19
 584 719 584 719 584 688 c 128,-1,20
 584 657 584 657 561.5 639.5 c 128,-1,21
 539 622 539 622 501 622 c 1,22,-1
 344 628 l 1,23,24
 290 628 290 628 250 625 c 1,25,-1
 250 459 l 1,26,27
 266 458 266 458 293 458 c 1,28,-1
 454 465 l 1,29,30
 490 465 490 465 513 446.5 c 128,-1,31
 536 428 536 428 536 397.5 c 128,-1,32
 536 367 536 367 513 349.5 c 128,-1,33
 490 332 490 332 454 332 c 1,34,-1
 296 338 l 1,35,-1
 282 337.5 l 2,36,37
 268 337 268 337 250 337 c 1,38,39
 250 198 250 198 252 124 c 1,40,41
 279 122 279 122 346 122 c 1,42,-1
 503 128 l 1,43,44
 541 128 541 128 563.5 110.5 c 128,-1,45
 586 93 586 93 586 62 c 128,-1,46
 586 31 586 31 563.5 12.5 c 128,-1,47
 541 -6 541 -6 503 -6 c 1,48,-1
 346 0 l 1,0,-1
219 927 m 0,49,50
 219 953 219 953 235 974.5 c 128,-1,51
 251 996 251 996 274.5 996 c 128,-1,52
 298 996 298 996 310 991.5 c 128,-1,53
 322 987 322 987 330.5 977 c 128,-1,54
 339 967 339 967 343.5 959.5 c 128,-1,55
 348 952 348 952 355 935.5 c 128,-1,56
 362 919 362 919 364.5 914.5 c 128,-1,57
 367 910 367 910 387.5 879.5 c 128,-1,58
 408 849 408 849 408 832 c 128,-1,59
 408 815 408 815 395 802.5 c 128,-1,60
 382 790 382 790 359 790 c 0,61,62
 323 790 323 790 271 834 c 128,-1,63
 219 878 219 878 219 927 c 0,49,50
EndSplineSet
EndChar

StartChar: Ecircumflex
Encoding: 202 202 110
Width: 629
Flags: HMW
HStem: -6 134<478 528> 0 21G<322.5 374.5> 338 127<292.5 477.5> 628 128<155.5 372> 730 20G<315.5 369.5> 794 226<193.5 359>
VStem: 52 200 97 155 114 138
LayerCount: 2
Fore
SplineSet
346 0 m 1,0,-1
 194 -6 l 1,1,2
 157 -6 157 -6 132.5 18 c 128,-1,3
 108 42 108 42 108 82 c 2,4,-1
 114 333 l 1,5,6
 52 342 52 342 52 398 c 0,7,8
 52 425 52 425 69 442 c 128,-1,9
 86 459 86 459 113 464 c 1,10,-1
 108 647 l 1,11,12
 97 668 97 668 97 695.5 c 0,13,14
 97 756 97 756 192 756 c 1,15,-1
 344 750 l 1,16,-1
 501 756 l 1,17,18
 539 756 539 756 561.5 737.5 c 128,-1,19
 584 719 584 719 584 688 c 128,-1,20
 584 657 584 657 561.5 639.5 c 128,-1,21
 539 622 539 622 501 622 c 1,22,-1
 344 628 l 1,23,24
 290 628 290 628 250 625 c 1,25,-1
 250 459 l 1,26,27
 266 458 266 458 293 458 c 1,28,-1
 454 465 l 1,29,30
 490 465 490 465 513 446.5 c 128,-1,31
 536 428 536 428 536 397.5 c 128,-1,32
 536 367 536 367 513 349.5 c 128,-1,33
 490 332 490 332 454 332 c 1,34,-1
 296 338 l 1,35,-1
 282 337.5 l 2,36,37
 268 337 268 337 250 337 c 1,38,39
 250 198 250 198 252 124 c 1,40,41
 279 122 279 122 346 122 c 1,42,-1
 503 128 l 1,43,44
 541 128 541 128 563.5 110.5 c 128,-1,45
 586 93 586 93 586 62 c 128,-1,46
 586 31 586 31 563.5 12.5 c 128,-1,47
 541 -6 541 -6 503 -6 c 1,48,-1
 346 0 l 1,0,-1
298.5 1012.5 m 128,-1,50
 314 1020 314 1020 335.5 1020 c 128,-1,51
 357 1020 357 1020 372 1011 c 128,-1,52
 387 1002 387 1002 410.5 975 c 128,-1,53
 434 948 434 948 444.5 937.5 c 128,-1,54
 455 927 455 927 472.5 911 c 128,-1,55
 490 895 490 895 496 889 c 0,56,57
 513 872 513 872 513 850 c 128,-1,58
 513 828 513 828 495.5 810.5 c 128,-1,59
 478 793 478 793 453.5 793 c 128,-1,60
 429 793 429 793 403 817 c 128,-1,61
 377 841 377 841 358.5 865 c 128,-1,62
 340 889 340 889 332 889 c 128,-1,63
 324 889 324 889 305.5 865.5 c 0,64,65
 249.212765957 794 249.212765957 794 209 794 c 0,66,67
 186 794 186 794 168.5 811.5 c 128,-1,68
 151 829 151 829 151 846 c 128,-1,69
 151 863 151 863 156.5 873.5 c 128,-1,70
 162 884 162 884 168 890 c 128,-1,71
 174 896 174 896 191.5 912 c 128,-1,72
 209 928 209 928 220 939 c 128,-1,73
 231 950 231 950 248 968.5 c 128,-1,74
 265 987 265 987 274 996 c 128,-1,49
 283 1005 283 1005 298.5 1012.5 c 128,-1,50
EndSplineSet
EndChar

StartChar: Edieresis
Encoding: 203 203 111
Width: 629
Flags: HMW
HStem: -6 134<478 528> 0 21G<322.5 374.5> 338 127<292.5 477.5> 628 128<155.5 372> 730 20G<315.5 369.5> 808 164<196 237 434 475>
VStem: 52 200 97 155 114 138 140 154<873.5 907.5> 378 158
LayerCount: 2
Fore
SplineSet
346 0 m 1,0,-1
 194 -6 l 1,1,2
 157 -6 157 -6 132.5 18 c 128,-1,3
 108 42 108 42 108 82 c 2,4,-1
 114 333 l 1,5,6
 52 342 52 342 52 398 c 0,7,8
 52 425 52 425 69 442 c 128,-1,9
 86 459 86 459 113 464 c 1,10,-1
 108 647 l 1,11,12
 97 668 97 668 97 695.5 c 0,13,14
 97 756 97 756 192 756 c 1,15,-1
 344 750 l 1,16,-1
 501 756 l 1,17,18
 539 756 539 756 561.5 737.5 c 128,-1,19
 584 719 584 719 584 688 c 128,-1,20
 584 657 584 657 561.5 639.5 c 128,-1,21
 539 622 539 622 501 622 c 1,22,-1
 344 628 l 1,23,24
 290 628 290 628 250 625 c 1,25,-1
 250 459 l 1,26,27
 266 458 266 458 293 458 c 1,28,-1
 454 465 l 1,29,30
 490 465 490 465 513 446.5 c 128,-1,31
 536 428 536 428 536 397.5 c 128,-1,32
 536 367 536 367 513 349.5 c 128,-1,33
 490 332 490 332 454 332 c 1,34,-1
 296 338 l 1,35,-1
 282 337.5 l 2,36,37
 268 337 268 337 250 337 c 1,38,39
 250 198 250 198 252 124 c 1,40,41
 279 122 279 122 346 122 c 1,42,-1
 503 128 l 1,43,44
 541 128 541 128 563.5 110.5 c 128,-1,45
 586 93 586 93 586 62 c 128,-1,46
 586 31 586 31 563.5 12.5 c 128,-1,47
 541 -6 541 -6 503 -6 c 1,48,-1
 346 0 l 1,0,-1
512 949.5 m 128,-1,50
 532 927 532 927 532 894 c 128,-1,51
 532 861 532 861 509 834.5 c 128,-1,52
 486 808 486 808 451.5 808 c 128,-1,53
 417 808 417 808 397.5 831 c 128,-1,54
 378 854 378 854 378 887 c 128,-1,55
 378 920 378 920 400.5 946 c 128,-1,56
 423 972 423 972 457.5 972 c 128,-1,49
 492 972 492 972 512 949.5 c 128,-1,50
274 949.5 m 128,-1,58
 294 927 294 927 294 894 c 128,-1,59
 294 861 294 861 271 834.5 c 128,-1,60
 248 808 248 808 213.5 808 c 128,-1,61
 179 808 179 808 159.5 831 c 128,-1,62
 140 854 140 854 140 887 c 128,-1,63
 140 920 140 920 162.5 946 c 128,-1,64
 185 972 185 972 219.5 972 c 128,-1,57
 254 972 254 972 274 949.5 c 128,-1,58
EndSplineSet
EndChar

StartChar: Ntilde
Encoding: 209 209 112
Width: 765
Flags: HMW
HStem: -10 21G<151.5 210 568.5 613.5> 740 20G<149.5 194 558 616.5> 816 121 871 66 871 110 965 20G<267.5 341.5>
VStem: 105 152<67.5 137 67.5 141.5> 511 147
LayerCount: 2
Fore
SplineSet
655 380 m 1,0,-1
 658 80 l 2,1,2
 658 -10 658 -10 583 -10 c 0,3,4
 539 -10 539 -10 514 31 c 2,5,-1
 252 470 l 1,6,7
 250 446 250 446 250 390 c 1,8,-1
 257 98 l 1,9,10
 257 -10 257 -10 181 -10 c 128,-1,11
 105 -10 105 -10 105 98 c 1,12,-1
 113 370 l 1,13,14
 113 407 113 407 109 505 c 128,-1,15
 105 603 105 603 105 671 c 0,16,17
 105 760 105 760 179 760 c 0,18,19
 230 760 230 760 253 720 c 2,20,-1
 520 262 l 1,21,-1
 519 380 l 1,22,-1
 511 652 l 1,23,24
 511 760 511 760 587 760 c 128,-1,25
 663 760 663 760 663 652 c 1,26,-1
 655 380 l 1,0,-1
605 929 m 0,27,28
 605 895 605 895 563.5 858.5 c 128,-1,29
 522 822 522 822 484 822 c 128,-1,30
 446 822 446 822 395.5 846.5 c 128,-1,31
 345 871 345 871 329.5 871 c 128,-1,32
 314 871 314 871 283.5 843.5 c 128,-1,33
 253 816 253 816 226 816 c 128,-1,34
 199 816 199 816 181 834.5 c 128,-1,35
 163 853 163 853 163 880 c 0,36,37
 163 919 163 919 206 952 c 128,-1,38
 249 985 249 985 312 985 c 0,39,40
 344 985 344 985 398 961 c 128,-1,41
 452 937 452 937 474 937 c 128,-1,42
 496 937 496 937 520 959 c 128,-1,43
 544 981 544 981 562.5 981 c 128,-1,44
 581 981 581 981 593 966 c 128,-1,45
 605 951 605 951 605 929 c 0,27,28
EndSplineSet
EndChar

StartChar: Ldot
Encoding: 319 319 113
Width: 595
Flags: HMW
HStem: -6 134<456 503> 0 21G<317.5 366> 301 164<383 424> 740 20G<149 208>
VStem: 102 144 327 154<366.5 400.5>
LayerCount: 2
Fore
SplineSet
341 122 m 1,0,-1
 478 128 l 1,1,2
 516 128 516 128 538.5 110.5 c 128,-1,3
 561 93 561 93 561 62 c 128,-1,4
 561 31 561 31 538.5 12.5 c 128,-1,5
 516 -6 516 -6 478 -6 c 1,6,-1
 341 0 l 1,7,-1
 190 -6 l 1,8,9
 153 -6 153 -6 128.5 18 c 128,-1,10
 104 42 104 42 104 82 c 2,11,-1
 110 380 l 1,12,-1
 102 651 l 1,13,14
 102 760 102 760 178 760 c 128,-1,15
 254 760 254 760 254 651 c 1,16,-1
 246 380 l 1,17,18
 246 329 246 329 253 124 c 1,19,20
 305 122 305 122 341 122 c 1,0,-1
461 442.5 m 128,-1,22
 481 420 481 420 481 387 c 128,-1,23
 481 354 481 354 458 327.5 c 128,-1,24
 435 301 435 301 400.5 301 c 128,-1,25
 366 301 366 301 346.5 324 c 128,-1,26
 327 347 327 347 327 380 c 128,-1,27
 327 413 327 413 349.5 439 c 128,-1,28
 372 465 372 465 406.5 465 c 128,-1,21
 441 465 441 465 461 442.5 c 128,-1,22
EndSplineSet
EndChar

StartChar: parenright
Encoding: 41 41 114
Width: 364
Flags: HMW
HStem: -84 21G<71 122> 815 20G<67.5 133.5>
VStem: 174 138<261.5 494.5>
LayerCount: 2
Fore
SplineSet
275 600.5 m 128,-1,1
 312 495 312 495 312 397 c 128,-1,2
 312 299 312 299 287 208.5 c 128,-1,3
 262 118 262 118 226 55.5 c 128,-1,4
 190 -7 190 -7 152 -45.5 c 128,-1,5
 114 -84 114 -84 88.5 -84 c 128,-1,6
 63 -84 63 -84 49 -70.5 c 128,-1,7
 35 -57 35 -57 35 -38.5 c 128,-1,8
 35 -20 35 -20 56.5 14.5 c 128,-1,9
 78 49 78 49 104.5 90 c 128,-1,10
 131 131 131 131 152.5 204 c 128,-1,11
 174 277 174 277 174 364 c 128,-1,12
 174 451 174 451 150.5 524.5 c 128,-1,13
 127 598 127 598 99.5 634 c 128,-1,14
 72 670 72 670 48.5 706 c 128,-1,15
 25 742 25 742 25 768 c 128,-1,16
 25 794 25 794 42 814.5 c 128,-1,17
 59 835 59 835 89 835 c 0,18,19
 133 835 133 835 185.5 770.5 c 128,-1,0
 238 706 238 706 275 600.5 c 128,-1,1
EndSplineSet
EndChar

StartChar: greater
Encoding: 62 62 115
Width: 624
Flags: HMW
HStem: 142 21G<88 128> 592 20G<88 128>
VStem: 383 165<365.5 387.5>
LayerCount: 2
Fore
SplineSet
368 363.5 m 128,-1,1
 383 372 383 372 383 376.5 c 128,-1,2
 383 381 383 381 368 389.5 c 128,-1,3
 353 398 353 398 328 408.5 c 128,-1,4
 303 419 303 419 274 430.5 c 128,-1,5
 245 442 245 442 214 453 c 128,-1,6
 183 464 183 464 158.5 472 c 128,-1,7
 134 480 134 480 116 486.5 c 128,-1,8
 98 493 98 493 97 493 c 0,9,10
 45 514 45 514 45 555 c 0,11,12
 45 580 45 580 62 596 c 128,-1,13
 79 612 79 612 100 612 c 128,-1,14
 121 612 121 612 145 604.5 c 128,-1,15
 169 597 169 597 192 587.5 c 128,-1,16
 215 578 215 578 262.5 557 c 128,-1,17
 310 536 310 536 338.5 524.5 c 128,-1,18
 367 513 367 513 396.5 501.5 c 128,-1,19
 426 490 426 490 440.5 484.5 c 128,-1,20
 455 479 455 479 476 469 c 128,-1,21
 497 459 497 459 507 451 c 128,-1,22
 517 443 517 443 528.5 431.5 c 0,23,24
 548 412 548 412 548 376 c 0,25,26
 548 342.409090909 548 342.409090909 532.5 326.204545455 c 128,-1,27
 517 310 517 310 507 302 c 128,-1,28
 497 294 497 294 476 284.5 c 128,-1,29
 455 275 455 275 440.5 269 c 128,-1,30
 426 263 426 263 396.5 252 c 128,-1,31
 367 241 367 241 338.5 229.5 c 128,-1,32
 310 218 310 218 262.5 197 c 128,-1,33
 215 176 215 176 192 166.5 c 0,34,35
 132.684210526 142 132.684210526 142 105.842105263 142 c 128,-1,36
 79 142 79 142 62 158 c 128,-1,37
 45 174 45 174 45 199 c 0,38,39
 45 240 45 240 97 261 c 0,40,41
 98 261 98 261 116 267.5 c 128,-1,42
 134 274 134 274 158.5 282 c 128,-1,43
 183 290 183 290 214 301 c 128,-1,44
 245 312 245 312 274 323 c 128,-1,45
 303 334 303 334 328 344.5 c 128,-1,0
 353 355 353 355 368 363.5 c 128,-1,1
EndSplineSet
EndChar

StartChar: greaterequal
Encoding: 8805 8805 116
Width: 641
Flags: HMW
HStem: 49 123 50 21G<456 524> 682 20G<492 532>
VStem: 72 165<455.5 477.5 455.5 506>
LayerCount: 2
Fore
SplineSet
76.5 436.5 m 128,-1,1
 72 450 72 450 72 466.5 c 128,-1,2
 72 483 72 483 76 496.5 c 128,-1,3
 80 510 80 510 91.5 521.5 c 128,-1,4
 103 533 103 533 113 541 c 128,-1,5
 123 549 123 549 144 559 c 128,-1,6
 165 569 165 569 179.5 574.5 c 128,-1,7
 194 580 194 580 223.5 591.5 c 128,-1,8
 253 603 253 603 281.5 614.5 c 128,-1,9
 310 626 310 626 357.5 647 c 128,-1,10
 405 668 405 668 428 677.5 c 0,11,12
 487.315789474 702 487.315789474 702 514.157894737 702 c 128,-1,13
 541 702 541 702 558 686 c 128,-1,14
 575 670 575 670 575 645 c 0,15,16
 575 604 575 604 523 583 c 0,17,18
 522 583 522 583 504 576.5 c 128,-1,19
 486 570 486 570 461.5 562 c 128,-1,20
 437 554 437 554 406 543 c 128,-1,21
 375 532 375 532 346 520.5 c 128,-1,22
 317 509 317 509 292 498.5 c 0,23,24
 237 475.4 237 475.4 237 466 c 0,25,26
 237 450.967741935 237 450.967741935 406 391 c 0,27,28
 437 380 437 380 461.5 372 c 128,-1,29
 486 364 486 364 504 357.5 c 128,-1,30
 522 351 522 351 523 351 c 0,31,32
 575 330 575 330 575 289 c 0,33,34
 575 264 575 264 558 248 c 128,-1,35
 541 232 541 232 520 232 c 128,-1,36
 499 232 499 232 475 239.5 c 128,-1,37
 451 247 451 247 428 256.5 c 128,-1,38
 405 266 405 266 357.5 287 c 128,-1,39
 310 308 310 308 281.5 319.5 c 128,-1,40
 253 331 253 331 223.5 342 c 128,-1,41
 194 353 194 353 179.5 359 c 128,-1,42
 165 365 165 365 144 374.5 c 128,-1,43
 123 384 123 384 113 392 c 128,-1,44
 103 400 103 400 92 411.5 c 128,-1,0
 81 423 81 423 76.5 436.5 c 128,-1,1
323 54 m 1,45,-1
 144 49 l 2,46,47
 113 49 113 49 92.5 67 c 128,-1,48
 72 85 72 85 72 111 c 128,-1,49
 72 137 72 137 92.5 155 c 128,-1,50
 113 173 113 173 144 173 c 2,51,-1
 323 168 l 1,52,-1
 503 172 l 2,53,54
 534 172 534 172 555 154.5 c 128,-1,55
 576 137 576 137 576 111 c 128,-1,56
 576 85 576 85 555 67.5 c 128,-1,57
 534 50 534 50 503 50 c 2,58,-1
 323 54 l 1,45,-1
EndSplineSet
EndChar

StartChar: lessequal
Encoding: 8804 8804 117
Width: 641
Flags: HMW
HStem: 49 21G<470 518> 50 123 682 20G<109 149>
VStem: 404 165<455.5 477.5>
LayerCount: 2
Fore
SplineSet
565 496.5 m 128,-1,1
 569 483 569 483 569 466.5 c 128,-1,2
 569 450 569 450 564.5 436.5 c 128,-1,3
 560 423 560 423 549 411.5 c 128,-1,4
 538 400 538 400 528 392 c 128,-1,5
 518 384 518 384 497 374.5 c 128,-1,6
 476 365 476 365 461.5 359 c 128,-1,7
 447 353 447 353 417.5 342 c 128,-1,8
 388 331 388 331 359.5 319.5 c 128,-1,9
 331 308 331 308 283.5 287 c 128,-1,10
 236 266 236 266 213 256.5 c 0,11,12
 153.684210526 232 153.684210526 232 126.842105263 232 c 128,-1,13
 100 232 100 232 83 248 c 128,-1,14
 66 264 66 264 66 289 c 0,15,16
 66 330 66 330 118 351 c 0,17,18
 119 351 119 351 137 357.5 c 128,-1,19
 155 364 155 364 179.5 372 c 128,-1,20
 204 380 204 380 235 391 c 128,-1,21
 266 402 266 402 295 413 c 128,-1,22
 324 424 324 424 349 434.5 c 0,23,24
 404 457.6 404 457.6 404 466 c 0,25,26
 404 475.4 404 475.4 364 492.2 c 128,-1,27
 324 509 324 509 295 520.5 c 128,-1,28
 266 532 266 532 235 543 c 128,-1,29
 204 554 204 554 179.5 562 c 128,-1,30
 155 570 155 570 137 576.5 c 128,-1,31
 119 583 119 583 118 583 c 0,32,33
 66 604 66 604 66 645 c 0,34,35
 66 670 66 670 83 686 c 128,-1,36
 100 702 100 702 121 702 c 128,-1,37
 142 702 142 702 166 694.5 c 128,-1,38
 190 687 190 687 213 677.5 c 128,-1,39
 236 668 236 668 283.5 647 c 128,-1,40
 331 626 331 626 359.5 614.5 c 128,-1,41
 388 603 388 603 417.5 591.5 c 128,-1,42
 447 580 447 580 461.5 574.5 c 128,-1,43
 476 569 476 569 497 559 c 128,-1,44
 518 549 518 549 528 541 c 128,-1,45
 538 533 538 533 549.5 521.5 c 128,-1,0
 561 510 561 510 565 496.5 c 128,-1,1
318 168 m 1,46,-1
 497 173 l 2,47,48
 528 173 528 173 548.5 155 c 128,-1,49
 569 137 569 137 569 111 c 128,-1,50
 569 85 569 85 548.5 67 c 128,-1,51
 528 49 528 49 497 49 c 2,52,-1
 318 54 l 1,53,-1
 138 50 l 2,54,55
 107 50 107 50 86 67.5 c 128,-1,56
 65 85 65 85 65 111 c 128,-1,57
 65 137 65 137 86 154.5 c 128,-1,58
 107 172 107 172 138 172 c 2,59,-1
 318 168 l 1,46,-1
EndSplineSet
EndChar

StartChar: Ugrave
Encoding: 217 217 118
Width: 743
Flags: HMW
HStem: -15 126<313.5 429.5 313.5 464.5> 740 20G<133 192> 741 20G<550 609> 790 206<285.5 401.5>
VStem: 86 145 245 189<821 942> 504 142
LayerCount: 2
Fore
SplineSet
656 652 m 1,0,-1
 646 256 l 1,1,2
 646 144 646 144 574.5 64.5 c 128,-1,3
 503 -15 503 -15 371 -15 c 128,-1,4
 239 -15 239 -15 167.5 64 c 128,-1,5
 96 143 96 143 96 255 c 1,6,-1
 86 651 l 1,7,8
 86 760 86 760 162 760 c 128,-1,9
 238 760 238 760 238 651 c 1,10,-1
 231 330 l 1,11,12
 231 170.74137931 231 170.74137931 301 128.5 c 0,13,14
 330 111 330 111 371.5 111 c 128,-1,15
 413 111 413 111 441.5 128.5 c 128,-1,16
 470 146 470 146 484.5 178.5 c 0,17,18
 511 237.896551724 511 237.896551724 511 331 c 1,19,-1
 504 652 l 1,20,21
 504 761 504 761 580 761 c 128,-1,22
 656 761 656 761 656 652 c 1,0,-1
245 927 m 0,23,24
 245 953 245 953 261 974.5 c 128,-1,25
 277 996 277 996 300.5 996 c 128,-1,26
 324 996 324 996 336 991.5 c 128,-1,27
 348 987 348 987 356.5 977 c 128,-1,28
 365 967 365 967 369.5 959.5 c 128,-1,29
 374 952 374 952 381 935.5 c 128,-1,30
 388 919 388 919 390.5 914.5 c 128,-1,31
 393 910 393 910 413.5 879.5 c 128,-1,32
 434 849 434 849 434 832 c 128,-1,33
 434 815 434 815 421 802.5 c 128,-1,34
 408 790 408 790 385 790 c 0,35,36
 349 790 349 790 297 834 c 128,-1,37
 245 878 245 878 245 927 c 0,23,24
EndSplineSet
EndChar

StartChar: Ucircumflex
Encoding: 219 219 119
Width: 743
Flags: HMW
HStem: -15 126<313.5 429.5 313.5 464.5> 740 20G<133 192> 741 20G<550 609> 794 226<235.5 401>
VStem: 86 145 193 38 504 51 504 142
LayerCount: 2
Fore
SplineSet
656 652 m 1,0,-1
 646 256 l 1,1,2
 646 144 646 144 574.5 64.5 c 128,-1,3
 503 -15 503 -15 371 -15 c 128,-1,4
 239 -15 239 -15 167.5 64 c 128,-1,5
 96 143 96 143 96 255 c 1,6,-1
 86 651 l 1,7,8
 86 760 86 760 162 760 c 128,-1,9
 238 760 238 760 238 651 c 1,10,-1
 231 330 l 1,11,12
 231 170.74137931 231 170.74137931 301 128.5 c 0,13,14
 330 111 330 111 371.5 111 c 128,-1,15
 413 111 413 111 441.5 128.5 c 128,-1,16
 470 146 470 146 484.5 178.5 c 0,17,18
 511 237.896551724 511 237.896551724 511 331 c 1,19,-1
 504 652 l 1,20,21
 504 761 504 761 580 761 c 128,-1,22
 656 761 656 761 656 652 c 1,0,-1
340.5 1012.5 m 128,-1,24
 356 1020 356 1020 377.5 1020 c 128,-1,25
 399 1020 399 1020 414 1011 c 128,-1,26
 429 1002 429 1002 452.5 975 c 128,-1,27
 476 948 476 948 486.5 937.5 c 128,-1,28
 497 927 497 927 514.5 911 c 128,-1,29
 532 895 532 895 538 889 c 0,30,31
 555 872 555 872 555 850 c 128,-1,32
 555 828 555 828 537.5 810.5 c 128,-1,33
 520 793 520 793 495.5 793 c 128,-1,34
 471 793 471 793 445 817 c 128,-1,35
 419 841 419 841 400.5 865 c 128,-1,36
 382 889 382 889 374 889 c 128,-1,37
 366 889 366 889 347.5 865.5 c 0,38,39
 291.212765957 794 291.212765957 794 251 794 c 0,40,41
 228 794 228 794 210.5 811.5 c 128,-1,42
 193 829 193 829 193 846 c 128,-1,43
 193 863 193 863 198.5 873.5 c 128,-1,44
 204 884 204 884 210 890 c 128,-1,45
 216 896 216 896 233.5 912 c 128,-1,46
 251 928 251 928 262 939 c 128,-1,47
 273 950 273 950 290 968.5 c 128,-1,48
 307 987 307 987 316 996 c 128,-1,23
 325 1005 325 1005 340.5 1012.5 c 128,-1,24
EndSplineSet
EndChar

StartChar: Udieresis
Encoding: 220 220 120
Width: 743
Flags: HMW
HStem: -15 126<313.5 429.5 313.5 464.5> 740 20G<133 192> 741 20G<550 609> 807 164<230 271 468 509>
VStem: 86 145 174 154<872.5 906.5> 412 154<872.5 906.5> 504 142
LayerCount: 2
Fore
SplineSet
656 652 m 1,0,-1
 646 256 l 1,1,2
 646 144 646 144 574.5 64.5 c 128,-1,3
 503 -15 503 -15 371 -15 c 128,-1,4
 239 -15 239 -15 167.5 64 c 128,-1,5
 96 143 96 143 96 255 c 1,6,-1
 86 651 l 1,7,8
 86 760 86 760 162 760 c 128,-1,9
 238 760 238 760 238 651 c 1,10,-1
 231 330 l 1,11,12
 231 170.74137931 231 170.74137931 301 128.5 c 0,13,14
 330 111 330 111 371.5 111 c 128,-1,15
 413 111 413 111 441.5 128.5 c 128,-1,16
 470 146 470 146 484.5 178.5 c 0,17,18
 511 237.896551724 511 237.896551724 511 331 c 1,19,-1
 504 652 l 1,20,21
 504 761 504 761 580 761 c 128,-1,22
 656 761 656 761 656 652 c 1,0,-1
546 948.5 m 128,-1,24
 566 926 566 926 566 893 c 128,-1,25
 566 860 566 860 543 833.5 c 128,-1,26
 520 807 520 807 485.5 807 c 128,-1,27
 451 807 451 807 431.5 830 c 128,-1,28
 412 853 412 853 412 886 c 128,-1,29
 412 919 412 919 434.5 945 c 128,-1,30
 457 971 457 971 491.5 971 c 128,-1,23
 526 971 526 971 546 948.5 c 128,-1,24
308 948.5 m 128,-1,32
 328 926 328 926 328 893 c 128,-1,33
 328 860 328 860 305 833.5 c 128,-1,34
 282 807 282 807 247.5 807 c 128,-1,35
 213 807 213 807 193.5 830 c 128,-1,36
 174 853 174 853 174 886 c 128,-1,37
 174 919 174 919 196.5 945 c 128,-1,38
 219 971 219 971 253.5 971 c 128,-1,31
 288 971 288 971 308 948.5 c 128,-1,32
EndSplineSet
EndChar

StartChar: kcedilla
Encoding: 311 311 121
Width: 701
Flags: HMW
HStem: -252 206<206.5 322.5> -10 21G<149 208 561 622.5> 313 156<262.5 306> 739 20G<149 208> 740 20G<521 564>
VStem: 102 152<68.5 132 68.5 149.5 618.5 680.5> 174 192<-221 -100>
LayerCount: 2
Fore
SplineSet
366 -115 m 0,0,1
 366 -164 366 -164 312.5 -208 c 128,-1,2
 259 -252 259 -252 223 -252 c 0,3,4
 200 -252 200 -252 187 -239.5 c 128,-1,5
 174 -227 174 -227 174 -210 c 128,-1,6
 174 -193 174 -193 194.5 -162.5 c 128,-1,7
 215 -132 215 -132 217.5 -127.5 c 128,-1,8
 220 -123 220 -123 227 -106.5 c 128,-1,9
 234 -90 234 -90 238.5 -82.5 c 128,-1,10
 243 -75 243 -75 251.5 -65 c 0,11,12
 267.65 -46 267.65 -46 299.325 -46 c 128,-1,13
 331 -46 331 -46 348.5 -68 c 128,-1,14
 366 -90 366 -90 366 -115 c 0,0,1
254 650 m 0,15,16
 254 635 254 635 247 467 c 1,17,18
 281 469 281 469 292 469 c 128,-1,19
 303 469 303 469 343 464 c 1,20,21
 382 497 382 497 416 557 c 128,-1,22
 450 617 450 617 471 682 c 0,23,24
 495 760 495 760 546 760 c 0,25,26
 573 760 573 760 592.5 741.5 c 128,-1,27
 612 723 612 723 612 695 c 0,28,29
 612 636 612 636 563 542.5 c 128,-1,30
 514 449 514 449 453 383 c 1,31,32
 501 282 501 282 560 202 c 128,-1,33
 619 122 619 122 643 110 c 0,34,35
 649 107 649 107 660.5 105.5 c 128,-1,36
 672 104 672 104 677 99.5 c 128,-1,37
 682 95 682 95 682 81 c 0,38,39
 682 48 682 48 657.5 19 c 128,-1,40
 633 -10 633 -10 596 -10 c 128,-1,41
 559 -10 559 -10 528.5 14.5 c 128,-1,42
 498 39 498 39 455.5 103 c 128,-1,43
 413 167 413 167 326 319 c 1,44,45
 290 313 290 313 272.5 313 c 128,-1,46
 255 313 255 313 247 315 c 1,47,-1
 254 99 l 1,48,49
 254 -10 254 -10 178 -10 c 128,-1,50
 102 -10 102 -10 102 99 c 1,51,-1
 110 380 l 1,52,-1
 102 650 l 1,53,54
 102 759 102 759 178 759 c 128,-1,55
 254 759 254 759 254 650 c 0,15,16
EndSplineSet
EndChar

StartChar: Rcommaaccent
Encoding: 342 342 122
Width: 699
Flags: HMW
HStem: -252 206<204.5 320.5> -11 21G<575 609.5> -10 21G<148.5 207> 278 151<304.5 325> 638 127<317 381.5>
VStem: 62 192 110 144 172 192<-221 -100> 485 142<498.5 557>
LayerCount: 2
Fore
SplineSet
102 98 m 1,0,-1
 110 370 l 1,1,2
 110 446 110 446 104 596 c 1,3,4
 62 613 62 613 62 654 c 0,5,6
 62 682 62 682 92.5 704.5 c 128,-1,7
 123 727 123 727 167.5 739.5 c 0,8,9
 258.28 765 258.28 765 324 765 c 0,10,11
 473 765 473 765 550 696.5 c 128,-1,12
 627 628 627 628 627 529 c 0,13,14
 627 471 627 471 591 414.5 c 128,-1,15
 555 358 555 358 495 323 c 1,16,17
 595 124 595 124 641 109 c 0,18,19
 647 107 647 107 655 104.5 c 128,-1,20
 663 102 663 102 665 101 c 128,-1,21
 667 100 667 100 671 98.5 c 128,-1,22
 675 97 675 97 675.5 94.5 c 0,23,24
 677 87 677 87 677 78 c 0,25,26
 677 40 677 40 649.5 14.5 c 128,-1,27
 622 -11 622 -11 588 -11 c 0,28,29
 534 -11 534 -11 483 58.5 c 128,-1,30
 432 128 432 128 363 280 c 1,31,32
 337 278 337 278 305.5 278 c 128,-1,33
 274 278 274 278 246 284 c 1,34,35
 254 148 254 148 254 98 c 0,36,37
 254 -10 254 -10 178 -10 c 128,-1,38
 102 -10 102 -10 102 98 c 1,0,-1
246 419 m 1,39,40
 279 429 279 429 321.5 429 c 128,-1,41
 364 429 364 429 408 416 c 1,42,43
 435 427 435 427 460 458 c 128,-1,44
 485 489 485 489 485 523 c 0,45,46
 485 576 485 576 445 607 c 128,-1,47
 405 638 405 638 329 638 c 0,48,49
 295 638 295 638 251 626 c 1,50,51
 246 441 246 441 246 419 c 1,39,40
364 -115 m 0,52,53
 364 -164 364 -164 310.5 -208 c 128,-1,54
 257 -252 257 -252 221 -252 c 0,55,56
 198 -252 198 -252 185 -239.5 c 128,-1,57
 172 -227 172 -227 172 -210 c 128,-1,58
 172 -193 172 -193 192.5 -162.5 c 128,-1,59
 213 -132 213 -132 215.5 -127.5 c 128,-1,60
 218 -123 218 -123 225 -106.5 c 128,-1,61
 232 -90 232 -90 236.5 -82.5 c 128,-1,62
 241 -75 241 -75 249.5 -65 c 0,63,64
 265.65 -46 265.65 -46 297.325 -46 c 128,-1,65
 329 -46 329 -46 346.5 -68 c 128,-1,66
 364 -90 364 -90 364 -115 c 0,52,53
EndSplineSet
EndChar

StartChar: hbar
Encoding: 295 295 123
Width: 788
Flags: HMW
HStem: -10 21G<158.5 217.5 571 630> 328 125<258 419.5> 565 121 565 195 739 20G<168 211>
VStem: 22 242 55 209 119 145 525 151<67.5 135> 525 209 525 241
LayerCount: 2
Fore
SplineSet
112 98 m 1,0,-1
 119 320 l 1,1,2
 88 324 88 324 71.5 343.5 c 128,-1,3
 55 363 55 363 55 388.5 c 128,-1,4
 55 414 55 414 72.5 433 c 128,-1,5
 90 452 90 452 119 458 c 1,6,7
 119 473 119 473 114 565 c 1,8,-1
 95 565 l 2,9,10
 64 565 64 565 43 582.5 c 128,-1,11
 22 600 22 600 22 626 c 128,-1,12
 22 652 22 652 43 669.5 c 128,-1,13
 64 687 64 687 95 687 c 2,14,-1
 117 687 l 1,15,16
 132 759 132 759 190 759 c 128,-1,17
 248 759 248 759 261 685 c 1,18,19
 371 683 371 683 408.5 683 c 128,-1,20
 446 683 446 683 528 685 c 1,21,22
 542 760 542 760 600 760 c 128,-1,23
 658 760 658 760 671 688 c 1,24,-1
 693 686 l 1,25,26
 724 686 724 686 745 668.5 c 128,-1,27
 766 651 766 651 766 625 c 128,-1,28
 766 599 766 599 745 581.5 c 128,-1,29
 724 564 724 564 693 564 c 2,30,-1
 674 564 l 1,31,32
 671 496 671 496 669 458 c 1,33,34
 699 452 699 452 716.5 433 c 128,-1,35
 734 414 734 414 734 388 c 128,-1,36
 734 362 734 362 717 343 c 128,-1,37
 700 324 700 324 669 320 c 1,38,-1
 676 98 l 1,39,40
 676 -10 676 -10 600.5 -10 c 128,-1,41
 525 -10 525 -10 525 98 c 1,42,-1
 531 325 l 1,43,-1
 392 328 l 1,44,-1
 257 325 l 1,45,-1
 264 98 l 1,46,47
 264 -10 264 -10 188 -10 c 128,-1,48
 112 -10 112 -10 112 98 c 1,0,-1
258 453 m 1,49,-1
 392 450 l 1,50,51
 460 450 460 450 531 453 c 1,52,53
 531 464 531 464 526 567 c 1,54,55
 416 569 416 569 392 569 c 2,56,-1
 263 566 l 1,57,58
 263 548 263 548 261 510 c 2,59,-1
 258 453 l 1,49,-1
EndSplineSet
EndChar

StartChar: Jcircumflex
Encoding: 308 308 124
Width: 599
Flags: HMW
HStem: -15 127<209 271.5 209 304> -15 180<88 304> 621 135<187 231 187 236.5> 730 20G<310 353.5> 794 226<204.5 370>
VStem: 352 136<218.5 320 158.5 326.5> 352 201
LayerCount: 2
Fore
SplineSet
332 750 m 1,0,-1
 471 756 l 1,1,2
 508 756 508 756 530.5 738 c 128,-1,3
 553 720 553 720 553 689 c 0,4,5
 553 635 553 635 489 623 c 1,6,7
 488 548 488 548 488 263 c 0,8,9
 488 188 488 188 467 132 c 128,-1,10
 446 76 446 76 410 45 c 0,11,12
 340.322580645 -15 340.322580645 -15 249.661290323 -15 c 128,-1,13
 159 -15 159 -15 101 23.5 c 128,-1,14
 43 62 43 62 43 103 c 0,15,16
 43 131 43 131 61 148 c 128,-1,17
 79 165 79 165 104.5 165 c 128,-1,18
 130 165 130 165 168 138.5 c 128,-1,19
 206 112 206 112 248 112 c 128,-1,20
 290 112 290 112 321 153 c 128,-1,21
 352 194 352 194 352 283 c 2,22,-1
 350 627 l 1,23,-1
 212 621 l 1,24,25
 174 621 174 621 152 639 c 128,-1,26
 130 657 130 657 130 688 c 128,-1,27
 130 719 130 719 152.5 737.5 c 128,-1,28
 175 756 175 756 212 756 c 1,29,-1
 332 750 l 1,0,-1
309.5 1012.5 m 128,-1,31
 325 1020 325 1020 346.5 1020 c 128,-1,32
 368 1020 368 1020 383 1011 c 128,-1,33
 398 1002 398 1002 421.5 975 c 128,-1,34
 445 948 445 948 455.5 937.5 c 128,-1,35
 466 927 466 927 483.5 911 c 128,-1,36
 501 895 501 895 507 889 c 0,37,38
 524 872 524 872 524 850 c 128,-1,39
 524 828 524 828 506.5 810.5 c 128,-1,40
 489 793 489 793 464.5 793 c 128,-1,41
 440 793 440 793 414 817 c 128,-1,42
 388 841 388 841 369.5 865 c 128,-1,43
 351 889 351 889 343 889 c 128,-1,44
 335 889 335 889 316.5 865.5 c 0,45,46
 260.212765957 794 260.212765957 794 220 794 c 0,47,48
 197 794 197 794 179.5 811.5 c 128,-1,49
 162 829 162 829 162 846 c 128,-1,50
 162 863 162 863 167.5 873.5 c 128,-1,51
 173 884 173 884 179 890 c 128,-1,52
 185 896 185 896 202.5 912 c 128,-1,53
 220 928 220 928 231 939 c 128,-1,54
 242 950 242 950 259 968.5 c 128,-1,55
 276 987 276 987 285 996 c 128,-1,30
 294 1005 294 1005 309.5 1012.5 c 128,-1,31
EndSplineSet
EndChar

StartChar: jcircumflex
Encoding: 309 309 125
Width: 599
Flags: HMW
HStem: -15 127<209 271.5 209 304> -15 180<88 304> 621 135<187 231 187 236.5> 730 20G<310 353.5> 794 226<204.5 370>
VStem: 352 136<218.5 320 158.5 326.5> 352 201
LayerCount: 2
Fore
SplineSet
332 750 m 1,0,-1
 471 756 l 1,1,2
 508 756 508 756 530.5 738 c 128,-1,3
 553 720 553 720 553 689 c 0,4,5
 553 635 553 635 489 623 c 1,6,7
 488 548 488 548 488 263 c 0,8,9
 488 188 488 188 467 132 c 128,-1,10
 446 76 446 76 410 45 c 0,11,12
 340.322580645 -15 340.322580645 -15 249.661290323 -15 c 128,-1,13
 159 -15 159 -15 101 23.5 c 128,-1,14
 43 62 43 62 43 103 c 0,15,16
 43 131 43 131 61 148 c 128,-1,17
 79 165 79 165 104.5 165 c 128,-1,18
 130 165 130 165 168 138.5 c 128,-1,19
 206 112 206 112 248 112 c 128,-1,20
 290 112 290 112 321 153 c 128,-1,21
 352 194 352 194 352 283 c 2,22,-1
 350 627 l 1,23,-1
 212 621 l 1,24,25
 174 621 174 621 152 639 c 128,-1,26
 130 657 130 657 130 688 c 128,-1,27
 130 719 130 719 152.5 737.5 c 128,-1,28
 175 756 175 756 212 756 c 1,29,-1
 332 750 l 1,0,-1
309.5 1012.5 m 128,-1,31
 325 1020 325 1020 346.5 1020 c 128,-1,32
 368 1020 368 1020 383 1011 c 128,-1,33
 398 1002 398 1002 421.5 975 c 128,-1,34
 445 948 445 948 455.5 937.5 c 128,-1,35
 466 927 466 927 483.5 911 c 128,-1,36
 501 895 501 895 507 889 c 0,37,38
 524 872 524 872 524 850 c 128,-1,39
 524 828 524 828 506.5 810.5 c 128,-1,40
 489 793 489 793 464.5 793 c 128,-1,41
 440 793 440 793 414 817 c 128,-1,42
 388 841 388 841 369.5 865 c 128,-1,43
 351 889 351 889 343 889 c 128,-1,44
 335 889 335 889 316.5 865.5 c 0,45,46
 260.212765957 794 260.212765957 794 220 794 c 0,47,48
 197 794 197 794 179.5 811.5 c 128,-1,49
 162 829 162 829 162 846 c 128,-1,50
 162 863 162 863 167.5 873.5 c 128,-1,51
 173 884 173 884 179 890 c 128,-1,52
 185 896 185 896 202.5 912 c 128,-1,53
 220 928 220 928 231 939 c 128,-1,54
 242 950 242 950 259 968.5 c 128,-1,55
 276 987 276 987 285 996 c 128,-1,30
 294 1005 294 1005 309.5 1012.5 c 128,-1,31
EndSplineSet
EndChar

StartChar: ij
Encoding: 307 307 126
Width: 1045
Flags: HMW
HStem: -15 21G<629.5 750> -7 119 -7 133<100 130 100 147.5> -7 172 -6 21G<349.5 393.5> 0 21G<227.5 269> 623 133<100 130.5 363.5 393.5> 730 20G<224 266.5 756 799.5>
VStem: 179 136<331 417.5> 798 136<218.5 320 158.5 326.5> 798 201
LayerCount: 2
Fore
SplineSet
125 756 m 1,0,-1
 247 750 l 1,1,-1
 369 756 l 1,2,3
 406 756 406 756 428.5 738 c 128,-1,4
 451 720 451 720 451 689.5 c 128,-1,5
 451 659 451 659 428.5 641 c 128,-1,6
 406 623 406 623 369 623 c 1,7,-1
 322 626 l 1,8,9
 315 478 315 478 315 374.5 c 128,-1,10
 315 271 315 271 322 123 c 1,11,12
 358 127 358 127 369 127 c 0,13,14
 406 127 406 127 428.5 109 c 128,-1,15
 451 91 451 91 451 60.5 c 128,-1,16
 451 30 451 30 428.5 12 c 128,-1,17
 406 -6 406 -6 369 -6 c 1,18,-1
 247 0 l 1,19,-1
 125 -7 l 1,20,21
 87 -7 87 -7 64.5 11 c 128,-1,22
 42 29 42 29 42 60 c 128,-1,23
 42 91 42 91 64.5 108.5 c 128,-1,24
 87 126 87 126 125 126 c 1,25,-1
 172 122 l 1,26,27
 179 270 179 270 179 374 c 128,-1,28
 179 478 179 478 172 626 c 1,29,30
 142 623 142 623 114.5 623 c 128,-1,31
 87 623 87 623 64.5 640.5 c 128,-1,32
 42 658 42 658 42 689 c 128,-1,33
 42 720 42 720 64.5 738 c 128,-1,34
 87 756 87 756 125 756 c 1,0,-1
778 750 m 1,35,-1
 917 756 l 1,36,37
 954 756 954 756 976.5 738 c 128,-1,38
 999 720 999 720 999 689 c 0,39,40
 999 635 999 635 935 623 c 1,41,42
 934 548 934 548 934 263 c 0,43,44
 934 188 934 188 913 132 c 128,-1,45
 892 76 892 76 856 45 c 0,46,47
 786.322580645 -15 786.322580645 -15 695.661290323 -15 c 128,-1,48
 605 -15 605 -15 547 23.5 c 128,-1,49
 489 62 489 62 489 103 c 0,50,51
 489 131 489 131 507 148 c 128,-1,52
 525 165 525 165 550.5 165 c 128,-1,53
 576 165 576 165 614 138.5 c 128,-1,54
 652 112 652 112 694 112 c 128,-1,55
 736 112 736 112 767 153 c 128,-1,56
 798 194 798 194 798 283 c 2,57,-1
 796 627 l 1,58,-1
 658 621 l 1,59,60
 620 621 620 621 598 639 c 128,-1,61
 576 657 576 657 576 688 c 128,-1,62
 576 719 576 719 598.5 737.5 c 128,-1,63
 621 756 621 756 658 756 c 1,64,-1
 778 750 l 1,35,-1
EndSplineSet
EndChar

StartChar: bracketright
Encoding: 93 93 127
Width: 452
Flags: HMW
HStem: -87 21G<277.5 316.5> -86 129<90 127.5> 709 130 818 20G<90 130.5>
VStem: 230 140
LayerCount: 2
Fore
SplineSet
202 -83 m 1,0,-1
 114 -86 l 1,1,2
 77 -86 77 -86 54 -68.5 c 128,-1,3
 31 -51 31 -51 31 -21.5 c 128,-1,4
 31 8 31 8 54.5 25.5 c 128,-1,5
 78 43 78 43 114 43 c 1,6,-1
 224 39 l 1,7,8
 230 212 230 212 230 379 c 128,-1,9
 230 546 230 546 224 712 c 1,10,11
 114 709 l 2,12,13
 78 709 78 709 54.5 727 c 128,-1,14
 31 745 31 745 31 773.5 c 128,-1,15
 31 802 31 802 54.5 820 c 128,-1,16
 78 838 78 838 114 838 c 1,17,-1
 202 835 l 1,18,-1
 294 839 l 1,19,20
 329 839 329 839 350 819.5 c 128,-1,21
 371 800 371 800 371 763 c 2,22,-1
 365 375 l 1,23,-1
 370 -11 l 2,24,25
 370 -46 370 -46 349 -66.5 c 128,-1,26
 328 -87 328 -87 294 -87 c 1,27,-1
 202 -83 l 1,0,-1
EndSplineSet
EndChar

StartChar: backslash
Encoding: 92 92 128
Width: 452
Flags: HMW
HStem: -84 21G<294.5 341.5> 819 20G<111.5 158>
LayerCount: 2
Fore
SplineSet
212 742 m 1,0,1
 272 468 272 468 294.5 372.5 c 128,-1,2
 317 277 317 277 343.5 183 c 128,-1,3
 370 89 370 89 380.5 50 c 128,-1,4
 391 11 391 11 391 -16 c 128,-1,5
 391 -43 391 -43 371.5 -63.5 c 128,-1,6
 352 -84 352 -84 324 -84 c 128,-1,7
 296 -84 296 -84 278.5 -67 c 128,-1,8
 261 -50 261 -50 254 -32 c 128,-1,9
 247 -14 247 -14 217.5 121.5 c 128,-1,10
 188 257 188 257 162 366.5 c 128,-1,11
 136 476 136 476 109 571.5 c 128,-1,12
 82 667 82 667 72 705.5 c 128,-1,13
 62 744 62 744 62 771 c 128,-1,14
 62 798 62 798 81.5 818.5 c 128,-1,15
 101 839 101 839 132 839 c 0,16,17
 189 839 189 839 212 742 c 1,0,1
EndSplineSet
EndChar

StartChar: braceright
Encoding: 125 125 129
Width: 405
Flags: HMW
HStem: -89 21G<94 155> 284 178<287 313 286 314> 815 20G<93 154>
VStem: 47 217<-43 227> 121 143<190 227 190 263.5> 134 144<52.5 86.5 8.5 97>
LayerCount: 2
Fore
SplineSet
159 374 m 1,0,1
 120 424 120 424 120 530 c 0,2,3
 120 564 120 564 126.5 608 c 128,-1,4
 133 652 133 652 133 668 c 128,-1,5
 133 684 133 684 119.5 694.5 c 128,-1,6
 106 705 106 705 89.5 709 c 128,-1,7
 73 713 73 713 59.5 728.5 c 128,-1,8
 46 744 46 744 46 771.5 c 128,-1,9
 46 799 46 799 64.5 817 c 128,-1,10
 83 835 83 835 114 835 c 0,11,12
 180 835 180 835 228.5 796.5 c 128,-1,13
 277 758 277 758 277 687 c 0,14,15
 277 659 277 659 270 607.5 c 128,-1,16
 263 556 263 556 263 519 c 128,-1,17
 263 482 263 482 270 460 c 1,18,19
 282 462 282 462 289 462 c 0,20,21
 329 462 329 462 357.5 439 c 128,-1,22
 386 416 386 416 386 373 c 128,-1,23
 386 330 386 330 357.5 307 c 128,-1,24
 329 284 329 284 290 284 c 0,25,26
 283 284 283 284 271 286 c 1,27,28
 264 264 264 264 264 227 c 128,-1,29
 264 190 264 190 271 138.5 c 128,-1,30
 278 87 278 87 278 59 c 0,31,32
 278 -12 278 -12 229.5 -50.5 c 128,-1,33
 181 -89 181 -89 115 -89 c 0,34,35
 84 -89 84 -89 65.5 -71 c 128,-1,36
 47 -53 47 -53 47 -25.5 c 128,-1,37
 47 2 47 2 60.5 17.5 c 128,-1,38
 74 33 74 33 90.5 37 c 0,39,40
 134 47.5454545455 134 47.5454545455 134 80 c 0,41,42
 134 94 134 94 127.5 138 c 128,-1,43
 121 182 121 182 121 216 c 0,44,45
 121 325 121 325 159 374 c 1,0,1
EndSplineSet
EndChar

StartChar: guilsinglright
Encoding: 8250 8250 130
Width: 353
Flags: HMW
HStem: 184 21G<109.5 142.5> 547 20G<109.5 142.5>
VStem: 67 236<226.5 402.5 349 524.5>
LayerCount: 2
Fore
SplineSet
120 317 m 0,0,1
 172 362 172 362 172 375.5 c 128,-1,2
 172 389 172 389 120 434 c 0,3,4
 101 450 101 450 92.5 458.5 c 0,5,6
 67 484 67 484 67 508 c 128,-1,7
 67 532 67 532 84.5 549.5 c 128,-1,8
 102 567 102 567 120 567 c 128,-1,9
 138 567 138 567 149.5 560.5 c 128,-1,10
 161 554 161 554 168 547 c 128,-1,11
 175 540 175 540 192 520.5 c 128,-1,12
 209 501 209 501 221 489 c 128,-1,13
 233 477 233 477 251.5 460 c 128,-1,14
 270 443 270 443 279 434.5 c 128,-1,15
 288 426 288 426 295.5 410.5 c 128,-1,16
 303 395 303 395 303 376 c 128,-1,17
 303 357 303 357 295.5 341.5 c 128,-1,18
 288 326 288 326 279 317 c 128,-1,19
 270 308 270 308 251.5 291 c 128,-1,20
 233 274 233 274 221 262 c 128,-1,21
 209 250 209 250 192 230.5 c 128,-1,22
 175 211 175 211 168 204 c 0,23,24
 148 184 148 184 125 184 c 128,-1,25
 102 184 102 184 84.5 201.5 c 128,-1,26
 67 219 67 219 67 237.5 c 128,-1,27
 67 256 67 256 75.5 270 c 128,-1,28
 84 284 84 284 92.5 292.5 c 128,-1,29
 101 301 101 301 120 317 c 0,0,1
EndSplineSet
EndChar

StartChar: exclamdown
Encoding: 161 161 131
Width: 314
Flags: HMW
HStem: -85 21G<134 180> 526 164<137 178>
VStem: 90 141<-18.5 249.5>
LayerCount: 2
Fore
SplineSet
90 214 m 1,0,-1
 89 363 l 2,1,2
 89 402 89 402 107.5 425 c 128,-1,3
 126 448 126 448 157.5 448 c 128,-1,4
 189 448 189 448 207.5 425 c 128,-1,5
 226 402 226 402 226 363 c 2,6,7
 224 214 l 1,8,-1
 231 13 l 1,9,10
 231 -34 231 -34 211.5 -59.5 c 128,-1,11
 192 -85 192 -85 157 -85 c 128,-1,12
 122 -85 122 -85 102.5 -59.5 c 128,-1,13
 83 -34 83 -34 83 13 c 1,14,-1
 90 214 l 1,0,-1
100 548.5 m 128,-1,16
 80 571 80 571 80 604 c 128,-1,17
 80 637 80 637 103 663.5 c 128,-1,18
 126 690 126 690 160.5 690 c 128,-1,19
 195 690 195 690 214.5 667 c 128,-1,20
 234 644 234 644 234 611 c 128,-1,21
 234 578 234 578 211.5 552 c 128,-1,22
 189 526 189 526 154.5 526 c 128,-1,15
 120 526 120 526 100 548.5 c 128,-1,16
EndSplineSet
EndChar

StartChar: guillemotright
Encoding: 187 187 132
Width: 610
Flags: HMW
HStem: 184 21G<109.5 142.5 368.5 401.5> 547 20G<109.5 142.5 368.5 401.5>
VStem: 67 236<226.5 402.5 349 524.5> 326 236<226.5 402.5 349 524.5>
LayerCount: 2
Fore
SplineSet
379 317 m 0,0,1
 431 362 431 362 431 375.5 c 128,-1,2
 431 389 431 389 379 434 c 0,3,4
 360 450 360 450 351.5 458.5 c 0,5,6
 326 484 326 484 326 508 c 128,-1,7
 326 532 326 532 343.5 549.5 c 128,-1,8
 361 567 361 567 379 567 c 128,-1,9
 397 567 397 567 408.5 560.5 c 128,-1,10
 420 554 420 554 427 547 c 128,-1,11
 434 540 434 540 451 520.5 c 128,-1,12
 468 501 468 501 480 489 c 128,-1,13
 492 477 492 477 510.5 460 c 128,-1,14
 529 443 529 443 538 434.5 c 128,-1,15
 547 426 547 426 554.5 410.5 c 128,-1,16
 562 395 562 395 562 376 c 128,-1,17
 562 357 562 357 554.5 341.5 c 128,-1,18
 547 326 547 326 538 317 c 128,-1,19
 529 308 529 308 510.5 291 c 128,-1,20
 492 274 492 274 480 262 c 128,-1,21
 468 250 468 250 451 230.5 c 128,-1,22
 434 211 434 211 427 204 c 0,23,24
 407 184 407 184 384 184 c 128,-1,25
 361 184 361 184 343.5 201.5 c 128,-1,26
 326 219 326 219 326 237.5 c 128,-1,27
 326 256 326 256 334.5 270 c 128,-1,28
 343 284 343 284 351.5 292.5 c 128,-1,29
 360 301 360 301 379 317 c 0,0,1
120 317 m 0,30,31
 172 362 172 362 172 375.5 c 128,-1,32
 172 389 172 389 120 434 c 0,33,34
 101 450 101 450 92.5 458.5 c 0,35,36
 67 484 67 484 67 508 c 128,-1,37
 67 532 67 532 84.5 549.5 c 128,-1,38
 102 567 102 567 120 567 c 128,-1,39
 138 567 138 567 149.5 560.5 c 128,-1,40
 161 554 161 554 168 547 c 128,-1,41
 175 540 175 540 192 520.5 c 128,-1,42
 209 501 209 501 221 489 c 128,-1,43
 233 477 233 477 251.5 460 c 128,-1,44
 270 443 270 443 279 434.5 c 128,-1,45
 288 426 288 426 295.5 410.5 c 128,-1,46
 303 395 303 395 303 376 c 128,-1,47
 303 357 303 357 295.5 341.5 c 128,-1,48
 288 326 288 326 279 317 c 128,-1,49
 270 308 270 308 251.5 291 c 128,-1,50
 233 274 233 274 221 262 c 128,-1,51
 209 250 209 250 192 230.5 c 128,-1,52
 175 211 175 211 168 204 c 0,53,54
 148 184 148 184 125 184 c 128,-1,55
 102 184 102 184 84.5 201.5 c 128,-1,56
 67 219 67 219 67 237.5 c 128,-1,57
 67 256 67 256 75.5 270 c 128,-1,58
 84 284 84 284 92.5 292.5 c 128,-1,59
 101 301 101 301 120 317 c 0,30,31
EndSplineSet
EndChar

StartChar: acute
Encoding: 180 180 133
Width: 342
Flags: HMW
HStem: 540 206<107.5 223.5>
VStem: 75 189<571 692>
LayerCount: 2
Fore
SplineSet
264 677 m 0,0,1
 264 628 264 628 212 584 c 128,-1,2
 160 540 160 540 124 540 c 0,3,4
 101 540 101 540 88 552.5 c 128,-1,5
 75 565 75 565 75 582 c 128,-1,6
 75 599 75 599 95.5 629.5 c 128,-1,7
 116 660 116 660 118.5 664.5 c 128,-1,8
 121 669 121 669 128 685.5 c 128,-1,9
 135 702 135 702 139.5 709.5 c 128,-1,10
 144 717 144 717 152.5 727 c 0,11,12
 168.65 746 168.65 746 200.325 746 c 128,-1,13
 232 746 232 746 248 724.5 c 128,-1,14
 264 703 264 703 264 677 c 0,0,1
EndSplineSet
EndChar

StartChar: questiondown
Encoding: 191 191 134
Width: 539
Flags: HMW
HStem: -85 128<257 315.5 257 337> -85 206<213 447> 532 164<288 329>
VStem: 52 142<91.5 161.5 91.5 175.5> 238 135<358 419.5 330 420> 238 147
LayerCount: 2
Fore
SplineSet
52 113 m 0,0,1
 52 155 52 155 81 199.5 c 128,-1,2
 110 244 110 244 145 274 c 0,3,4
 238 353.714285714 238 353.714285714 238 392 c 0,5,6
 238 476 238 476 304 476 c 0,7,8
 334 476 334 476 353.5 454 c 128,-1,9
 373 432 373 432 373 395 c 128,-1,10
 373 358 373 358 354.5 325.5 c 128,-1,11
 336 293 336 293 310 267.5 c 128,-1,12
 284 242 284 242 257.5 218 c 0,13,14
 194 160.490566038 194 160.490566038 194 113 c 0,15,16
 194 82 194 82 219.5 62.5 c 128,-1,17
 245 43 245 43 277.5 43 c 128,-1,18
 310 43 310 43 334.5 62.5 c 128,-1,19
 359 82 359 82 380.5 101.5 c 128,-1,20
 402 121 402 121 429 121 c 128,-1,21
 456 121 456 121 473 102.5 c 128,-1,22
 490 84 490 84 490 59 c 0,23,24
 490 12 490 12 425 -36.5 c 128,-1,25
 360 -85 360 -85 282 -85 c 0,26,27
 180 -85 180 -85 116 -28 c 128,-1,28
 52 29 52 29 52 113 c 0,0,1
251 554.5 m 128,-1,30
 231 577 231 577 231 610 c 128,-1,31
 231 643 231 643 254 669.5 c 128,-1,32
 277 696 277 696 311.5 696 c 128,-1,33
 346 696 346 696 365.5 673 c 128,-1,34
 385 650 385 650 385 617 c 128,-1,35
 385 584 385 584 362.5 558 c 128,-1,36
 340 532 340 532 305.5 532 c 128,-1,29
 271 532 271 532 251 554.5 c 128,-1,30
EndSplineSet
EndChar

StartChar: ldot
Encoding: 320 320 135
Width: 595
Flags: HMW
HStem: -6 134<456 503> 0 21G<317.5 366> 301 164<383 424> 740 20G<149 208>
VStem: 102 144 327 154<366.5 400.5>
LayerCount: 2
Fore
SplineSet
341 122 m 1,0,-1
 478 128 l 1,1,2
 516 128 516 128 538.5 110.5 c 128,-1,3
 561 93 561 93 561 62 c 128,-1,4
 561 31 561 31 538.5 12.5 c 128,-1,5
 516 -6 516 -6 478 -6 c 1,6,-1
 341 0 l 1,7,-1
 190 -6 l 1,8,9
 153 -6 153 -6 128.5 18 c 128,-1,10
 104 42 104 42 104 82 c 2,11,-1
 110 380 l 1,12,-1
 102 651 l 1,13,14
 102 760 102 760 178 760 c 128,-1,15
 254 760 254 760 254 651 c 1,16,-1
 246 380 l 1,17,18
 246 329 246 329 253 124 c 1,19,20
 305 122 305 122 341 122 c 1,0,-1
461 442.5 m 128,-1,22
 481 420 481 420 481 387 c 128,-1,23
 481 354 481 354 458 327.5 c 128,-1,24
 435 301 435 301 400.5 301 c 128,-1,25
 366 301 366 301 346.5 324 c 128,-1,26
 327 347 327 347 327 380 c 128,-1,27
 327 413 327 413 349.5 439 c 128,-1,28
 372 465 372 465 406.5 465 c 128,-1,21
 441 465 441 465 461 442.5 c 128,-1,22
EndSplineSet
EndChar

StartChar: lslash
Encoding: 322 322 136
Width: 615
Flags: HMW
HStem: -6 134<473 520> 0 21G<334.5 383> 740 20G<166 225>
VStem: 14 249<317 420> 119 144
LayerCount: 2
Fore
SplineSet
358 122 m 1,0,-1
 495 128 l 1,1,2
 533 128 533 128 555.5 110.5 c 128,-1,3
 578 93 578 93 578 62 c 128,-1,4
 578 31 578 31 555.5 12.5 c 128,-1,5
 533 -6 533 -6 495 -6 c 1,6,-1
 358 0 l 1,7,-1
 207 -6 l 1,8,9
 170 -6 170 -6 145.5 18 c 128,-1,10
 121 42 121 42 121 82 c 0,11,12
 121 102 121 102 126 300 c 1,13,14
 99 277 99 277 73.5 277 c 128,-1,15
 48 277 48 277 31 293 c 128,-1,16
 14 309 14 309 14 328 c 128,-1,17
 14 347 14 347 22 362.5 c 128,-1,18
 30 378 30 378 46 393 c 128,-1,19
 62 408 62 408 73.5 417.5 c 0,20,21
 112.6 449.8 112.6 449.8 125 456 c 1,22,23
 119 642 119 642 119 651 c 0,24,25
 119 760 119 760 195 760 c 128,-1,26
 271 760 271 760 271 651 c 0,27,28
 271 604 271 604 270 581 c 1,29,30
 288 597 288 597 297 604.5 c 0,31,32
 321.6 625 321.6 625 346.3 625 c 128,-1,33
 371 625 371 625 389 608 c 128,-1,34
 407 591 407 591 407 571.5 c 128,-1,35
 407 552 407 552 399.5 537.5 c 128,-1,36
 392 523 392 523 375 507.5 c 128,-1,37
 358 492 358 492 343.5 480.5 c 128,-1,38
 329 469 329 469 303 450 c 128,-1,39
 277 431 277 431 263 420 c 1,40,41
 263 329 263 329 270 124 c 1,42,43
 322 122 322 122 358 122 c 1,0,-1
EndSplineSet
EndChar

StartChar: Kcommaaccent
Encoding: 310 310 137
Width: 701
Flags: HMW
HStem: -252 206<206.5 322.5> -10 21G<149 208 561 622.5> 313 156<262.5 306> 739 20G<149 208> 740 20G<521 564>
VStem: 102 152<68.5 132 68.5 149.5 618.5 680.5> 174 192<-221 -100>
LayerCount: 2
Fore
SplineSet
366 -115 m 0,0,1
 366 -164 366 -164 312.5 -208 c 128,-1,2
 259 -252 259 -252 223 -252 c 0,3,4
 200 -252 200 -252 187 -239.5 c 128,-1,5
 174 -227 174 -227 174 -210 c 128,-1,6
 174 -193 174 -193 194.5 -162.5 c 128,-1,7
 215 -132 215 -132 217.5 -127.5 c 128,-1,8
 220 -123 220 -123 227 -106.5 c 128,-1,9
 234 -90 234 -90 238.5 -82.5 c 128,-1,10
 243 -75 243 -75 251.5 -65 c 0,11,12
 267.65 -46 267.65 -46 299.325 -46 c 128,-1,13
 331 -46 331 -46 348.5 -68 c 128,-1,14
 366 -90 366 -90 366 -115 c 0,0,1
254 650 m 0,15,16
 254 635 254 635 247 467 c 1,17,18
 281 469 281 469 292 469 c 128,-1,19
 303 469 303 469 343 464 c 1,20,21
 382 497 382 497 416 557 c 128,-1,22
 450 617 450 617 471 682 c 0,23,24
 495 760 495 760 546 760 c 0,25,26
 573 760 573 760 592.5 741.5 c 128,-1,27
 612 723 612 723 612 695 c 0,28,29
 612 636 612 636 563 542.5 c 128,-1,30
 514 449 514 449 453 383 c 1,31,32
 501 282 501 282 560 202 c 128,-1,33
 619 122 619 122 643 110 c 0,34,35
 649 107 649 107 660.5 105.5 c 128,-1,36
 672 104 672 104 677 99.5 c 128,-1,37
 682 95 682 95 682 81 c 0,38,39
 682 48 682 48 657.5 19 c 128,-1,40
 633 -10 633 -10 596 -10 c 128,-1,41
 559 -10 559 -10 528.5 14.5 c 128,-1,42
 498 39 498 39 455.5 103 c 128,-1,43
 413 167 413 167 326 319 c 1,44,45
 290 313 290 313 272.5 313 c 128,-1,46
 255 313 255 313 247 315 c 1,47,-1
 254 99 l 1,48,49
 254 -10 254 -10 178 -10 c 128,-1,50
 102 -10 102 -10 102 99 c 1,51,-1
 110 380 l 1,52,-1
 102 650 l 1,53,54
 102 759 102 759 178 759 c 128,-1,55
 254 759 254 759 254 650 c 0,15,16
EndSplineSet
EndChar

StartChar: Rcaron
Encoding: 344 344 138
Width: 699
Flags: HMW
HStem: -11 21G<575 609.5> -10 21G<148.5 207> 278 151<304.5 325> 638 127<317 381.5> 803 131<317.5 338.5 317.5 355> 803 227<302 466.5> 1009 20G<189.5 234.5>
VStem: 62 192 110 144 485 142<498.5 557>
LayerCount: 2
Fore
SplineSet
102 98 m 1,0,-1
 110 370 l 1,1,2
 110 446 110 446 104 596 c 1,3,4
 62 613 62 613 62 654 c 0,5,6
 62 682 62 682 92.5 704.5 c 128,-1,7
 123 727 123 727 167.5 739.5 c 0,8,9
 258.28 765 258.28 765 324 765 c 0,10,11
 473 765 473 765 550 696.5 c 128,-1,12
 627 628 627 628 627 529 c 0,13,14
 627 471 627 471 591 414.5 c 128,-1,15
 555 358 555 358 495 323 c 1,16,17
 595 124 595 124 641 109 c 0,18,19
 647 107 647 107 655 104.5 c 128,-1,20
 663 102 663 102 665 101 c 128,-1,21
 667 100 667 100 671 98.5 c 128,-1,22
 675 97 675 97 675.5 94.5 c 0,23,24
 677 87 677 87 677 78 c 0,25,26
 677 40 677 40 649.5 14.5 c 128,-1,27
 622 -11 622 -11 588 -11 c 0,28,29
 534 -11 534 -11 483 58.5 c 128,-1,30
 432 128 432 128 363 280 c 1,31,32
 337 278 337 278 305.5 278 c 128,-1,33
 274 278 274 278 246 284 c 1,34,35
 254 148 254 148 254 98 c 0,36,37
 254 -10 254 -10 178 -10 c 128,-1,38
 102 -10 102 -10 102 98 c 1,0,-1
246 419 m 1,39,40
 279 429 279 429 321.5 429 c 128,-1,41
 364 429 364 429 408 416 c 1,42,43
 435 427 435 427 460 458 c 128,-1,44
 485 489 485 489 485 523 c 0,45,46
 485 576 485 576 445 607 c 128,-1,47
 405 638 405 638 329 638 c 0,48,49
 295 638 295 638 251 626 c 1,50,51
 246 441 246 441 246 419 c 1,39,40
362.5 810.5 m 128,-1,53
 347 803 347 803 328.5 803 c 128,-1,54
 310 803 310 803 294.5 810.5 c 128,-1,55
 279 818 279 818 270 827 c 128,-1,56
 261 836 261 836 244 854.5 c 128,-1,57
 227 873 227 873 216 884 c 128,-1,58
 205 895 205 895 187.5 911 c 128,-1,59
 170 927 170 927 164 933 c 0,60,61
 147 950 147 950 147 972 c 128,-1,62
 147 994 147 994 164.5 1011.5 c 128,-1,63
 182 1029 182 1029 206.5 1029 c 128,-1,64
 231 1029 231 1029 257 1005.5 c 128,-1,65
 283 982 283 982 301.5 958 c 128,-1,66
 320 934 320 934 328 934 c 128,-1,67
 336 934 336 934 354.5 958 c 0,68,69
 410 1030 410 1030 451 1030 c 0,70,71
 474 1030 474 1030 491.5 1012.5 c 128,-1,72
 509 995 509 995 509 978 c 128,-1,73
 509 961 509 961 503.5 950.5 c 128,-1,74
 498 940 498 940 492 934 c 128,-1,75
 486 928 486 928 468.5 912 c 128,-1,76
 451 896 451 896 439.5 885 c 128,-1,77
 428 874 428 874 412 855 c 128,-1,78
 396 836 396 836 387 827 c 128,-1,52
 378 818 378 818 362.5 810.5 c 128,-1,53
EndSplineSet
EndChar

StartChar: v
Encoding: 118 118 139
Width: 666
Flags: HMW
HStem: -10 21G<316 345.5> 740 20G<73 112.5 549.5 590>
LayerCount: 2
Fore
SplineSet
382.5 7 m 128,-1,1
 357 -10 357 -10 330.5 -10 c 128,-1,2
 304 -10 304 -10 278 8.5 c 128,-1,3
 252 27 252 27 239 66 c 0,4,5
 161.097759674 301.437881874 161.097759674 301.437881874 116.548879837 424.218940937 c 128,-1,6
 72 547 72 547 56 591.5 c 0,7,8
 30 663.8125 30 663.8125 30 689.90625 c 128,-1,9
 30 716 30 716 47 738 c 128,-1,10
 64 760 64 760 96 760 c 0,11,12
 149 760 149 760 169 698 c 0,13,14
 192 626 192 626 236 483.5 c 0,15,16
 324.463157895 197 324.463157895 197 331.731578947 197 c 128,-1,17
 339 197 339 197 391.5 356 c 128,-1,18
 444 515 444 515 496 690 c 0,19,20
 517 760 517 760 567 760 c 0,21,22
 600 760 600 760 619.5 739 c 128,-1,23
 639 718 639 718 639 695 c 128,-1,24
 639 672 639 672 617 609.5 c 128,-1,25
 595 547 595 547 536 387.5 c 128,-1,26
 477 228 477 228 421 63 c 0,27,0
 408 24 408 24 382.5 7 c 128,-1,1
EndSplineSet
EndChar

StartChar: Yacute
Encoding: 221 221 140
Width: 602
Flags: HMW
HStem: -10 21G<269.5 328> 740 20G<65.5 124.5 479.5 538> 790 206<267.5 383.5>
VStem: 223 152<67.5 128 67.5 129.5> 235 189<821 942>
LayerCount: 2
Fore
SplineSet
223 98 m 0,0,1
 223 146 223 146 230 293 c 1,2,3
 198 358 198 358 142 451.5 c 128,-1,4
 86 545 86 545 53 604.5 c 128,-1,5
 20 664 20 664 20 692.5 c 128,-1,6
 20 721 20 721 37.5 740.5 c 128,-1,7
 55 760 55 760 82.5 760 c 128,-1,8
 110 760 110 760 125 750.5 c 128,-1,9
 140 741 140 741 157 713.5 c 128,-1,10
 174 686 174 686 189 655 c 0,11,12
 250.216216216 528.486486486 250.216216216 528.486486486 303 438 c 1,13,14
 360.441176471 538.111764706 360.441176471 538.111764706 396.220588235 612.055882353 c 128,-1,15
 432 686 432 686 448.5 713.5 c 128,-1,16
 465 741 465 741 479.5 750.5 c 128,-1,17
 494 760 494 760 520.5 760 c 128,-1,18
 547 760 547 760 564.5 739.5 c 128,-1,19
 582 719 582 719 582 692.5 c 128,-1,20
 582 666 582 666 548 605.5 c 128,-1,21
 514 545 514 545 457 451.5 c 128,-1,22
 400 358 400 358 368 292 c 1,23,24
 375 159 375 159 375 98 c 0,25,26
 375 -10 375 -10 299 -10 c 128,-1,27
 223 -10 223 -10 223 98 c 0,0,1
424 927 m 0,28,29
 424 878 424 878 372 834 c 128,-1,30
 320 790 320 790 284 790 c 0,31,32
 261 790 261 790 248 802.5 c 128,-1,33
 235 815 235 815 235 832 c 128,-1,34
 235 849 235 849 255.5 879.5 c 128,-1,35
 276 910 276 910 278.5 914.5 c 128,-1,36
 281 919 281 919 288 935.5 c 128,-1,37
 295 952 295 952 299.5 959.5 c 128,-1,38
 304 967 304 967 312.5 977 c 0,39,40
 328.65 996 328.65 996 360.325 996 c 128,-1,41
 392 996 392 996 408 974.5 c 128,-1,42
 424 953 424 953 424 927 c 0,28,29
EndSplineSet
EndChar

StartChar: yacute
Encoding: 253 253 141
Width: 602
Flags: HMW
HStem: -10 21G<269.5 328> 740 20G<65.5 124.5 479.5 538> 790 206<267.5 383.5>
VStem: 223 152<67.5 128 67.5 129.5> 235 189<821 942>
LayerCount: 2
Fore
SplineSet
223 98 m 0,0,1
 223 146 223 146 230 293 c 1,2,3
 198 358 198 358 142 451.5 c 128,-1,4
 86 545 86 545 53 604.5 c 128,-1,5
 20 664 20 664 20 692.5 c 128,-1,6
 20 721 20 721 37.5 740.5 c 128,-1,7
 55 760 55 760 82.5 760 c 128,-1,8
 110 760 110 760 125 750.5 c 128,-1,9
 140 741 140 741 157 713.5 c 128,-1,10
 174 686 174 686 189 655 c 0,11,12
 250.216216216 528.486486486 250.216216216 528.486486486 303 438 c 1,13,14
 360.441176471 538.111764706 360.441176471 538.111764706 396.220588235 612.055882353 c 128,-1,15
 432 686 432 686 448.5 713.5 c 128,-1,16
 465 741 465 741 479.5 750.5 c 128,-1,17
 494 760 494 760 520.5 760 c 128,-1,18
 547 760 547 760 564.5 739.5 c 128,-1,19
 582 719 582 719 582 692.5 c 128,-1,20
 582 666 582 666 548 605.5 c 128,-1,21
 514 545 514 545 457 451.5 c 128,-1,22
 400 358 400 358 368 292 c 1,23,24
 375 159 375 159 375 98 c 0,25,26
 375 -10 375 -10 299 -10 c 128,-1,27
 223 -10 223 -10 223 98 c 0,0,1
424 927 m 0,28,29
 424 878 424 878 372 834 c 128,-1,30
 320 790 320 790 284 790 c 0,31,32
 261 790 261 790 248 802.5 c 128,-1,33
 235 815 235 815 235 832 c 128,-1,34
 235 849 235 849 255.5 879.5 c 128,-1,35
 276 910 276 910 278.5 914.5 c 128,-1,36
 281 919 281 919 288 935.5 c 128,-1,37
 295 952 295 952 299.5 959.5 c 128,-1,38
 304 967 304 967 312.5 977 c 0,39,40
 328.65 996 328.65 996 360.325 996 c 128,-1,41
 392 996 392 996 408 974.5 c 128,-1,42
 424 953 424 953 424 927 c 0,28,29
EndSplineSet
EndChar

StartChar: x
Encoding: 120 120 142
Width: 708
Flags: HMW
HStem: -13 21G<578 614.5> -9 21G<107.5 160.5> 740 20G<500.5 553.5> 742 20G<93.5 130>
LayerCount: 2
Fore
SplineSet
264 393 m 1,0,1
 167 548 167 548 120 602 c 1,2,3
 96.54375 630.66875 96.54375 630.66875 63.5 636.5 c 0,4,5
 55 638 55 638 50.5 640 c 0,6,7
 38 645.555555556 38 645.555555556 38 676.777777778 c 128,-1,8
 38 708 38 708 60.5 735 c 128,-1,9
 83 762 83 762 116 762 c 0,10,11
 173 762 173 762 222 691 c 1,12,-1
 341 504 l 1,13,14
 371 549 371 549 403 606.5 c 128,-1,15
 435 664 435 664 451 691.5 c 128,-1,16
 467 719 467 719 489 739.5 c 128,-1,17
 511 760 511 760 536.5 760 c 128,-1,18
 562 760 562 760 580.5 740.5 c 128,-1,19
 599 721 599 721 599 695.5 c 128,-1,20
 599 670 599 670 583 643 c 128,-1,21
 567 616 567 616 516.5 543 c 128,-1,22
 466 470 466 470 417 387 c 1,23,24
 531 213 531 213 588 147 c 0,25,26
 611.45625 118.33125 611.45625 118.33125 644.5 112.5 c 0,27,28
 653 111 653 111 657.5 109 c 0,29,30
 670 103.444444444 670 103.444444444 670 72.2222222222 c 128,-1,31
 670 41 670 41 647.5 14 c 128,-1,32
 625 -13 625 -13 592 -13 c 0,33,34
 536 -13 536 -13 487 58 c 2,35,-1
 338 276 l 1,36,37
 308.227272727 230.745454545 308.227272727 230.745454545 265.113636364 154.372727273 c 128,-1,38
 222 78 222 78 202.5 48.5 c 0,39,40
 164.491525424 -9 164.491525424 -9 126 -9 c 0,41,42
 99 -9 99 -9 80.5 10.5 c 128,-1,43
 62 30 62 30 62 55 c 128,-1,44
 62 80 62 80 83 115 c 128,-1,45
 104 150 104 150 159.5 230 c 128,-1,46
 215 310 215 310 264 393 c 1,0,1
EndSplineSet
EndChar

StartChar: w
Encoding: 119 119 143
Width: 953
Flags: HMW
HStem: -10 226<641 649.5 641 661> 740 20G<81.5 115.5 830 872.5>
LayerCount: 2
Fore
SplineSet
720 50 m 1,0,1
 708 19 708 19 689.5 4.5 c 128,-1,2
 671 -10 671 -10 639 -10 c 0,3,4
 581 -10 581 -10 556 63 c 0,5,6
 543 100 543 100 526 167 c 0,7,8
 487.432835821 319 487.432835821 319 481.71641791 319 c 128,-1,9
 476 319 476 319 459 258.5 c 128,-1,10
 442 198 442 198 437 179.5 c 0,11,12
 419.659574468 115.340425532 419.659574468 115.340425532 400.829787234 52.670212766 c 128,-1,13
 382 -10 382 -10 320 -10 c 128,-1,14
 258 -10 258 -10 239 47 c 1,15,16
 226 75 226 75 168 258.5 c 128,-1,17
 110 442 110 442 87 508.5 c 128,-1,18
 64 575 64 575 54 603 c 0,19,20
 32 664.6 32 664.6 32 695.3 c 128,-1,21
 32 726 32 726 51 743 c 128,-1,22
 70 760 70 760 99 760 c 0,23,24
 153 760 153 760 175 689 c 1,25,26
 195.96 615.64 195.96 615.64 245.98 455.82 c 0,27,28
 321.664122137 214 321.664122137 214 326.332061069 214 c 0,29,30
 333.744 214 333.744 214 382 402.5 c 2,31,-1
 398 465 l 1,32,33
 421 559 421 559 479 559 c 0,34,35
 516 559 516 559 536 535.5 c 128,-1,36
 556 512 556 512 568 465 c 0,37,38
 637 216 637 216 645 216 c 0,39,40
 654.627118644 216 654.627118644 216 781 682 c 0,41,42
 803 760 803 760 848 760 c 0,43,44
 882 760 882 760 900 739.5 c 128,-1,45
 918 719 918 719 918 698 c 128,-1,46
 918 677 918 677 912 651.5 c 128,-1,47
 906 626 906 626 898.5 603.5 c 128,-1,48
 891 581 891 581 875 533.5 c 128,-1,49
 859 486 859 486 843.5 437 c 128,-1,50
 828 388 828 388 800.5 301 c 0,51,52
 742.444444444 117.333333333 742.444444444 117.333333333 720 50 c 1,0,1
EndSplineSet
EndChar

StartChar: Agrave
Encoding: 192 192 144
Width: 692
Flags: HMW
HStem: -10 21G<94.5 129 565.5 601> 221 125 740 20G<319 385.5> 790 206<276.5 392.5>
VStem: 236 189<821 942>
LayerCount: 2
Fore
SplineSet
454 221 m 1,0,1
 376 225 376 225 325 225 c 128,-1,2
 274 225 274 225 235 223 c 1,3,4
 223 192 223 192 205.5 130.5 c 128,-1,5
 188 69 188 69 179 43 c 0,6,7
 161 -10 161 -10 113 -10 c 0,8,9
 85 -10 85 -10 68 7 c 128,-1,10
 51 24 51 24 51 54.5 c 128,-1,11
 51 85 51 85 103 220 c 1,12,13
 51 232 51 232 51 280 c 0,14,15
 51 345 51 345 144 345 c 1,16,17
 158 388 158 388 198 500 c 128,-1,18
 238 612 238 612 249.5 646.5 c 128,-1,19
 261 681 261 681 267.5 696 c 128,-1,20
 274 711 274 711 285 728 c 0,21,22
 305.705882353 760 305.705882353 760 348 760 c 0,23,24
 378.571428571 760 378.571428571 760 403 741 c 0,25,26
 418.227488152 729.156398104 418.227488152 729.156398104 430.113744076 694.578199052 c 128,-1,27
 442 660 442 660 454.5 622.5 c 128,-1,28
 467 585 467 585 481.5 545.5 c 128,-1,29
 496 506 496 506 521.5 431 c 128,-1,30
 547 356 547 356 551 345 c 1,31,32
 556 346 556 346 569 346 c 0,33,34
 603 346 603 346 625 326.5 c 128,-1,35
 647 307 647 307 647 279 c 0,36,37
 647 233 647 233 591 218 c 1,38,39
 647 73 647 73 647 50 c 128,-1,40
 647 27 647 27 628.5 8.5 c 128,-1,41
 610 -10 610 -10 580 -10 c 0,42,43
 535 -10 535 -10 514 40 c 0,44,45
 509 52 509 52 454 221 c 1,0,1
271 338 m 1,46,47
 296 336 296 336 345 336 c 128,-1,48
 394 336 394 336 419 338 c 1,49,50
 354 574 354 574 346 574 c 0,51,52
 339 574 339 574 288 397 c 2,53,-1
 271 338 l 1,46,47
236 927 m 0,54,55
 236 953 236 953 252 974.5 c 128,-1,56
 268 996 268 996 291.5 996 c 128,-1,57
 315 996 315 996 327 991.5 c 128,-1,58
 339 987 339 987 347.5 977 c 128,-1,59
 356 967 356 967 360.5 959.5 c 128,-1,60
 365 952 365 952 372 935.5 c 128,-1,61
 379 919 379 919 381.5 914.5 c 128,-1,62
 384 910 384 910 404.5 879.5 c 128,-1,63
 425 849 425 849 425 832 c 128,-1,64
 425 815 425 815 412 802.5 c 128,-1,65
 399 790 399 790 376 790 c 0,66,67
 340 790 340 790 288 834 c 128,-1,68
 236 878 236 878 236 927 c 0,54,55
EndSplineSet
EndChar

StartChar: Aacute
Encoding: 193 193 145
Width: 692
Flags: HMW
HStem: -10 21G<94.5 129 565.5 601> 221 125 740 20G<319 385.5> 790 206<308.5 424.5>
VStem: 276 189<821 942>
LayerCount: 2
Fore
SplineSet
454 221 m 1,0,1
 376 225 376 225 325 225 c 128,-1,2
 274 225 274 225 235 223 c 1,3,4
 223 192 223 192 205.5 130.5 c 128,-1,5
 188 69 188 69 179 43 c 0,6,7
 161 -10 161 -10 113 -10 c 0,8,9
 85 -10 85 -10 68 7 c 128,-1,10
 51 24 51 24 51 54.5 c 128,-1,11
 51 85 51 85 103 220 c 1,12,13
 51 232 51 232 51 280 c 0,14,15
 51 345 51 345 144 345 c 1,16,17
 158 388 158 388 198 500 c 128,-1,18
 238 612 238 612 249.5 646.5 c 128,-1,19
 261 681 261 681 267.5 696 c 128,-1,20
 274 711 274 711 285 728 c 0,21,22
 305.705882353 760 305.705882353 760 348 760 c 0,23,24
 378.571428571 760 378.571428571 760 403 741 c 0,25,26
 418.227488152 729.156398104 418.227488152 729.156398104 430.113744076 694.578199052 c 128,-1,27
 442 660 442 660 454.5 622.5 c 128,-1,28
 467 585 467 585 481.5 545.5 c 128,-1,29
 496 506 496 506 521.5 431 c 128,-1,30
 547 356 547 356 551 345 c 1,31,32
 556 346 556 346 569 346 c 0,33,34
 603 346 603 346 625 326.5 c 128,-1,35
 647 307 647 307 647 279 c 0,36,37
 647 233 647 233 591 218 c 1,38,39
 647 73 647 73 647 50 c 128,-1,40
 647 27 647 27 628.5 8.5 c 128,-1,41
 610 -10 610 -10 580 -10 c 0,42,43
 535 -10 535 -10 514 40 c 0,44,45
 509 52 509 52 454 221 c 1,0,1
271 338 m 1,46,47
 296 336 296 336 345 336 c 128,-1,48
 394 336 394 336 419 338 c 1,49,50
 354 574 354 574 346 574 c 0,51,52
 339 574 339 574 288 397 c 2,53,-1
 271 338 l 1,46,47
465 927 m 0,54,55
 465 878 465 878 413 834 c 128,-1,56
 361 790 361 790 325 790 c 0,57,58
 302 790 302 790 289 802.5 c 128,-1,59
 276 815 276 815 276 832 c 128,-1,60
 276 849 276 849 296.5 879.5 c 128,-1,61
 317 910 317 910 319.5 914.5 c 128,-1,62
 322 919 322 919 329 935.5 c 128,-1,63
 336 952 336 952 340.5 959.5 c 128,-1,64
 345 967 345 967 353.5 977 c 0,65,66
 369.65 996 369.65 996 401.325 996 c 128,-1,67
 433 996 433 996 449 974.5 c 128,-1,68
 465 953 465 953 465 927 c 0,54,55
EndSplineSet
EndChar

StartChar: Acircumflex
Encoding: 194 194 146
Width: 692
Flags: HMW
HStem: -10 21G<94.5 129 565.5 601> 221 125 740 20G<319 385.5> 794 226<207.5 373>
LayerCount: 2
Fore
SplineSet
454 221 m 1,0,1
 376 225 376 225 325 225 c 128,-1,2
 274 225 274 225 235 223 c 1,3,4
 223 192 223 192 205.5 130.5 c 128,-1,5
 188 69 188 69 179 43 c 0,6,7
 161 -10 161 -10 113 -10 c 0,8,9
 85 -10 85 -10 68 7 c 128,-1,10
 51 24 51 24 51 54.5 c 128,-1,11
 51 85 51 85 103 220 c 1,12,13
 51 232 51 232 51 280 c 0,14,15
 51 345 51 345 144 345 c 1,16,17
 158 388 158 388 198 500 c 128,-1,18
 238 612 238 612 249.5 646.5 c 128,-1,19
 261 681 261 681 267.5 696 c 128,-1,20
 274 711 274 711 285 728 c 0,21,22
 305.705882353 760 305.705882353 760 348 760 c 0,23,24
 378.571428571 760 378.571428571 760 403 741 c 0,25,26
 418.227488152 729.156398104 418.227488152 729.156398104 430.113744076 694.578199052 c 128,-1,27
 442 660 442 660 454.5 622.5 c 128,-1,28
 467 585 467 585 481.5 545.5 c 128,-1,29
 496 506 496 506 521.5 431 c 128,-1,30
 547 356 547 356 551 345 c 1,31,32
 556 346 556 346 569 346 c 0,33,34
 603 346 603 346 625 326.5 c 128,-1,35
 647 307 647 307 647 279 c 0,36,37
 647 233 647 233 591 218 c 1,38,39
 647 73 647 73 647 50 c 128,-1,40
 647 27 647 27 628.5 8.5 c 128,-1,41
 610 -10 610 -10 580 -10 c 0,42,43
 535 -10 535 -10 514 40 c 0,44,45
 509 52 509 52 454 221 c 1,0,1
271 338 m 1,46,47
 296 336 296 336 345 336 c 128,-1,48
 394 336 394 336 419 338 c 1,49,50
 354 574 354 574 346 574 c 0,51,52
 339 574 339 574 288 397 c 2,53,-1
 271 338 l 1,46,47
312.5 1012.5 m 128,-1,55
 328 1020 328 1020 349.5 1020 c 128,-1,56
 371 1020 371 1020 386 1011 c 128,-1,57
 401 1002 401 1002 424.5 975 c 128,-1,58
 448 948 448 948 458.5 937.5 c 128,-1,59
 469 927 469 927 486.5 911 c 128,-1,60
 504 895 504 895 510 889 c 0,61,62
 527 872 527 872 527 850 c 128,-1,63
 527 828 527 828 509.5 810.5 c 128,-1,64
 492 793 492 793 467.5 793 c 128,-1,65
 443 793 443 793 417 817 c 128,-1,66
 391 841 391 841 372.5 865 c 128,-1,67
 354 889 354 889 346 889 c 128,-1,68
 338 889 338 889 319.5 865.5 c 0,69,70
 263.212765957 794 263.212765957 794 223 794 c 0,71,72
 200 794 200 794 182.5 811.5 c 128,-1,73
 165 829 165 829 165 846 c 128,-1,74
 165 863 165 863 170.5 873.5 c 128,-1,75
 176 884 176 884 182 890 c 128,-1,76
 188 896 188 896 205.5 912 c 128,-1,77
 223 928 223 928 234 939 c 128,-1,78
 245 950 245 950 262 968.5 c 128,-1,79
 279 987 279 987 288 996 c 128,-1,54
 297 1005 297 1005 312.5 1012.5 c 128,-1,55
EndSplineSet
EndChar

StartChar: Atilde
Encoding: 195 195 147
Width: 692
Flags: HMW
HStem: -10 21G<94.5 129 565.5 601> 221 125 740 20G<319 385.5> 806 121 861 66 861 110 955 20G<229.5 303.5>
LayerCount: 2
Fore
SplineSet
454 221 m 1,0,1
 376 225 376 225 325 225 c 128,-1,2
 274 225 274 225 235 223 c 1,3,4
 223 192 223 192 205.5 130.5 c 128,-1,5
 188 69 188 69 179 43 c 0,6,7
 161 -10 161 -10 113 -10 c 0,8,9
 85 -10 85 -10 68 7 c 128,-1,10
 51 24 51 24 51 54.5 c 128,-1,11
 51 85 51 85 103 220 c 1,12,13
 51 232 51 232 51 280 c 0,14,15
 51 345 51 345 144 345 c 1,16,17
 158 388 158 388 198 500 c 128,-1,18
 238 612 238 612 249.5 646.5 c 128,-1,19
 261 681 261 681 267.5 696 c 128,-1,20
 274 711 274 711 285 728 c 0,21,22
 305.705882353 760 305.705882353 760 348 760 c 0,23,24
 378.571428571 760 378.571428571 760 403 741 c 0,25,26
 418.227488152 729.156398104 418.227488152 729.156398104 430.113744076 694.578199052 c 128,-1,27
 442 660 442 660 454.5 622.5 c 128,-1,28
 467 585 467 585 481.5 545.5 c 128,-1,29
 496 506 496 506 521.5 431 c 128,-1,30
 547 356 547 356 551 345 c 1,31,32
 556 346 556 346 569 346 c 0,33,34
 603 346 603 346 625 326.5 c 128,-1,35
 647 307 647 307 647 279 c 0,36,37
 647 233 647 233 591 218 c 1,38,39
 647 73 647 73 647 50 c 128,-1,40
 647 27 647 27 628.5 8.5 c 128,-1,41
 610 -10 610 -10 580 -10 c 0,42,43
 535 -10 535 -10 514 40 c 0,44,45
 509 52 509 52 454 221 c 1,0,1
271 338 m 1,46,47
 296 336 296 336 345 336 c 128,-1,48
 394 336 394 336 419 338 c 1,49,50
 354 574 354 574 346 574 c 0,51,52
 339 574 339 574 288 397 c 2,53,-1
 271 338 l 1,46,47
567 919 m 0,54,55
 567 885 567 885 525.5 848.5 c 128,-1,56
 484 812 484 812 446 812 c 128,-1,57
 408 812 408 812 357.5 836.5 c 128,-1,58
 307 861 307 861 291.5 861 c 128,-1,59
 276 861 276 861 245.5 833.5 c 128,-1,60
 215 806 215 806 188 806 c 128,-1,61
 161 806 161 806 143 824.5 c 128,-1,62
 125 843 125 843 125 870 c 0,63,64
 125 909 125 909 168 942 c 128,-1,65
 211 975 211 975 274 975 c 0,66,67
 306 975 306 975 360 951 c 128,-1,68
 414 927 414 927 436 927 c 128,-1,69
 458 927 458 927 482 949 c 128,-1,70
 506 971 506 971 524.5 971 c 128,-1,71
 543 971 543 971 555 956 c 128,-1,72
 567 941 567 941 567 919 c 0,54,55
EndSplineSet
EndChar

StartChar: Adieresis
Encoding: 196 196 148
Width: 692
Flags: HMW
HStem: -10 21G<94.5 129 565.5 601> 221 125 740 20G<319 385.5> 805 164<206 247 444 485>
VStem: 150 154<870.5 904.5> 388 154<870.5 904.5>
LayerCount: 2
Fore
SplineSet
454 221 m 1,0,1
 376 225 376 225 325 225 c 128,-1,2
 274 225 274 225 235 223 c 1,3,4
 223 192 223 192 205.5 130.5 c 128,-1,5
 188 69 188 69 179 43 c 0,6,7
 161 -10 161 -10 113 -10 c 0,8,9
 85 -10 85 -10 68 7 c 128,-1,10
 51 24 51 24 51 54.5 c 128,-1,11
 51 85 51 85 103 220 c 1,12,13
 51 232 51 232 51 280 c 0,14,15
 51 345 51 345 144 345 c 1,16,17
 158 388 158 388 198 500 c 128,-1,18
 238 612 238 612 249.5 646.5 c 128,-1,19
 261 681 261 681 267.5 696 c 128,-1,20
 274 711 274 711 285 728 c 0,21,22
 305.705882353 760 305.705882353 760 348 760 c 0,23,24
 378.571428571 760 378.571428571 760 403 741 c 0,25,26
 418.227488152 729.156398104 418.227488152 729.156398104 430.113744076 694.578199052 c 128,-1,27
 442 660 442 660 454.5 622.5 c 128,-1,28
 467 585 467 585 481.5 545.5 c 128,-1,29
 496 506 496 506 521.5 431 c 128,-1,30
 547 356 547 356 551 345 c 1,31,32
 556 346 556 346 569 346 c 0,33,34
 603 346 603 346 625 326.5 c 128,-1,35
 647 307 647 307 647 279 c 0,36,37
 647 233 647 233 591 218 c 1,38,39
 647 73 647 73 647 50 c 128,-1,40
 647 27 647 27 628.5 8.5 c 128,-1,41
 610 -10 610 -10 580 -10 c 0,42,43
 535 -10 535 -10 514 40 c 0,44,45
 509 52 509 52 454 221 c 1,0,1
271 338 m 1,46,47
 296 336 296 336 345 336 c 128,-1,48
 394 336 394 336 419 338 c 1,49,50
 354 574 354 574 346 574 c 0,51,52
 339 574 339 574 288 397 c 2,53,-1
 271 338 l 1,46,47
522 946.5 m 128,-1,55
 542 924 542 924 542 891 c 128,-1,56
 542 858 542 858 519 831.5 c 128,-1,57
 496 805 496 805 461.5 805 c 128,-1,58
 427 805 427 805 407.5 828 c 128,-1,59
 388 851 388 851 388 884 c 128,-1,60
 388 917 388 917 410.5 943 c 128,-1,61
 433 969 433 969 467.5 969 c 128,-1,54
 502 969 502 969 522 946.5 c 128,-1,55
284 946.5 m 128,-1,63
 304 924 304 924 304 891 c 128,-1,64
 304 858 304 858 281 831.5 c 128,-1,65
 258 805 258 805 223.5 805 c 128,-1,66
 189 805 189 805 169.5 828 c 128,-1,67
 150 851 150 851 150 884 c 128,-1,68
 150 917 150 917 172.5 943 c 128,-1,69
 195 969 195 969 229.5 969 c 128,-1,62
 264 969 264 969 284 946.5 c 128,-1,63
EndSplineSet
EndChar

StartChar: Aring
Encoding: 197 197 149
Width: 692
Flags: HMW
HStem: -10 21G<94.5 129 565.5 601> 221 125 740 20G<319 385.5> 815 69<336.5 355.5 336.5 378.5> 944 72<336.5 355.5>
VStem: 239 75<906.5 921.5 906.5 943> 239 214<887 943>
LayerCount: 2
Fore
SplineSet
454 221 m 1,0,1
 376 225 376 225 325 225 c 128,-1,2
 274 225 274 225 235 223 c 1,3,4
 223 192 223 192 205.5 130.5 c 128,-1,5
 188 69 188 69 179 43 c 0,6,7
 161 -10 161 -10 113 -10 c 0,8,9
 85 -10 85 -10 68 7 c 128,-1,10
 51 24 51 24 51 54.5 c 128,-1,11
 51 85 51 85 103 220 c 1,12,13
 51 232 51 232 51 280 c 0,14,15
 51 345 51 345 144 345 c 1,16,17
 158 388 158 388 198 500 c 128,-1,18
 238 612 238 612 249.5 646.5 c 128,-1,19
 261 681 261 681 267.5 696 c 128,-1,20
 274 711 274 711 285 728 c 0,21,22
 305.705882353 760 305.705882353 760 348 760 c 0,23,24
 378.571428571 760 378.571428571 760 403 741 c 0,25,26
 418.227488152 729.156398104 418.227488152 729.156398104 430.113744076 694.578199052 c 128,-1,27
 442 660 442 660 454.5 622.5 c 128,-1,28
 467 585 467 585 481.5 545.5 c 128,-1,29
 496 506 496 506 521.5 431 c 128,-1,30
 547 356 547 356 551 345 c 1,31,32
 556 346 556 346 569 346 c 0,33,34
 603 346 603 346 625 326.5 c 128,-1,35
 647 307 647 307 647 279 c 0,36,37
 647 233 647 233 591 218 c 1,38,39
 647 73 647 73 647 50 c 128,-1,40
 647 27 647 27 628.5 8.5 c 128,-1,41
 610 -10 610 -10 580 -10 c 0,42,43
 535 -10 535 -10 514 40 c 0,44,45
 509 52 509 52 454 221 c 1,0,1
271 338 m 1,46,47
 296 336 296 336 345 336 c 128,-1,48
 394 336 394 336 419 338 c 1,49,50
 354 574 354 574 346 574 c 0,51,52
 339 574 339 574 288 397 c 2,53,-1
 271 338 l 1,46,47
422.5 986.5 m 128,-1,55
 453 957 453 957 453 914.5 c 128,-1,56
 453 872 453 872 423.5 843.5 c 128,-1,57
 394 815 394 815 346 815 c 128,-1,58
 298 815 298 815 268.5 843.5 c 128,-1,59
 239 872 239 872 239 914.5 c 128,-1,60
 239 957 239 957 269.5 986.5 c 128,-1,61
 300 1016 300 1016 346 1016 c 128,-1,54
 392 1016 392 1016 422.5 986.5 c 128,-1,55
377 914 m 128,-1,63
 377 926 377 926 368.5 935 c 128,-1,64
 360 944 360 944 346 944 c 128,-1,65
 332 944 332 944 323 935 c 128,-1,66
 314 926 314 926 314 914 c 128,-1,67
 314 902 314 902 323 893 c 128,-1,68
 332 884 332 884 346 884 c 128,-1,69
 360 884 360 884 368.5 893 c 128,-1,62
 377 902 377 902 377 914 c 128,-1,63
EndSplineSet
EndChar

StartChar: r
Encoding: 114 114 150
Width: 565
Flags: HMW
HStem: -12 21G<128.5 184.5> 589 175<446.5 448 365.5 488> 636 128<365.5 390> 741 20G<127.5 175.5>
VStem: 76 155
LayerCount: 2
Fore
SplineSet
223 352 m 1,0,1
 231 96 l 1,2,3
 231 -12 231 -12 156 -12 c 0,4,5
 72 -12 72 -12 72 115 c 0,6,7
 72 205 72 205 98 386 c 1,8,9
 98 433 98 433 87 529 c 128,-1,10
 76 625 76 625 76 669.5 c 128,-1,11
 76 714 76 714 96 737.5 c 128,-1,12
 116 761 116 761 151.5 761 c 128,-1,13
 187 761 187 761 206.5 734 c 128,-1,14
 226 707 226 707 226 659 c 1,15,16
 257 706 257 706 303.5 735 c 128,-1,17
 350 764 350 764 409 764 c 128,-1,18
 468 764 468 764 505 734 c 128,-1,19
 542 704 542 704 542 668.5 c 128,-1,20
 542 633 542 633 520 611 c 128,-1,21
 498 589 498 589 471 589 c 128,-1,22
 444 589 444 589 415.5 612.5 c 128,-1,23
 387 636 387 636 377 636 c 0,24,25
 342 636 342 636 290 540.5 c 128,-1,26
 238 445 238 445 223 352 c 1,0,1
EndSplineSet
EndChar

StartChar: u
Encoding: 117 117 151
Width: 821
Flags: HMW
HStem: -10 21G<636 694> -9 128<307 385> 740 20G<129.5 173.5> 741 20G<589.5 645.5>
VStem: 72 157 93 136<264.5 554.5> 543 159<610.5 678 609.5 683.5>
LayerCount: 2
Fore
SplineSet
549 359 m 1,0,-1
 543 653 l 1,1,2
 543 761 543 761 618 761 c 0,3,4
 702 761 702 761 702 634 c 0,5,6
 702 534 702 534 676 363 c 1,7,8
 676 309 676 309 687 224 c 128,-1,9
 698 139 698 139 717 126 c 0,10,11
 735 114 735 114 743 111 c 128,-1,12
 751 108 751 108 754 105.5 c 0,13,14
 759 101.333333333 759 101.333333333 759 86 c 0,15,16
 759 48 759 48 733 19 c 128,-1,17
 707 -10 707 -10 665.5 -10 c 128,-1,18
 624 -10 624 -10 597 25.5 c 128,-1,19
 570 61 570 61 560 116 c 1,20,21
 528 64 528 64 467 27.5 c 128,-1,22
 406 -9 406 -9 335 -9 c 0,23,24
 217 -9 217 -9 152 69.5 c 128,-1,25
 87 148 87 148 87 261 c 1,26,-1
 93 516 l 2,27,28
 93 557 93 557 82.5 604.5 c 128,-1,29
 72 652 72 652 72 684.5 c 128,-1,30
 72 717 72 717 94.5 738.5 c 128,-1,31
 117 760 117 760 153 760 c 0,32,33
 236 760 236 760 236 634 c 1,34,-1
 229 323 l 1,35,36
 229 231 229 231 259 175 c 128,-1,37
 289 119 289 119 347 119 c 128,-1,38
 405 119 405 119 465 191.5 c 128,-1,39
 525 264 525 264 549 359 c 1,0,-1
EndSplineSet
EndChar

StartChar: m
Encoding: 109 109 152
Width: 1216
Flags: HMW
HStem: -12 21G<1014.5 1084> -10 21G<129.5 185.5 556.5 612.5> 632 128<382.5 454.5 809.5 881.5> 743 20G<128.5 176.5>
VStem: 77 155 500 159<73 140.5 67.5 141.5> 953 136<207.5 486.5> 953 201
LayerCount: 2
Fore
SplineSet
226 392 m 1,0,-1
 232 98 l 1,1,2
 232 -10 232 -10 157 -10 c 0,3,4
 73 -10 73 -10 73 117 c 0,5,6
 73 217 73 217 99 388 c 1,7,8
 99 435 99 435 88 531 c 128,-1,9
 77 627 77 627 77 671.5 c 128,-1,10
 77 716 77 716 97 739.5 c 128,-1,11
 117 763 117 763 153 763 c 0,12,13
 226 763 226 763 226 650 c 1,14,15
 309 760 309 760 430 760 c 0,16,17
 502 760 502 760 555.5 725 c 128,-1,18
 609 690 609 690 638 632 c 1,19,20
 674 686 674 686 732 723 c 128,-1,21
 790 760 790 760 857 760 c 0,22,23
 970 760 970 760 1032.5 681.5 c 128,-1,24
 1095 603 1095 603 1095 490 c 1,25,-1
 1089 235 l 1,26,27
 1089 139 1089 139 1101 128 c 0,28,29
 1111.42105263 119.315789474 1111.42105263 119.315789474 1127.21052632 116.157894737 c 128,-1,30
 1143 113 1143 113 1148.5 106.5 c 128,-1,31
 1154 100 1154 100 1154 88 c 0,32,33
 1154 46 1154 46 1125.5 17 c 128,-1,34
 1097 -12 1097 -12 1059 -12 c 0,35,36
 996 -12 996 -12 972 31.5 c 128,-1,37
 948 75 948 75 948 160 c 1,38,-1
 953 428 l 1,39,40
 953 520 953 520 925.5 576 c 128,-1,41
 898 632 898 632 843.5 632 c 128,-1,42
 789 632 789 632 732.5 559.5 c 128,-1,43
 676 487 676 487 653 392 c 1,44,-1
 659 98 l 1,45,46
 659 -10 659 -10 584 -10 c 0,47,48
 500 -10 500 -10 500 117 c 0,49,50
 500 217 500 217 526 388 c 1,51,52
 526 502 526 502 499 567 c 128,-1,53
 472 632 472 632 417 632 c 128,-1,54
 362 632 362 632 305.5 559.5 c 128,-1,55
 249 487 249 487 226 392 c 1,0,-1
EndSplineSet
EndChar

StartChar: n
Encoding: 110 110 153
Width: 808
Flags: HMW
HStem: -12 21G<606.5 676> -10 21G<128.5 184.5> 632 128<389 467> 743 20G<127.5 175.5>
VStem: 76 155 545 136<207.5 486.5> 545 201
LayerCount: 2
Fore
SplineSet
540 160 m 1,0,-1
 545 428 l 1,1,2
 545 520 545 520 515 576 c 128,-1,3
 485 632 485 632 427 632 c 128,-1,4
 369 632 369 632 309 559.5 c 128,-1,5
 249 487 249 487 225 392 c 1,6,-1
 231 98 l 1,7,8
 231 -10 231 -10 156 -10 c 0,9,10
 72 -10 72 -10 72 117 c 0,11,12
 72 217 72 217 98 388 c 1,13,14
 98 435 98 435 87 531 c 128,-1,15
 76 627 76 627 76 671.5 c 128,-1,16
 76 716 76 716 96 739.5 c 128,-1,17
 116 763 116 763 152 763 c 0,18,19
 225 763 225 763 225 650 c 1,20,21
 312 760 312 760 434.5 760 c 128,-1,22
 557 760 557 760 622 681.5 c 128,-1,23
 687 603 687 603 687 490 c 1,24,-1
 681 235 l 1,25,26
 681 140 681 140 693 128 c 0,27,28
 700 121 700 121 714 118 c 128,-1,29
 728 115 728 115 737 109 c 128,-1,30
 746 103 746 103 746 88 c 0,31,32
 746 46 746 46 717.5 17 c 128,-1,33
 689 -12 689 -12 651 -12 c 0,34,35
 588 -12 588 -12 564 31.5 c 128,-1,36
 540 75 540 75 540 160 c 1,0,-1
EndSplineSet
EndChar

StartChar: a
Encoding: 97 97 154
Width: 808
Flags: HMW
HStem: -15 127<292 377.5 292 377.5> -14 21G<623 681> 638 127<333.5 407 281 410>
VStem: 62 142<298.5 444.5 298.5 467.5> 533 157
LayerCount: 2
Fore
SplineSet
666.5 731.5 m 128,-1,1
 690 698 690 698 690 647.5 c 128,-1,2
 690 597 690 597 662 366 c 1,3,4
 662 312 662 312 673.5 223.5 c 128,-1,5
 685 135 685 135 704 122 c 0,6,7
 722 110 722 110 730 107 c 128,-1,8
 738 104 738 104 741 101.5 c 0,9,10
 746 97.3333333333 746 97.3333333333 746 82 c 0,11,12
 746 44 746 44 720 15 c 128,-1,13
 694 -14 694 -14 652.5 -14 c 128,-1,14
 611 -14 611 -14 584 21.5 c 128,-1,15
 557 57 557 57 547 112 c 1,16,17
 454 -15 454 -15 329 -15 c 0,18,19
 262 -15 262 -15 209 19.5 c 128,-1,20
 156 54 156 54 125 110 c 0,21,22
 62 223.806451613 62 223.806451613 62 363 c 0,23,24
 62 527 62 527 150 646 c 128,-1,25
 238 765 238 765 378 765 c 0,26,27
 460 765 460 765 534 721 c 1,28,29
 549 765 549 765 602 765 c 0,30,0
 643 765 643 765 666.5 731.5 c 128,-1,1
536 357 m 1,31,-1
 531 577 l 1,32,33
 460 638 460 638 378 638 c 0,34,35
 309 638 309 638 256.5 559.5 c 128,-1,36
 204 481 204 481 204 370 c 128,-1,37
 204 259 204 259 238.5 185.5 c 128,-1,38
 273 112 273 112 334.5 112 c 128,-1,39
 396 112 396 112 459.5 194 c 128,-1,40
 523 276 523 276 536 357 c 1,31,-1
EndSplineSet
EndChar

StartChar: e
Encoding: 101 101 155
Width: 744
Flags: HMW
HStem: -15 189<334.5 638> 296 124<375 441 375 471> 638 127<396 486>
VStem: 559 142<501.5 563>
LayerCount: 2
Fore
SplineSet
559 542 m 0,0,1
 559 578 559 578 530 608 c 128,-1,2
 501 638 501 638 447 638 c 0,3,4
 376 638 376 638 326.5 578 c 128,-1,5
 277 518 277 518 257 434 c 1,6,7
 317 420 317 420 391.5 420 c 128,-1,8
 466 420 466 420 512.5 452 c 128,-1,9
 559 484 559 484 559 542 c 0,0,1
604 33.5 m 128,-1,11
 530 -15 530 -15 446 -15 c 128,-1,12
 362 -15 362 -15 301.5 14.5 c 128,-1,13
 241 44 241 44 201.5 94 c 0,14,15
 120.146435064 196.979196122 120.146435064 196.979196122 110 337 c 1,16,17
 42 364 42 364 42 420 c 0,18,19
 42 448 42 448 60.5 465.5 c 128,-1,20
 79 483 79 483 106 483 c 0,21,22
 113.5 483 113.5 483 124 480 c 1,23,24
 159 604 159 604 243 684.5 c 128,-1,25
 327 765 327 765 439.5 765 c 128,-1,26
 552 765 552 765 626.5 700.5 c 128,-1,27
 701 636 701 636 701 546.5 c 128,-1,28
 701 457 701 457 655.5 400.5 c 0,29,30
 571.345132743 296 571.345132743 296 393 296 c 0,31,32
 334 296 334 296 256 309 c 1,33,34
 271 225 271 225 319 168 c 128,-1,35
 367 111 367 111 429 111 c 0,36,37
 497.65625 111 497.65625 111 575.5 158 c 0,38,39
 602 174 602 174 624 174 c 128,-1,40
 646 174 646 174 662 159 c 128,-1,41
 678 144 678 144 678 121 c 0,42,10
 678 82 678 82 604 33.5 c 128,-1,11
EndSplineSet
EndChar

